<?xml version="1.0" standalone="no"?>
<!DOCTYPE svg PUBLIC "-//W3C//DTD SVG 20010904//EN"
 "http://www.w3.org/TR/2001/REC-SVG-20010904/DTD/svg10.dtd">
<svg version="1.0" xmlns="http://www.w3.org/2000/svg"
 width="512.000000pt" height="512.000000pt" viewBox="0 0 512.000000 512.000000"
 preserveAspectRatio="xMidYMid meet">

<g transform="translate(0.000000,512.000000) scale(0.100000,-0.100000)"
fill="#000000" stroke="none">
<path d="M824 5100 c-70 -28 -128 -80 -160 -145 l-26 -55 -53 0 c-220 0 -406
-135 -460 -334 -32 -116 -23 -165 139 -759 80 -296 146 -544 146 -551 0 -7
-12 -23 -26 -37 -75 -70 -82 -147 -29 -340 82 -298 178 -466 375 -651 154
-146 336 -248 537 -301 l88 -23 3 -336 2 -337 26 -20 c33 -26 65 -27 95 -2
l24 19 3 380 3 380 -23 25 c-18 20 -43 29 -108 42 -235 46 -433 154 -596 327
-141 149 -220 298 -283 532 -43 158 -43 180 1 210 12 9 32 16 44 16 47 0 64
-30 110 -190 53 -183 104 -290 190 -400 151 -190 387 -320 634 -350 174 -21
347 9 515 89 121 58 202 118 293 216 134 146 171 243 110 288 -42 31 -74 15
-126 -63 -122 -187 -267 -297 -466 -354 -379 -110 -778 74 -946 436 -16 35
-47 127 -68 205 -51 184 -78 222 -188 261 l-47 17 -149 550 c-138 510 -149
555 -145 620 9 163 124 273 296 283 l76 4 25 -51 c25 -55 86 -118 141 -147 20
-10 65 -19 110 -22 66 -4 84 -1 131 20 117 54 170 132 176 260 4 65 0 85 -21
131 -65 142 -233 213 -373 157z m176 -152 c51 -35 72 -69 72 -119 2 -88 -57
-149 -143 -149 -87 0 -154 72 -146 157 11 107 132 168 217 111z"/>
<path d="M2132 5106 c-119 -39 -202 -152 -202 -275 0 -83 14 -128 59 -187 25
-34 57 -59 101 -82 61 -32 70 -34 145 -30 55 3 93 11 120 25 52 27 114 95 140
152 l19 43 86 -4 c143 -8 241 -69 293 -186 40 -90 35 -117 -128 -719 l-150
-552 -30 -7 c-84 -17 -151 -83 -180 -179 -21 -69 -19 -98 8 -123 51 -48 108
-19 132 66 18 63 45 91 88 92 34 0 77 -40 77 -72 0 -44 -82 -313 -119 -394
-96 -204 -242 -364 -441 -484 -121 -73 -246 -118 -403 -145 -21 -3 -47 -15
-58 -26 -18 -18 -19 -38 -19 -647 0 -684 0 -689 58 -796 15 -28 56 -81 92
-117 156 -158 381 -193 590 -92 70 34 177 141 213 214 50 100 57 146 57 379 1
234 12 322 53 431 80 212 272 385 497 449 57 16 115 23 241 27 l166 6 -1 -80
-1 -80 -160 -6 c-176 -5 -239 -20 -345 -80 -82 -46 -178 -148 -223 -237 -56
-113 -67 -180 -67 -436 0 -187 -3 -233 -20 -298 -104 -406 -552 -621 -925
-442 -172 82 -281 202 -348 381 -27 72 -30 96 -36 233 -6 146 -7 155 -30 173
-32 26 -73 24 -99 -4 -20 -21 -22 -34 -22 -146 0 -71 6 -154 16 -199 85 -421
500 -709 924 -641 340 54 611 318 676 657 9 49 14 144 14 282 0 117 5 232 11
262 26 121 114 240 218 292 85 44 152 56 306 56 l140 0 32 -68 c116 -248 356
-402 628 -402 265 0 499 146 616 386 128 264 76 576 -131 783 -85 86 -156 131
-259 167 -187 65 -381 48 -564 -48 -91 -48 -222 -183 -272 -279 l-39 -76 -190
-6 c-207 -6 -283 -20 -415 -75 -195 -82 -371 -256 -462 -457 -59 -130 -70
-204 -77 -495 -7 -259 -8 -266 -33 -321 -37 -79 -90 -133 -167 -171 -60 -30
-75 -33 -157 -33 -82 0 -97 3 -157 33 -74 36 -132 94 -170 170 l-23 47 -3 598
c-2 510 -1 597 12 597 42 0 206 58 311 110 142 70 232 135 338 243 92 93 164
192 219 302 55 109 80 177 123 340 28 106 36 150 31 184 -7 50 -46 123 -77
145 -20 14 -19 19 126 557 81 299 151 568 156 598 20 123 -30 270 -126 370
-90 94 -207 141 -354 141 l-69 0 -26 54 c-48 97 -138 157 -246 162 -38 2 -83
-2 -108 -10z m154 -152 c101 -48 110 -188 15 -251 -68 -46 -170 -22 -206 48
-66 126 64 263 191 203z m2210 -2668 c89 -33 152 -72 214 -136 158 -160 195
-406 93 -618 -36 -75 -160 -200 -233 -235 -279 -134 -596 -27 -729 244 -66
135 -75 259 -30 405 46 149 192 296 343 344 107 34 240 32 342 -4z"/>
<path d="M4265 2156 c-5 -2 -22 -7 -38 -10 -63 -14 -88 -85 -46 -127 19 -19
28 -20 94 -14 89 8 140 -6 195 -53 56 -47 82 -102 82 -171 2 -215 -250 -315
-399 -159 -42 44 -64 108 -62 182 2 53 -1 62 -25 83 -34 29 -58 29 -93 -1 -27
-23 -28 -28 -28 -113 0 -79 3 -95 32 -153 59 -121 166 -202 288 -218 171 -22
324 57 398 207 30 61 32 72 32 171 0 96 -2 110 -30 163 -39 78 -127 159 -202
187 -53 20 -174 35 -198 26z"/>
</g>
</svg>
