<?xml version="1.0" encoding="UTF-8"?>
<svg version="1.1" xmlns="http://www.w3.org/2000/svg" width="512" height="512">
<path d="M0 0 C5.8415478 5.4056114 8.45512415 11.6775121 8.9921875 19.48828125 C9.02205083 29.08934149 3.75421962 36.34717105 -2.75190735 43.05210876 C-4.16316649 44.44493169 -5.58265431 45.82945225 -7.0090332 47.20678711 C-7.78858871 47.97232407 -8.56814423 48.73786102 -9.37132263 49.52659607 C-11.0508715 51.17483436 -12.73369693 52.81973933 -14.41948891 54.46159172 C-17.08863399 57.06425365 -19.7453541 59.67901081 -22.39872742 62.29774475 C-29.93889708 69.73749632 -37.49101098 77.16468826 -45.07446289 84.56030273 C-49.72372993 89.0965354 -54.35070221 93.65451328 -58.96419334 98.22711372 C-60.72179853 99.96059635 -62.48769123 101.68571846 -64.26198769 103.40211296 C-66.7417338 105.8022761 -69.19213998 108.22913943 -71.63793945 110.66381836 C-72.37297699 111.36178528 -73.10801453 112.0597522 -73.86532593 112.77886963 C-78.38948474 117.35763408 -79.84001128 120.63764396 -80.04007244 127.10556889 C-80.02684854 127.73073115 -80.01362463 128.35589342 -80 129 C-79.30448029 129.04964905 -78.60896057 129.0992981 -77.8923645 129.15045166 C-69.99747236 129.73855547 -62.32432074 131.10052263 -54.5625 132.625 C-53.89048553 132.75660522 -53.21847107 132.88821045 -52.52609253 133.02380371 C-13.01560399 140.80016538 24.77915377 152.77637648 61.625 169 C62.45483398 169.3616626 63.28466797 169.7233252 64.13964844 170.09594727 C64.89020508 170.43553467 65.64076172 170.77512207 66.4140625 171.125 C67.0632666 171.41632813 67.7124707 171.70765625 68.38134766 172.0078125 C70 173 70 173 72 176 C72.25726891 178.6068716 72.25726891 178.6068716 72.26742554 181.80064392 C72.28022049 183.61561623 72.28022049 183.61561623 72.29327393 185.46725464 C72.29257489 186.81011976 72.29165182 188.15298478 72.29052734 189.49584961 C72.29651094 190.90850684 72.30331609 192.32116079 72.31088257 193.73381042 C72.32856598 197.57263935 72.33323889 201.41137914 72.33451414 205.25024486 C72.33641229 208.45361607 72.34376876 211.65696648 72.35085833 214.86032969 C72.36714839 222.41690693 72.37202668 229.97343651 72.37060547 237.5300293 C72.3694035 245.32871096 72.3905148 253.12711611 72.4220928 260.92572778 C72.44822988 267.61880228 72.45897387 274.31178632 72.45769465 281.00491148 C72.4571843 285.00356071 72.46290736 289.00196421 72.48405075 293.00056267 C72.50339046 296.76074378 72.50358738 300.52044364 72.48901749 304.28064156 C72.48692301 305.66093268 72.49166831 307.04125359 72.5037384 308.42149353 C72.51914372 310.30505937 72.50750511 312.18878866 72.49447632 314.07237244 C72.49556585 315.12669433 72.49665539 316.18101622 72.49777794 317.26728725 C71.84592351 320.84585265 70.89411635 321.81068428 68 324 C65.24853809 324.39207261 62.89762761 324.53790488 60.14758301 324.50336456 C58.94708895 324.51208521 58.94708895 324.51208521 57.72234249 324.52098203 C55.02357769 324.53565335 52.32571225 324.52166387 49.62695312 324.50793457 C47.67944115 324.51254067 45.73193265 324.51889162 43.78443146 324.52684355 C38.4195545 324.54359995 33.05496077 324.53526187 27.69008255 324.52289867 C21.90949802 324.51387626 16.1289634 324.52780392 10.34838867 324.53881836 C-0.98098517 324.55663826 -12.31025322 324.55274815 -23.63963127 324.5411678 C-32.84431708 324.53214738 -42.04897316 324.53090343 -51.25366211 324.53526306 C-52.56193576 324.53587599 -53.87020942 324.53648893 -55.21812773 324.53712043 C-57.87556268 324.53839929 -60.53299762 324.53969614 -63.19043255 324.5410108 C-87.41872648 324.55250327 -111.64696686 324.54058499 -135.87525165 324.51964041 C-158.00280289 324.50065732 -180.13026206 324.50235581 -202.2578125 324.52148438 C-227.10614708 324.54289306 -251.95443 324.55132803 -276.80277252 324.53903532 C-279.45062764 324.53776108 -282.09848276 324.53650359 -284.74633789 324.53526306 C-286.70071376 324.53433741 -286.70071376 324.53433741 -288.69457197 324.53339306 C-297.8920156 324.52993417 -307.08942665 324.53578009 -316.28686523 324.54518127 C-327.49001476 324.55638049 -338.69305212 324.55340502 -349.89618874 324.5320583 C-355.61612753 324.5215199 -361.33587909 324.51747348 -367.05581665 324.53065491 C-372.28652667 324.54252693 -377.51687496 324.53610231 -382.74755192 324.5147447 C-384.6451993 324.51025654 -386.5428769 324.51259412 -388.44050503 324.52224785 C-391.00997231 324.53432213 -393.57818261 324.52202924 -396.14758301 324.50336456 C-397.26598241 324.51741156 -397.26598241 324.51741156 -398.40697575 324.53174233 C-401.83615233 324.48157701 -403.68569007 324.23682451 -406.45931578 322.14696836 C-408.54169559 319.24513844 -408.5031112 317.33196492 -408.50793457 313.77539062 C-408.51921387 312.49672119 -408.53049316 311.21805176 -408.54211426 309.90063477 C-408.53433723 308.48583758 -408.52614457 307.07104263 -408.51757812 305.65625 C-408.52299892 304.16462521 -408.53012134 302.67300577 -408.53881836 301.18139648 C-408.55706004 297.13177372 -408.5499809 293.08255839 -408.53730202 289.03292847 C-408.52717864 284.79602964 -408.53656585 280.55916582 -408.54284668 276.32226562 C-408.55012503 269.2069675 -408.54053052 262.09183542 -408.52148438 254.9765625 C-408.49971519 246.748972 -408.50676643 238.52177797 -408.52879 230.29419708 C-408.5469387 223.23165746 -408.54950494 216.16923723 -408.53903532 209.10668182 C-408.53279744 204.88786825 -408.53197274 200.66924107 -408.54518127 196.45043945 C-408.55673156 192.48419627 -408.54872962 188.51846451 -408.52560425 184.55227661 C-408.52031268 183.09621022 -408.52183866 181.64010083 -408.53065491 180.18405151 C-408.54157434 178.19758638 -408.525457 176.21102724 -408.50793457 174.22460938 C-408.50642647 173.11259155 -408.50491837 172.00057373 -408.50336456 170.8548584 C-407.88160545 167.32851911 -406.77134321 166.19524312 -404 164 C-401.26464844 162.66308594 -401.26464844 162.66308594 -398.109375 161.484375 C-396.93769775 161.04198486 -395.76602051 160.59959473 -394.55883789 160.14379883 C-393.28951443 159.67840977 -392.01989394 159.21383014 -390.75 158.75 C-389.43274466 158.26162641 -388.11560738 157.77293429 -386.79858398 157.28393555 C-382.8736131 155.83380722 -378.93880217 154.41206768 -375 153 C-373.93475098 152.61730957 -372.86950195 152.23461914 -371.77197266 151.84033203 C-316.27711447 132.13213342 -257.75108322 123.32513114 -199 124 C-199 129.28 -199 134.56 -199 140 C-202.07904691 141.02634897 -204.2826276 141.15397045 -207.51171875 141.2109375 C-208.64617432 141.23720215 -209.78062988 141.2634668 -210.94946289 141.29052734 C-212.18301514 141.31840332 -213.41656738 141.3462793 -214.6875 141.375 C-236.32845695 141.99856454 -257.89653238 143.88954888 -279.26171875 147.44921875 C-283 148 -283 148 -288 148 C-288 179.68 -288 211.36 -288 244 C-208.8 244 -129.6 244 -48 244 C-48.495 198.46 -48.495 198.46 -49 152 C-65.91080717 148.49313918 -65.91080717 148.49313918 -83 147 C-85.65527409 148.7953865 -85.65527409 148.7953865 -88.05566406 151.39038086 C-88.7544165 152.0902285 -88.7544165 152.0902285 -89.46728516 152.80421448 C-90.9979334 154.34411316 -92.50634429 155.90402123 -94.015625 157.46484375 C-95.07703879 158.53999538 -96.13986588 159.61375345 -97.20404053 160.68617249 C-99.99814292 163.50881139 -102.77419014 166.34855239 -105.54638672 169.19268799 C-108.92171785 172.64964525 -112.3162386 176.08773823 -115.70968246 179.5269022 C-118.34868082 182.20168382 -120.98404828 184.8797183 -123.60894775 187.56834412 C-124.09160095 188.06094727 -124.57425415 188.55355042 -125.0715332 189.06108093 C-126.37514396 190.3916595 -127.67645485 191.72449022 -128.9776001 193.05747986 C-131.86124781 195.82723067 -133.41767427 196.12480366 -137.30264282 196.12025452 C-138.65723854 196.12231651 -138.65723854 196.12231651 -140.03919983 196.12442017 C-141.0325383 196.12082489 -142.02587677 196.11722961 -143.04931641 196.11352539 C-144.09324051 196.11367142 -145.13716461 196.11381744 -146.21272278 196.1139679 C-149.67569023 196.11326922 -153.1386044 196.10547891 -156.6015625 196.09765625 C-158.99767019 196.09579191 -161.39377827 196.09436808 -163.78988647 196.09336853 C-170.10608975 196.08954461 -176.42227014 196.07971538 -182.73846436 196.06866455 C-189.17980642 196.05844774 -195.62115217 196.05387033 -202.0625 196.04882812 C-214.7083434 196.03809302 -227.3541698 196.02101808 -240 196 C-240 190.72 -240 185.44 -240 180 C-238.27529008 180.11884174 -236.55058016 180.23768349 -234.7736063 180.3601265 C-222.46988346 180.81677854 -212.46791796 180.68886141 -203.02488708 172.11785889 C-199.78535374 169.02787141 -196.72343577 165.79918238 -193.66186523 162.53417969 C-191.91623928 160.77299652 -190.16477106 159.01758809 -188.40802002 157.26750183 C-184.66560294 153.51413873 -180.96605489 149.72538043 -177.3008709 145.89702606 C-171.99423803 140.35476993 -166.61276656 134.89012413 -161.21099914 129.44073966 C-152.43492135 120.58372609 -143.71647406 111.67225326 -135.03540039 102.72216797 C-126.63061492 94.05725141 -118.20571852 85.41287941 -109.74829102 76.79931641 C-109.22636637 76.26773394 -108.70444173 75.73615147 -108.16670119 75.18846044 C-102.4619088 69.37911851 -96.75228828 63.574534 -91.04064274 57.77193069 C-89.5238495 56.23082231 -88.00707952 54.68969105 -86.49033945 53.14853033 C-85.49020813 52.13236502 -84.48999704 51.11627821 -83.48970497 50.10027114 C-77.14929745 43.65952517 -70.83024626 37.19881485 -64.5337218 30.71516466 C-60.92494755 26.9998715 -57.30425884 23.29623818 -53.68301392 19.59310341 C-52.01027459 17.87755683 -50.34208255 16.15756249 -48.67888069 14.43276787 C-46.40309479 12.07345491 -44.11177867 9.73029929 -41.81639099 7.39007568 C-41.16745689 6.70884227 -40.5185228 6.02760885 -39.84992403 5.32573199 C-28.47465022 -6.15986546 -13.61896474 -9.85652701 0 0 Z M-28.30200195 18.33323669 C-28.9907906 19.01448437 -29.67957924 19.69573205 -30.38924026 20.3976236 C-32.69168571 22.68455367 -34.96439097 24.9989106 -37.23828125 27.31420898 C-38.88305007 28.95959735 -40.52957425 30.60323261 -42.17771912 32.24523926 C-46.64777095 36.70871933 -51.09263612 41.19654315 -55.53330994 45.68922687 C-59.70784165 49.90533104 -63.90047454 54.10329249 -68.09296966 58.3015225 C-76.39578342 66.61696099 -84.68022018 74.95046309 -92.95361328 83.29516602 C-100.98819164 91.39893083 -109.03253542 99.49280851 -117.08935547 107.57446289 C-117.58608194 108.07272575 -118.08280842 108.57098861 -118.59458721 109.08435034 C-120.59103004 111.08690381 -122.58752186 113.08940843 -124.5840835 115.09184345 C-139.86456842 130.41779926 -155.13696574 145.75197341 -170.37730598 161.11785126 C-171.97933994 162.73244966 -173.58221731 164.34621169 -175.18597221 165.95910072 C-177.36433283 168.15029994 -179.53955035 170.34456885 -181.71386719 172.53977966 C-182.3581986 173.18665519 -183.00253 173.83353071 -183.6663866 174.50000852 C-186.60588233 176.88030501 -186.60588233 176.88030501 -188 180 C-170.48809536 183.38131564 -150.09855555 186.45725844 -134.47167969 176.06835938 C-128.34248048 171.59141033 -122.88527416 166.39544265 -117.58250427 160.9825592 C-116.13739664 159.51260974 -114.67155669 158.06620057 -113.20129395 156.62145996 C-104.19041691 147.65928714 -96.32680483 139.36840081 -95.69406128 126.19934082 C-95.72527379 124.14465916 -95.82141193 122.08955507 -95.99368286 120.04187012 C-96.58740505 112.91413668 -96.58740505 112.91413668 -94.73240757 110.02733612 C-94.1588248 109.41853859 -93.58524202 108.80974106 -92.99427795 108.18249512 C-92.3532312 107.49501945 -91.71218445 106.80754379 -91.05171204 106.09923553 C-90.37464706 105.40648781 -89.69758209 104.71374008 -89 104 C-88.04818092 103.0234483 -88.04818092 103.0234483 -87.07713318 102.02716827 C-85.0239427 99.95670371 -82.94658999 97.9133974 -80.86157227 95.875 C-79.24419817 94.28392493 -77.62689696 92.69277576 -76.00965881 91.1015625 C-75.16306261 90.27043945 -74.31646641 89.43931641 -73.44421577 88.58300781 C-68.93417628 84.1498603 -64.44213452 79.69851935 -59.94726562 75.25 C-54.24067128 69.60349009 -48.52920266 63.9623868 -42.79516602 58.34375 C-38.14599319 53.78801773 -33.51797645 49.21142768 -28.90199089 44.62207031 C-27.1424054 42.87977069 -25.37566442 41.14466681 -23.601717 39.41699219 C-21.12655381 37.00451923 -18.6773542 34.56829559 -16.23266602 32.125 C-15.49560425 31.41827148 -14.75854248 30.71154297 -13.99914551 29.98339844 C-10.74227383 26.67960462 -8.56923316 24.42866737 -8.45420837 19.6484375 C-8.75555841 16.04665521 -8.75555841 16.04665521 -10.5 13.5 C-18.06284134 8.96229519 -23.02713624 12.8679106 -28.30200195 18.33323669 Z M-360.3125 166.1875 C-361.41242783 166.55566833 -361.41242783 166.55566833 -362.53457642 166.93127441 C-372.51504469 170.2884648 -382.19984317 174.07993727 -392 178 C-392 220.9 -392 263.8 -392 308 C-244.16 308 -96.32 308 56 308 C56 267.74 56 227.48 56 186 C48.07053906 182.03526953 40.42404371 178.38307831 32.1875 175.25 C31.08946045 174.83024902 29.9914209 174.41049805 28.86010742 173.97802734 C19.92191552 170.61566285 10.89830717 167.55871109 1.8125 164.625 C0.56170654 164.22055664 -0.68908691 163.81611328 -1.9777832 163.39941406 C-16.72291665 158.20575639 -16.72291665 158.20575639 -32 156 C-32.00586624 157.24614578 -32.01173248 158.49229156 -32.01777649 159.77619934 C-32.07492101 171.50416072 -32.1476391 183.23193521 -32.23571491 194.95970631 C-32.28049513 200.98948145 -32.31973435 207.01918781 -32.34643555 213.04907227 C-32.37239219 218.86524611 -32.41274023 224.68115638 -32.46318626 230.49716759 C-32.47990678 232.71915096 -32.49138864 234.94117998 -32.49761391 237.16321754 C-32.50719865 240.26900674 -32.53519041 243.3741137 -32.56762695 246.47973633 C-32.56619186 247.40402435 -32.56475677 248.32831238 -32.5632782 249.28060913 C-32.58208542 250.54891823 -32.58208542 250.54891823 -32.60127258 251.84284973 C-32.60588155 252.57751874 -32.61049051 253.31218775 -32.61523914 254.06911945 C-33.1220817 256.61265375 -33.98610786 257.39121904 -36 259 C-38.06191921 259.37604749 -38.06191921 259.37604749 -40.48374939 259.37752342 C-41.40748887 259.38534666 -42.33122835 259.39316991 -43.28295994 259.40123022 C-44.2993854 259.39453805 -45.31581087 259.38784589 -46.36303711 259.38095093 C-47.44154151 259.3856309 -48.52004591 259.39031087 -49.63123226 259.39513266 C-53.26339266 259.40714693 -56.89518022 259.39760015 -60.52734375 259.38818359 C-63.1238731 259.39224643 -65.72040072 259.39758668 -68.31692505 259.40411377 C-74.64825202 259.41747247 -80.97947246 259.4145639 -87.31080365 259.40587585 C-92.45516667 259.39910808 -97.59949978 259.39817864 -102.74386597 259.4014473 C-103.4752887 259.401907 -104.20671142 259.40236669 -104.96029848 259.40284032 C-106.44604469 259.40379947 -107.9317909 259.40477211 -109.41753709 259.4057581 C-123.35820048 259.41431825 -137.29880475 259.40446808 -151.23945844 259.388357 C-163.20817118 259.37495324 -175.17679665 259.37728116 -187.14550781 259.39111328 C-201.03536829 259.40715808 -214.92517691 259.41349422 -228.81504536 259.40427649 C-230.29540824 259.40332082 -231.77577113 259.4023777 -233.25613403 259.4014473 C-234.34876105 259.40075306 -234.34876105 259.40075306 -235.46346134 259.40004479 C-240.60324752 259.39745159 -245.74300088 259.40183298 -250.88278198 259.40888596 C-257.79710813 259.41816521 -264.71126623 259.41158425 -271.62557602 259.39420319 C-274.16893107 259.39022355 -276.71229995 259.39139743 -279.25564957 259.39799118 C-282.71627774 259.40613838 -286.1763693 259.39596754 -289.63696289 259.38095093 C-290.65338836 259.38764309 -291.66981382 259.39433526 -292.71704006 259.40123022 C-294.10264928 259.38949535 -294.10264928 259.38949535 -295.51625061 259.37752342 C-296.31545457 259.37703637 -297.11465853 259.37654931 -297.93808079 259.37604749 C-300.52084388 258.90500984 -301.40834147 258.04997151 -303 256 C-303.38476086 253.9910326 -303.38476086 253.9910326 -303.39872742 251.6530304 C-303.41126556 250.76542023 -303.42380371 249.87781006 -303.4367218 248.96330261 C-303.43528671 247.99226089 -303.43385162 247.02121918 -303.43237305 246.02075195 C-303.44766052 244.48390747 -303.44766052 244.48390747 -303.46325684 242.91601562 C-303.49349455 239.52338265 -303.50266937 236.13103152 -303.51171875 232.73828125 C-303.52855741 230.38843337 -303.54670654 228.03859453 -303.56611633 225.68876648 C-303.6137105 219.4992048 -303.64345902 213.3096798 -303.66955566 207.11999512 C-303.69931366 200.80583446 -303.7458603 194.49180037 -303.79101562 188.17773438 C-303.87715592 175.78522232 -303.94445351 163.39268429 -304 151 C-321.80035003 151 -343.58009602 160.56085113 -360.3125 166.1875 Z " fill="#000000" transform="translate(424,172)"/>
<path d="M0 0 C0.65421558 -0.00282738 1.30843117 -0.00565475 1.98247147 -0.00856781 C5.45267375 -0.02349279 8.92283526 -0.0327614 12.39306641 -0.03710938 C15.22262615 -0.04147349 18.05187745 -0.05529345 20.88134766 -0.078125 C36.2389599 -0.19956341 51.23365441 -0.224311 66.2890625 3.203125 C67.69333496 3.49340576 67.69333496 3.49340576 69.12597656 3.78955078 C71.3459618 4.26783297 73.53334683 4.80279551 75.7265625 5.390625 C76.50112793 5.5978418 77.27569336 5.80505859 78.07373047 6.01855469 C97.35951455 11.43770063 116.58589846 20.75399181 132.2890625 33.203125 C133.16175781 33.88503906 134.03445313 34.56695312 134.93359375 35.26953125 C141.59471631 40.53251714 141.59471631 40.53251714 144.1171875 42.96875 C148.1983744 46.89736916 151.36067705 47.86065732 156.92578125 48.73046875 C161.83664119 49.71264074 164.52282207 52.15991326 167.41796875 56.1015625 C170.2121995 61.18228217 169.91067156 66.47658638 169.8515625 72.140625 C169.87541016 73.18669922 169.89925781 74.23277344 169.92382812 75.31054688 C169.91109903 82.06121075 168.98034121 87.12019222 164.2890625 92.203125 C161.6015625 93.453125 161.6015625 93.453125 159.2890625 94.203125 C158.59406444 95.52191229 157.93164443 96.8580188 157.2890625 98.203125 C149.13782245 109.15423699 137.49334779 117.39242487 123.921875 119.921875 C107.63934086 121.6612555 92.64834732 119.48763063 79.51953125 108.98828125 C76.10551595 105.98414773 72.96455139 103.18527756 70.37890625 99.42578125 C68.44015335 96.93340358 68.44015335 96.93340358 65.3046875 96.60546875 C61.4152854 97.37629585 60.45598547 98.67067212 58.0390625 101.765625 C49.70168489 111.65576924 38.29306392 118.68098032 25.2890625 120.203125 C8.23979107 121.22823942 -5.98129921 118.22693556 -19.1484375 106.640625 C-21.65173128 104.32703717 -23.68543891 102.24019963 -25.62109375 99.42578125 C-27.55984665 96.93340358 -27.55984665 96.93340358 -30.6953125 96.60546875 C-34.5847146 97.37629585 -35.54401453 98.67067212 -37.9609375 101.765625 C-46.29720943 111.65445764 -57.70759555 118.68325386 -70.7109375 120.203125 C-87.41868525 121.19825731 -102.24792498 118.07241941 -115.1484375 106.703125 C-118.61610106 103.39181342 -121.87815618 100.0745928 -124.7109375 96.203125 C-124.7109375 95.543125 -124.7109375 94.883125 -124.7109375 94.203125 C-125.4328125 94.038125 -126.1546875 93.873125 -126.8984375 93.703125 C-131.05317623 91.48726434 -132.87722782 88.49743196 -134.7109375 84.203125 C-135.40980864 80.18045813 -135.41157094 76.27724652 -135.3359375 72.203125 C-135.35527344 71.1615625 -135.37460938 70.12 -135.39453125 69.046875 C-135.35163049 62.25139534 -134.30844386 57.3637555 -129.7109375 52.203125 C-126.11384636 49.31281629 -123.56853267 48.24530181 -118.8984375 48.015625 C-113.76859706 47.57508527 -111.16216365 44.30315932 -107.58984375 40.8671875 C-97.54134183 31.56857378 -85.83000168 24.45588581 -73.7109375 18.203125 C-73.09250977 17.88359863 -72.47408203 17.56407227 -71.83691406 17.23486328 C-49.38921243 5.82006976 -25.12960593 0.08486674 0 0 Z M-87.7109375 47.203125 C-87.7109375 47.533125 -87.7109375 47.863125 -87.7109375 48.203125 C-18.4109375 48.203125 50.8890625 48.203125 122.2890625 48.203125 C95.95620756 21.87027006 52.53118504 16.0834458 17.2890625 15.953125 C-21.15904504 16.14721463 -56.38262303 24.11199666 -87.7109375 47.203125 Z M-116.7109375 64.203125 C-118.87036569 67.44226729 -118.98326728 68.45172233 -118.9609375 72.203125 C-118.96609375 73.069375 -118.97125 73.935625 -118.9765625 74.828125 C-118.86508302 77.46892 -118.86508302 77.46892 -116.7109375 80.203125 C-114.68501251 80.65604656 -114.68501251 80.65604656 -112.30338383 80.58064842 C-111.37118521 80.58847166 -110.43898659 80.59629491 -109.47853953 80.60435522 C-108.44752837 80.59766305 -107.41651722 80.59097089 -106.35426331 80.58407593 C-105.26436267 80.5887559 -104.17446204 80.59343587 -103.05153412 80.59825766 C-99.37481091 80.61028802 -95.69845493 80.60071893 -92.02172852 80.59130859 C-89.39579042 80.59537074 -86.76985403 80.6007106 -84.1439209 80.60723877 C-77.73692474 80.62060624 -71.33003377 80.61768489 -64.92303342 80.60900085 C-59.71714772 80.60223593 -54.51129159 80.6013024 -49.30540276 80.6045723 C-48.56551845 80.605032 -47.82563415 80.60549169 -47.06332911 80.60596532 C-45.56043036 80.60692447 -44.05753162 80.60789711 -42.55463289 80.6088831 C-28.44849233 80.61744597 -14.34241017 80.60758913 -0.23627918 80.591482 C11.87514328 80.57808077 23.98647949 80.58040355 36.09790039 80.59423828 C50.15072761 80.61028307 64.20350356 80.61661899 78.25633866 80.60740149 C79.75412976 80.60644581 81.25192087 80.6055027 82.74971199 80.6045723 C83.48671732 80.60410947 84.22372265 80.60364664 84.98306147 80.60316979 C90.18395062 80.60057638 95.38480733 80.6049585 100.58569145 80.61201096 C107.58290198 80.62129034 114.57994645 80.61470908 121.57714081 80.59732819 C124.15113363 80.59334845 126.72514012 80.59452261 129.29912758 80.60111618 C132.80140809 80.60926304 136.30315832 80.59909288 139.80540466 80.58407593 C140.83418509 80.59076809 141.86296553 80.59746026 142.92292112 80.60435522 C143.85772749 80.59653197 144.79253385 80.58870873 145.75566769 80.58064842 C146.56452701 80.58016137 147.37338632 80.57967431 148.20675653 80.57917249 C150.81190528 80.10870385 151.70009276 79.28630403 153.2890625 77.203125 C153.72625207 74.79593636 153.72625207 74.79593636 153.6015625 72.203125 C153.59769531 71.336875 153.59382813 70.470625 153.58984375 69.578125 C153.4348842 66.93894563 153.4348842 66.93894563 151.2890625 64.203125 C149.25498206 63.75014959 149.25498206 63.75014959 146.86309814 63.82560158 C145.92679943 63.81777834 144.99050072 63.80995509 144.02582932 63.80189478 C142.99024509 63.80858695 141.95466087 63.81527911 140.88769531 63.82217407 C139.79300556 63.8174941 138.69831581 63.81281413 137.57045364 63.80799234 C133.87757746 63.79596193 130.18506688 63.80553107 126.4921875 63.81494141 C123.85476588 63.81087927 121.21737003 63.80564857 118.57995605 63.79901123 C112.14522156 63.78564409 105.71059182 63.78856483 99.27585316 63.79724915 C94.04802907 63.80401361 88.82023443 63.8049478 83.59240723 63.8016777 C82.84945884 63.801218 82.10651045 63.80075831 81.34104848 63.80028468 C79.831947 63.79932554 78.32284553 63.7983529 76.81374407 63.7973669 C62.64992984 63.78880428 48.48617379 63.79866079 34.3223691 63.814768 C22.15889401 63.82817198 9.99550479 63.82584414 -2.16796875 63.81201172 C-16.27974996 63.79597127 -30.39148014 63.78962833 -44.5032692 63.79884851 C-46.0069402 63.7998042 -47.51061121 63.80074731 -49.01428223 63.8016777 C-50.12414745 63.80237194 -50.12414745 63.80237194 -51.2564342 63.80308021 C-56.48033542 63.80567472 -61.70420437 63.80128921 -66.92810059 63.79423904 C-73.29093008 63.78584086 -79.65364849 63.78806856 -86.01646519 63.80408128 C-89.26532759 63.81198686 -92.51396537 63.81341271 -95.76283264 63.80513382 C-99.27859989 63.79699771 -102.79383729 63.80714376 -106.30957031 63.82217407 C-107.86294664 63.81213582 -107.86294664 63.81213582 -109.44770432 63.80189478 C-110.38400303 63.80971803 -111.32030174 63.81754127 -112.28497314 63.82560158 C-113.09724995 63.82608863 -113.90952675 63.82657569 -114.746418 63.82707751 C-115.39470943 63.95117318 -116.04300087 64.07526885 -116.7109375 64.203125 Z M-99.7109375 96.203125 C-92.27003645 102.15584584 -85.30493305 103.80799875 -75.81640625 103.5625 C-69.00157384 102.77386531 -62.60789595 101.10008345 -57.7109375 96.203125 C-71.5709375 96.203125 -85.4309375 96.203125 -99.7109375 96.203125 Z M-3.7109375 96.203125 C3.72996355 102.15584584 10.69506695 103.80799875 20.18359375 103.5625 C26.99842616 102.77386531 33.39210405 101.10008345 38.2890625 96.203125 C24.4290625 96.203125 10.5690625 96.203125 -3.7109375 96.203125 Z M92.2890625 96.203125 C99.72996355 102.15584584 106.69506695 103.80799875 116.18359375 103.5625 C122.99842616 102.77386531 129.39210405 101.10008345 134.2890625 96.203125 C120.4290625 96.203125 106.5690625 96.203125 92.2890625 96.203125 Z " fill="#000000" transform="translate(238.7109375,15.796875)"/>
<path d="M0 0 C3.18492394 1.36015689 4.82581895 2.7129384 6.8125 5.53515625 C7.32425781 6.25316406 7.83601563 6.97117188 8.36328125 7.7109375 C8.90339844 8.48695313 9.44351562 9.26296875 10 10.0625 C10.57105469 10.86816406 11.14210938 11.67382812 11.73046875 12.50390625 C13.49510366 14.99698869 15.2481825 17.49790012 17 20 C18.0200888 21.44713969 19.04088627 22.89378019 20.0625 24.33984375 C21.52730169 26.41360794 22.99142711 28.48781232 24.45214844 30.56445312 C30.22462522 38.76482214 36.11160071 46.88266671 42 55 C40.26450191 58.83342952 38.39620593 60.40252938 34.875 62.75 C33.96492188 63.36359375 33.05484375 63.9771875 32.1171875 64.609375 C31.41851562 65.06828125 30.71984375 65.5271875 30 66 C26.81507606 64.63984311 25.17418105 63.2870616 23.1875 60.46484375 C22.67574219 59.74683594 22.16398437 59.02882812 21.63671875 58.2890625 C21.09660156 57.51304687 20.55648437 56.73703125 20 55.9375 C19.42894531 55.13183594 18.85789062 54.32617188 18.26953125 53.49609375 C16.50489634 51.00301131 14.7518175 48.50209988 13 46 C11.9799112 44.55286031 10.95911373 43.10621981 9.9375 41.66015625 C8.47269831 39.58639206 7.00857289 37.51218768 5.54785156 35.43554688 C-0.22462522 27.23517786 -6.11160071 19.11733329 -12 11 C-10.26450191 7.16657048 -8.39620593 5.59747062 -4.875 3.25 C-3.50988281 2.32960938 -3.50988281 2.32960938 -2.1171875 1.390625 C-1.06917969 0.70226562 -1.06917969 0.70226562 0 0 Z " fill="#000000" transform="translate(421,123)"/>
<path d="M0 0 C3.83663072 1.34929464 6.65172569 3.07751025 9.8125 5.625 C10.60269531 6.25664062 11.39289063 6.88828125 12.20703125 7.5390625 C12.79871094 8.02117187 13.39039063 8.50328125 14 9 C12.44466214 13.78425563 9.73718217 17.21564977 6.6875 21.125 C2.0912469 27.12473184 -2.27286373 33.23519017 -6.5 39.5 C-10.7715253 45.78963457 -15.08245511 52.0440721 -19.5625 58.1875 C-20.05105469 58.87714844 -20.53960937 59.56679687 -21.04296875 60.27734375 C-22.44140625 62.16796875 -22.44140625 62.16796875 -25 65 C-29.81502319 65 -30.99268419 63.86271681 -34.75 61 C-35.73484375 60.2575 -36.7196875 59.515 -37.734375 58.75 C-38.48203125 58.1725 -39.2296875 57.595 -40 57 C-38.44466214 52.21574437 -35.73718217 48.78435023 -32.6875 44.875 C-28.09132418 38.87536903 -23.72549202 32.76584658 -19.5 26.5 C-4.91133858 4.91133858 -4.91133858 4.91133858 0 0 Z " fill="#000000" transform="translate(89,123)"/>
<path d="M0 0 C1.96131448 7.7525527 3.91753349 15.50636564 5.86727142 23.26183701 C6.77278444 26.86302008 7.68004222 30.46374466 8.59130859 34.06347656 C9.47076202 37.53781023 10.34560438 41.01327522 11.2172699 44.48957062 C11.55053451 45.81524177 11.88545488 47.14049781 12.22206116 48.4653244 C12.6934456 50.32180262 13.15838684 52.17991325 13.62304688 54.03808594 C13.88952026 55.09509705 14.15599365 56.15210815 14.43054199 57.2411499 C15 60 15 60 15 64 C13.10787298 64.53414112 11.21108364 65.05178329 9.3125 65.5625 C8.25675781 65.85253906 7.20101563 66.14257812 6.11328125 66.44140625 C2.95254928 67.00851374 1.07846829 66.71427767 -2 66 C-3.96131448 58.2474473 -5.91753349 50.49363436 -7.86727142 42.73816299 C-8.77278444 39.13697992 -9.68004222 35.53625534 -10.59130859 31.93652344 C-11.47076202 28.46218977 -12.34560438 24.98672478 -13.2172699 21.51042938 C-13.55053451 20.18475823 -13.88545488 18.85950219 -14.22206116 17.5346756 C-14.6934456 15.67819738 -15.15838684 13.82008675 -15.62304688 11.96191406 C-15.88952026 10.90490295 -16.15599365 9.84789185 -16.43054199 8.7588501 C-17 6 -17 6 -17 2 C-15.10787298 1.46585888 -13.21108364 0.94821671 -11.3125 0.4375 C-10.25675781 0.14746094 -9.20101563 -0.14257812 -8.11328125 -0.44140625 C-4.95254928 -1.00851374 -3.07846829 -0.71427767 0 0 Z " fill="#000000" transform="translate(321,151)"/>
<path d="M0 0 C5.51745357 0.48398716 10.6555011 1.5684378 16 3 C15.31621135 10.20102851 13.62065067 17.03013614 11.83984375 24.03125 C11.53051407 25.26290894 11.22118439 26.49456787 10.90248108 27.7635498 C10.08553064 31.0128387 9.26451904 34.26104427 8.44146729 37.50878906 C7.60009459 40.83311301 6.76415389 44.15880204 5.92773438 47.484375 C4.29012275 53.99084351 2.64713724 60.4959368 1 67 C-3.30988652 67.99999591 -6.02104409 67.7414714 -10.3125 66.5625 C-11.38113281 66.27503906 -12.44976562 65.98757812 -13.55078125 65.69140625 C-14.35902344 65.46324219 -15.16726562 65.23507813 -16 65 C-15.31332853 57.81580976 -13.63885092 50.99280182 -11.875 44.00390625 C-11.56804199 42.77461899 -11.26108398 41.54533173 -10.94482422 40.27879333 C-10.29816402 37.69380657 -9.64970154 35.10935826 -8.99804688 32.52563477 C-8.16179529 29.20920685 -7.33298536 25.89097238 -6.50643921 22.57211399 C-5.7162213 19.40264243 -4.92043714 16.2345713 -4.125 13.06640625 C-3.82706543 11.87173233 -3.52913086 10.67705841 -3.22216797 9.44618225 C-2.94518066 8.35091721 -2.66819336 7.25565216 -2.3828125 6.12719727 C-2.01760498 4.67447166 -2.01760498 4.67447166 -1.64501953 3.19239807 C-1 1 -1 1 0 0 Z " fill="#000000" transform="translate(184,150)"/>
<path d="M0 0 C5.28 0 10.56 0 16 0 C16 5.28 16 10.56 16 16 C10.72 16 5.44 16 0 16 C0 10.72 0 5.44 0 0 Z " fill="#000000" transform="translate(152,352)"/>
</svg>
