<?xml version="1.0" encoding="UTF-8"?>
<svg version="1.1" xmlns="http://www.w3.org/2000/svg" width="512" height="512">
<path d="M0 0 C6.4002066 5.3335055 11.44910667 13.40030073 12.40698242 21.79956055 C12.89297385 30.41189927 13.05352632 38.43910353 8.1875 45.875 C7.775 46.55691406 7.3625 47.23882812 6.9375 47.94140625 C0.14374129 58.11274386 -11.66695073 63.08773235 -22.26422119 68.40823364 C-26.19738475 70.38358944 -30.11772627 72.38410866 -34.0390625 74.3828125 C-34.81003265 74.77511551 -35.58100281 75.16741852 -36.37533569 75.5716095 C-42.28906719 78.58796216 -48.13268519 81.71620294 -53.9375 84.9375 C-62.96808536 89.93877105 -72.12495233 94.67099517 -81.3125 99.375 C-90.5414059 104.1002547 -99.73849283 108.85622941 -108.8125 113.875 C-118.01794469 118.96160971 -127.33617399 123.81376484 -136.6875 128.625 C-137.37247559 128.97771973 -138.05745117 129.33043945 -138.76318359 129.69384766 C-142.7638232 131.75239183 -146.76939959 133.80095541 -150.77999878 135.84002686 C-152.16783746 136.54673037 -153.55461354 137.25552356 -154.94046021 137.96612549 C-157.0606485 139.05275845 -159.18422577 140.132503 -161.30859375 141.2109375 C-161.94082855 141.53656677 -162.57306335 141.86219604 -163.22445679 142.19769287 C-178.21849024 149.76660066 -194.30492351 152.18343981 -210.97143555 152.14624023 C-212.21548157 152.15146698 -213.45952759 152.15669373 -214.74127197 152.16207886 C-217.41813956 152.17224984 -220.09475162 152.17902916 -222.77161217 152.17996025 C-227.01389436 152.18192372 -231.25601822 152.20009689 -235.49824524 152.22071838 C-246.02682122 152.26958552 -256.55543932 152.30078076 -267.08410645 152.32202148 C-275.28784092 152.33858929 -283.49143655 152.36149466 -291.69507819 152.40504223 C-295.90309093 152.42667956 -300.11083886 152.43488984 -304.31890333 152.43264949 C-307.55990836 152.43472146 -310.80079998 152.45610645 -314.04174805 152.47436523 C-315.76655144 152.46749947 -315.76655144 152.46749947 -317.52619934 152.460495 C-335.74706266 152.62320705 -346.30365873 161.11283727 -358.96484375 173.21484375 C-370.70420721 184.4256917 -370.70420721 184.4256917 -376.625 185.6875 C-380.77661356 184.62924556 -382.35233705 183.37886844 -384.8125 179.875 C-385.5625 176.5625 -385.5625 176.5625 -384.8125 172.875 C-381.47810468 167.78301679 -376.7929955 163.8214933 -372.171875 159.92578125 C-370.31858456 158.31489138 -368.53761834 156.6776276 -366.765625 154.98046875 C-355.17193314 143.90373699 -342.25255882 134.80154397 -325.53544617 134.73023987 C-324.49151199 134.72334137 -323.44757782 134.71644287 -322.37200928 134.70933533 C-321.23692932 134.70672195 -320.10184937 134.70410858 -318.93237305 134.70141602 C-317.72839371 134.694729 -316.52441437 134.68804199 -315.28395081 134.68115234 C-312.66868946 134.66710611 -310.05348306 134.65477643 -307.43820763 134.64520454 C-303.28736149 134.62967676 -299.1365899 134.60572195 -294.98579407 134.58030701 C-283.18320457 134.50932306 -271.38057113 134.44963025 -259.57788086 134.39819336 C-253.05610941 134.36969633 -246.53441103 134.334206 -240.01271659 134.29153961 C-236.57048909 134.26936324 -233.12832805 134.25076068 -229.68604088 134.24109077 C-193.7296632 134.12647115 -170.11866663 126.08202686 -138.73657227 108.72851562 C-130.34646925 104.10991992 -121.83710456 99.73812086 -113.3125 95.375 C-104.08344783 90.65009964 -94.88622729 85.89421124 -85.8125 80.875 C-76.73874203 75.85577178 -67.54124924 71.10053934 -58.3125 66.375 C-46.13369052 60.13769688 -34.02743511 53.7923447 -22.07617188 47.12573242 C-20.49748167 46.25346863 -18.90938353 45.39811002 -17.31445312 44.5559082 C-16.50943359 44.12624756 -15.70441406 43.69658691 -14.875 43.25390625 C-13.79412109 42.68651733 -13.79412109 42.68651733 -12.69140625 42.10766602 C-8.88817946 39.61253971 -7.49964236 36.26798527 -6.25390625 31.9296875 C-5.26944902 26.75367526 -6.11305846 22.40309549 -8.8125 17.875 C-12.74122647 13.55018939 -16.79177399 11.72443247 -22.57421875 11.359375 C-30.55422728 11.44846391 -36.83031697 15.37974611 -43.625 19.125 C-45.01147649 19.86729169 -46.39902493 20.60758436 -47.78759766 21.34594727 C-51.81155673 23.49404735 -55.81352075 25.68084958 -59.8125 27.875 C-61.73037265 28.92074918 -63.64832931 29.96634432 -65.56640625 31.01171875 C-68.12151849 32.407229 -70.67488803 33.80553719 -73.22363281 35.21264648 C-83.06090249 40.62168905 -93.0614177 45.71583229 -103.05615234 50.82592773 C-103.72836319 51.17000671 -104.40057404 51.51408569 -105.09315491 51.86859131 C-106.41956723 52.54747306 -107.74641459 53.22550556 -109.07371521 53.90264893 C-112.25328328 55.531631 -115.40952793 57.19038633 -118.53393555 58.9230957 C-119.68289307 59.55948975 -120.83185059 60.19588379 -122.015625 60.8515625 C-123.02399414 61.42084473 -124.03236328 61.99012695 -125.07128906 62.57666016 C-129.01129579 64.44279444 -131.54135102 64.60028945 -135.8125 63.875 C-136.4725 63.215 -137.1325 62.555 -137.8125 61.875 C-138.10382813 62.9371875 -138.39515625 63.999375 -138.6953125 65.09375 C-142.34833103 77.89823848 -146.84524299 86.32198397 -158.83157349 92.99987793 C-168.92325636 97.42223609 -180.01500863 96.45211666 -190.8046875 96.40625 C-193.04143441 96.40894786 -195.27818018 96.41283273 -197.5149231 96.41784668 C-202.18324035 96.42372051 -206.85124994 96.4152421 -211.51953125 96.39648438 C-217.50176193 96.37361675 -223.48327779 96.38688102 -229.46548271 96.41077423 C-234.07572836 96.42522158 -238.68580411 96.4206324 -243.29605484 96.41026306 C-245.50246389 96.40759697 -247.70888841 96.41086139 -249.91527939 96.42018127 C-252.99325316 96.43033781 -256.07006226 96.41486112 -259.14794922 96.39257812 C-260.5116993 96.40472351 -260.5116993 96.40472351 -261.90299988 96.41711426 C-266.06707602 96.36125376 -268.26186164 96.21523611 -271.87722778 93.98132324 C-274.09141786 91.57142969 -274.46895062 90.6024802 -274.375 87.375 C-274.37628906 86.6221875 -274.37757813 85.869375 -274.37890625 85.09375 C-273.55848932 81.87997886 -272.49062274 80.86388759 -269.8125 78.875 C-266.70364539 78.27724531 -263.63088876 78.34218002 -260.47338867 78.37670898 C-259.5281987 78.37119019 -258.58300873 78.36567139 -257.60917664 78.35998535 C-255.55758428 78.35066239 -253.50593405 78.35056261 -251.45433617 78.35857964 C-248.20472164 78.37119369 -244.95595854 78.35993321 -241.70637512 78.34254456 C-235.97646087 78.31580965 -230.24675454 78.31024992 -224.51678467 78.31164551 C-215.35597791 78.31387136 -206.19542931 78.29971692 -197.03472328 78.25605965 C-193.83788599 78.24623184 -190.64145473 78.25493488 -187.44462585 78.26475525 C-185.47634619 78.25860891 -183.50806872 78.25169646 -181.53979492 78.24389648 C-180.65487366 78.25161575 -179.76995239 78.25933502 -178.85821533 78.26728821 C-172.03138634 78.21160167 -167.29549393 77.02692807 -162 72.4375 C-158.10273289 67.87212995 -157.29269511 64.40751265 -157.44140625 58.4765625 C-158.05274119 54.1907828 -159.67893629 50.86494204 -162.8125 47.875 C-168.68761206 44.05470246 -173.7466075 43.30041432 -180.64648438 43.37670898 C-182.07272125 43.36843079 -182.07272125 43.36843079 -183.527771 43.35998535 C-185.58145591 43.35070011 -187.63519842 43.35053128 -189.68888855 43.35857964 C-192.953892 43.37127906 -196.2180584 43.35985235 -199.48303223 43.34254456 C-205.25053879 43.31587502 -211.01783884 43.31024688 -216.78540039 43.31164551 C-225.98630982 43.31387456 -235.18696119 43.29937551 -244.38777161 43.25605965 C-247.57811447 43.24633199 -250.76804061 43.25488462 -253.95837402 43.26475525 C-267.91670218 43.25015759 -280.39323009 41.88294108 -293.8125 37.8125 C-313.51859586 31.99685309 -334.50325718 32.33011397 -352.93359375 42.0859375 C-360.73566601 46.93444373 -366.66011844 53.70931572 -372.6796875 60.546875 C-375.13369412 63.2256075 -377.74307498 65.55840529 -380.515625 67.8984375 C-383.51861655 70.48264452 -386.41113307 73.17780334 -389.3125 75.875 C-393.37018254 79.6392313 -397.4596815 83.34688045 -401.65234375 86.9609375 C-403.44167222 88.54641842 -405.1958766 90.1560306 -406.94140625 91.7890625 C-407.50666016 92.31693359 -408.07191406 92.84480469 -408.65429688 93.38867188 C-409.76702759 94.43067282 -410.87662926 95.47602972 -411.98242188 96.52539062 C-421.55707637 105.48613386 -421.55707637 105.48613386 -427.4375 106.5 C-431.80904771 105.69045413 -433.26751876 104.49967025 -435.8125 100.875 C-436.44857782 96.91718245 -436.38446884 94.82828139 -434.3125 91.375 C-431.7282102 88.7907102 -429.05450937 86.39330969 -426.27734375 84.01953125 C-423.27356891 81.40610433 -420.3555184 78.70837601 -417.4375 76 C-411.94125764 70.90673113 -406.3940583 65.87476721 -400.8125 60.875 C-398.29322927 58.60531647 -395.77471317 56.33481158 -393.2578125 54.0625 C-391.6598301 52.63299498 -390.05081367 51.21570429 -388.4296875 49.8125 C-384.78344283 46.64830123 -381.37958614 43.49436605 -378.25 39.8125 C-365.55768507 25.0813743 -347.91175328 18.07955243 -328.8125 15.875 C-312.23224606 14.86983809 -296.96363901 17.3502377 -281.13842773 22.16088867 C-272.7843795 24.65132618 -264.52205713 25.02242897 -255.84570312 25.03271484 C-254.89324203 25.03779556 -253.94078094 25.04287628 -252.9594574 25.04811096 C-250.90685419 25.05874782 -248.85423987 25.06739374 -246.80162048 25.07423019 C-243.54708986 25.08610779 -240.29268671 25.10558045 -237.03820801 25.12734985 C-227.79032651 25.18868556 -218.542462 25.24302267 -209.29443359 25.27636719 C-203.62348571 25.29735725 -197.95277764 25.33268596 -192.28196716 25.37712479 C-190.12913337 25.39123943 -187.97625723 25.39999692 -185.82337952 25.40317917 C-182.80843098 25.40810988 -179.79411579 25.43132092 -176.77929688 25.45849609 C-175.90007065 25.45548996 -175.02084442 25.45248383 -174.11497498 25.4493866 C-163.50949015 25.59072634 -155.54584776 29.11570948 -148.0859375 36.609375 C-144.34591327 40.77314582 -140.8125 45.06520966 -140.8125 50.875 C-139.6821936 50.15231934 -139.6821936 50.15231934 -138.52905273 49.41503906 C-130.55020693 44.39945348 -122.40008183 39.94333632 -113.9911499 35.69467163 C-110.32496297 33.84148715 -106.66827622 31.96975198 -103.01171875 30.09765625 C-101.9312326 29.54486748 -101.9312326 29.54486748 -100.82891846 28.98091125 C-95.22612046 26.10636098 -89.69259413 23.12009029 -84.1875 20.0625 C-74.5290409 14.72290322 -64.74446471 9.63072728 -54.93609619 4.57339478 C-53.15533191 3.65460716 -51.37565384 2.73371102 -49.59710693 1.81063843 C-47.08752025 0.50926097 -44.57373916 -0.78362401 -42.05859375 -2.07421875 C-41.301194 -2.4684201 -40.54379425 -2.86262146 -39.76344299 -3.26876831 C-26.62215747 -9.96774303 -12.01238663 -8.48287069 0 0 Z " fill="#000000" transform="translate(467.8125,313.125)"/>
<path d="M0 0 C6.69072618 6.23333155 12.08307091 14.23211734 12.95492554 23.54364014 C12.96254913 24.53051819 12.97017273 25.51739624 12.97802734 26.53417969 C12.99078705 27.6626532 13.00354675 28.79112671 13.01669312 29.95379639 C13.02003159 31.7633078 13.02003159 31.7633078 13.0234375 33.609375 C13.0300943 34.86453918 13.0367511 36.11970337 13.04360962 37.41290283 C13.0537222 40.06577768 13.05929404 42.71824253 13.05810547 45.37109375 C13.05790283 48.74450389 13.08516137 52.11706641 13.11964989 55.49027634 C13.14745175 58.73827591 13.14607315 61.98627278 13.1484375 65.234375 C13.16280853 66.43261902 13.17717957 67.63086304 13.19198608 68.86541748 C13.12573857 81.15059039 9.19207052 89.84764234 0.79296875 98.6796875 C-16.93004906 115.58067294 -42.94093289 122.5656606 -66.375 126.9375 C-67.17486328 127.08848145 -67.97472656 127.23946289 -68.79882812 127.39501953 C-85.2250808 130.25638758 -101.73124176 131.0681815 -118.375 131 C-119.30727417 130.99817719 -120.23954834 130.99635437 -121.20007324 130.99447632 C-160.412347 130.86608837 -210.44378121 126.54500406 -239.91796875 97.359375 C-246.31105264 90.22581973 -250.53000404 83.46347347 -250.60302734 73.64135742 C-250.61578705 72.46961472 -250.62854675 71.29787201 -250.64169312 70.09062195 C-250.64391876 68.83739639 -250.64614441 67.58417084 -250.6484375 66.29296875 C-250.6550943 64.9910408 -250.6617511 63.68911285 -250.66860962 62.34773254 C-250.68055048 59.59661544 -250.68429382 56.84562359 -250.68310547 54.09448242 C-250.68290259 50.59095115 -250.7101849 47.08823391 -250.74464989 43.58489513 C-250.77240669 40.2167427 -250.77107175 36.8487338 -250.7734375 33.48046875 C-250.79499405 31.60973946 -250.79499405 31.60973946 -250.81698608 29.70121765 C-250.75368812 17.55033921 -246.70518352 9.42288408 -238.41796875 0.69140625 C-186.44714306 -48.77247794 -53.1368765 -44.87114015 0 0 Z M-226.40234375 13.765625 C-231.36620061 19.06605412 -231.36620061 19.06605412 -233.46484375 25.80078125 C-232.80503614 32.5548119 -230.65775305 36.54874405 -225.73046875 41.171875 C-216.90300909 48.32615603 -206.20199464 53.31593936 -195.5 56.9375 C-194.85111816 57.15921875 -194.20223633 57.3809375 -193.53369141 57.609375 C-192.12884878 58.0583901 -190.70866297 58.46129806 -189.27903748 58.82374573 C-186.90145967 59.51601508 -184.78884842 60.31837313 -182.5165863 61.27085876 C-177.81367196 63.02639096 -173.36247752 64.30909839 -168.3125 63.6875 C-160.88519347 60.2628122 -155.40744248 53.36018062 -149.9296875 47.48828125 C-148.25626548 45.77632534 -146.57796689 44.06912389 -144.89505005 42.36650085 C-140.49457131 37.88797256 -136.16454603 33.34696258 -131.8458252 28.78973389 C-127.42234617 24.14758952 -122.93249202 19.57061158 -118.44921875 14.98632812 C-111.93319901 8.30364593 -105.44104212 1.59936393 -99.00341797 -5.15893555 C-98.32104065 -5.87228058 -97.63866333 -6.58562561 -96.93560791 -7.32058716 C-96.01541367 -8.29053368 -96.01541367 -8.29053368 -95.07662964 -9.28007507 C-94.27102254 -10.1271605 -94.27102254 -10.1271605 -93.44914055 -10.99135876 C-92.20380155 -12.14837515 -92.20380155 -12.14837515 -92.3125 -13.3125 C-132.23268366 -17.37710052 -195.5747629 -16.88909091 -226.40234375 13.765625 Z M-77.87841797 -2.44360352 C-78.61081192 -1.71369202 -79.34320587 -0.98378052 -80.09779358 -0.23175049 C-82.51472227 2.18425995 -84.90959665 4.62094846 -87.3046875 7.05859375 C-88.97639149 8.73895033 -90.64935202 10.4180577 -92.32351685 12.09596252 C-96.72644973 16.51613315 -101.11063716 20.95446837 -105.49163818 25.3963623 C-109.08114594 29.02951076 -112.68369335 32.64957161 -116.28701591 36.2690115 C-120.56804586 40.56960032 -124.84352817 44.87568156 -129.1171875 49.18359375 C-130.34924738 50.42529233 -130.34924738 50.42529233 -131.60619736 51.69207573 C-133.91477223 54.02152066 -136.21957807 56.35461979 -138.52294922 58.68920898 C-139.5607679 59.73577415 -139.5607679 59.73577415 -140.61955261 60.80348206 C-141.5531385 61.75213638 -141.5531385 61.75213638 -142.50558472 62.71995544 C-143.0508676 63.27210944 -143.59615047 63.82426344 -144.15795708 64.39314938 C-145.42344234 65.52280193 -145.42344234 65.52280193 -145.3125 66.6875 C-137.04892724 67.72846566 -128.8217503 67.93015688 -120.5 67.9375 C-119.45962082 67.93851212 -119.45962082 67.93851212 -118.39822388 67.93954468 C-84.81791242 67.88830919 -38.46377104 65.0615002 -12.3125 40.6875 C-8.82302021 37.16658346 -5.42557776 33.63451226 -4.3125 28.6875 C-4.58510874 21.19075976 -7.86639338 16.89952805 -13.0625 11.8125 C-27.36480306 -0.41328597 -48.77755231 -6.67078822 -67.00076294 -9.76963806 C-72.06543943 -9.07053172 -74.40715504 -6.01700552 -77.87841797 -2.44360352 Z M-233.3125 56.6875 C-233.42117663 59.70931414 -233.50012754 62.72716327 -233.5625 65.75 C-233.59601563 66.59755859 -233.62953125 67.44511719 -233.6640625 68.31835938 C-233.77931661 75.78106304 -231.68817887 80.66145577 -226.4375 86.125 C-196.64844705 114.39290982 -142.17436383 114.62324949 -104.3125 113.6875 C-73.20857828 112.50157862 -31.63910135 107.33045333 -8.79296875 83.8046875 C-4.48865186 77.64917363 -3.89512756 72.56465887 -4.125 65.25 C-4.13853516 64.42306641 -4.15207031 63.59613281 -4.16601562 62.74414062 C-4.20103008 60.7249736 -4.25482438 58.70614682 -4.3125 56.6875 C-5.1375 57.18378906 -5.9625 57.68007812 -6.8125 58.19140625 C-25.14690015 69.05204799 -44.34829532 76.02704933 -65.3125 79.9375 C-66.1163916 80.08856201 -66.9202832 80.23962402 -67.74853516 80.39526367 C-84.55586447 83.30365669 -101.41187123 84.06608555 -118.4375 84 C-119.41907074 83.99817719 -120.40064148 83.99635437 -121.41195679 83.99447632 C-136.89522142 83.94623108 -152.02554612 83.34824507 -167.3125 80.6875 C-168.3245752 80.51589355 -169.33665039 80.34428711 -170.37939453 80.16748047 C-192.64302811 76.27421496 -214.54097758 69.63238778 -233.3125 56.6875 Z " fill="#000000" transform="translate(447.3125,179.3125)"/>
<path d="M0 0 C17.97478453 15.09370189 33.38008331 31.93755849 36.43554688 56.04516602 C37.61593861 75.66675971 34.03730945 93.59238221 21.15429688 109.13110352 C15.19024843 115.77288474 15.19024843 115.77288474 9.81054688 116.60766602 C6.43554688 116.04516602 6.43554688 116.04516602 4.06054688 114.48266602 C1.90016437 111.24209225 1.50367242 108.92832198 1.43554688 105.04516602 C2.57308564 102.34351146 4.14439832 100.39153241 6.02148438 98.15844727 C14.73768107 87.55818185 18.96444805 75.33959068 18.31054688 61.60766602 C16.59696573 45.15339255 8.88520009 34.18895443 -2.37695312 22.73266602 C-3.12348145 21.96744629 -3.87000977 21.20222656 -4.63916016 20.41381836 C-15.22748289 9.94459422 -28.11572051 3.37252112 -43.12695312 2.79516602 C-66.56711126 3.11240124 -79.85937342 18.17590943 -95.22851562 33.61157227 C-96.51437722 34.89930352 -97.80046318 36.18681079 -99.08676147 37.47410583 C-102.43930422 40.83043065 -105.78883061 44.18974949 -109.13769531 47.54974365 C-112.56846313 50.99081928 -116.00213383 54.4289957 -119.43554688 57.86743164 C-126.14799461 64.59054048 -132.85725302 71.31682222 -139.56445312 78.04516602 C-138.47543701 78.51204834 -137.3864209 78.97893066 -136.2644043 79.45996094 C-134.81616244 80.08583136 -133.36800615 80.71189982 -131.91992188 81.33813477 C-131.2044519 81.64424683 -130.48898193 81.95035889 -129.75183105 82.26574707 C-113.66896679 89.24128081 -100.10172837 100.98870669 -87.56445312 113.04516602 C-87.01772949 113.56997559 -86.47100586 114.09478516 -85.90771484 114.63549805 C-84.24293332 116.2425915 -82.58892214 117.85986969 -80.93945312 119.48266602 C-80.43019287 119.97879395 -79.92093262 120.47492188 -79.39624023 120.98608398 C-75.87950707 124.49503014 -73.86004179 127.06049927 -73.12695312 131.98266602 C-73.56445312 135.04516602 -73.56445312 135.04516602 -75.56445312 137.92016602 C-78.62003015 140.08453308 -80.52471541 140.83179641 -84.27197266 140.71899414 C-89.49064522 139.18507122 -92.94675886 134.24832442 -96.50195312 130.35766602 C-98.35314292 128.40838718 -100.22394181 126.47868851 -102.09960938 124.55297852 C-102.56355103 124.07473129 -103.02749268 123.59648407 -103.50549316 123.10374451 C-116.84073141 109.48592286 -134.44625804 97.28683594 -153.56445312 94.04516602 C-155.80195059 94.14295292 -155.80195059 94.14295292 -157.56445312 95.04516602 C-158.22445312 96.03516602 -158.88445312 97.02516602 -159.56445312 98.04516602 C-160.22445312 98.04516602 -160.88445312 98.04516602 -161.56445312 98.04516602 C-161.56445312 98.70516602 -161.56445312 99.36516602 -161.56445312 100.04516602 C-162.22445312 100.04516602 -162.88445312 100.04516602 -163.56445312 100.04516602 C-164.05945313 101.53016602 -164.05945313 101.53016602 -164.56445312 103.04516602 C-165.22445312 103.04516602 -165.88445312 103.04516602 -166.56445312 103.04516602 C-167.05945313 104.53016602 -167.05945313 104.53016602 -167.56445312 106.04516602 C-168.22445312 106.04516602 -168.88445312 106.04516602 -169.56445312 106.04516602 C-170.05945313 107.53016602 -170.05945313 107.53016602 -170.56445312 109.04516602 C-171.22445312 109.04516602 -171.88445312 109.04516602 -172.56445312 109.04516602 C-173.05945313 110.53016602 -173.05945313 110.53016602 -173.56445312 112.04516602 C-174.22445312 112.04516602 -174.88445312 112.04516602 -175.56445312 112.04516602 C-175.81839844 112.6368457 -176.07234375 113.22852539 -176.33398438 113.83813477 C-177.69998525 116.28826332 -179.09381523 117.58112421 -181.25195312 119.35766602 C-186.20272888 123.55369556 -190.85613989 127.8751465 -194.87695312 132.98266602 C-195.43382812 133.66329102 -195.99070313 134.34391602 -196.56445312 135.04516602 C-197.22445312 135.04516602 -197.88445312 135.04516602 -198.56445312 135.04516602 C-198.56445312 135.70516602 -198.56445312 136.36516602 -198.56445312 137.04516602 C-199.55445313 137.84954102 -200.54445312 138.65391602 -201.56445312 139.48266602 C-213.23484368 149.16459246 -219.23087698 162.88078906 -220.85351562 177.68188477 C-221.32287004 190.93047977 -216.14500584 204.17256457 -207.43945312 214.04516602 C-205.8262339 215.72323828 -204.20033611 217.38918001 -202.56445312 219.04516602 C-201.62112649 220.05770321 -200.67979867 221.07210542 -199.74023438 222.08813477 C-188.37022658 234.17897515 -175.60558547 241.3931094 -158.81445312 242.23266602 C-146.40533668 241.94739897 -134.2941985 237.90619989 -125.25195312 229.17016602 C-121.91961993 226.00945513 -119.22919891 224.87248897 -114.61914062 224.72094727 C-112.56445312 225.04516602 -112.56445312 225.04516602 -109.50195312 226.98266602 C-107.55304516 230.06319796 -106.63154619 232.25324364 -106.90820312 235.93969727 C-109.43064254 244.03252372 -119.75487702 249.42063571 -126.73339844 253.15649414 C-144.73250518 261.89206061 -164.82194098 262.43826867 -183.56445312 256.04516602 C-202.83285754 248.36507086 -223.99299808 229.0928439 -232.56445312 210.04516602 C-239.88568321 191.75369706 -241.71271331 171.71991268 -234.00585938 153.18969727 C-233.38920559 151.82462052 -232.76292897 150.46384858 -232.12695312 149.10766602 C-231.85818359 148.51179687 -231.58941406 147.91592773 -231.3125 147.30200195 C-228.9124651 142.54470007 -225.62940207 138.58557967 -222.16934204 134.56661987 C-221.37469054 133.6428369 -221.37469054 133.6428369 -220.56398547 132.70039165 C-214.99681012 126.29550145 -209.07958125 120.27813755 -203.06982422 114.29174805 C-201.87206162 113.09126535 -200.67472267 111.89035985 -199.47776794 110.68907166 C-196.26971603 107.47201832 -193.05551145 104.26118294 -189.83976316 101.05182505 C-186.45286642 97.6700479 -183.07091546 94.28332997 -179.68814087 90.89743042 C-174.01475484 85.22042391 -168.33720599 79.54760639 -162.65722656 73.87719727 C-156.11186017 67.34273274 -149.57375747 60.8010668 -143.03933847 54.25565636 C-137.3993697 48.6065849 -131.75547968 42.96145334 -126.10834754 37.31954277 C-122.74818704 33.96248291 -119.38935104 30.60412775 -116.03406906 27.24219131 C-112.88170033 24.08400537 -109.72440286 20.93082789 -106.56338692 17.78129768 C-105.41125469 16.63178788 -104.26077976 15.48061395 -103.11218452 14.32756996 C-94.51090128 5.69607223 -85.85558149 -2.93440853 -74.75195312 -8.26733398 C-74.06456055 -8.59926758 -73.37716797 -8.93120117 -72.66894531 -9.27319336 C-48.70071933 -20.44134312 -20.55065865 -16.29783782 0 0 Z " fill="#000000" transform="translate(300.564453125,28.954833984375)"/>
<path d="M0 0 C3.25474071 2.16982714 3.87641512 3.41578058 4.6875 7.25 C2.88452502 17.08440898 -9.42339693 25.40703013 -16.34960938 32.046875 C-26.89781408 42.39033382 -32.62766356 52.62708355 -34.27734375 67.265625 C-35.16286627 70.61625076 -36.25066178 71.91981288 -39 74 C-42.08996124 74.78881053 -44.88351082 74.63473449 -48 74 C-50.87931686 71.89318278 -51.78174546 70.38820038 -52.3359375 66.86328125 C-53.01220603 50.7108674 -45.27165734 36.8232273 -35 25 C-31.39259878 21.10908233 -27.64572117 17.35646422 -23.88012695 13.61938477 C-22.16569667 11.91583504 -20.46242164 10.20163787 -18.75976562 8.48632812 C-17.66730864 7.39519021 -16.57423278 6.30467148 -15.48046875 5.21484375 C-14.97420456 4.7045311 -14.46794037 4.19421844 -13.94633484 3.66844177 C-9.26328411 -0.95238497 -6.41815256 -1.46378918 0 0 Z " fill="#000000" transform="translate(150,147)"/>
</svg>
