<?xml version="1.0" standalone="no"?>
<!DOCTYPE svg PUBLIC "-//W3C//DTD SVG 20010904//EN"
 "http://www.w3.org/TR/2001/REC-SVG-20010904/DTD/svg10.dtd">
<svg version="1.0" xmlns="http://www.w3.org/2000/svg"
 width="512.000000pt" height="512.000000pt" viewBox="0 0 512.000000 512.000000"
 preserveAspectRatio="xMidYMid meet">

<g transform="translate(0.000000,512.000000) scale(0.100000,-0.100000)"
fill="#000000" stroke="none">
<path d="M2511 5097 c-6 -8 -34 -70 -61 -138 -28 -68 -58 -129 -66 -135 -8 -6
-71 -15 -141 -19 -144 -8 -169 -14 -185 -50 -18 -39 0 -65 120 -166 l108 -92
-33 -136 c-18 -75 -32 -146 -33 -158 0 -23 43 -63 69 -63 9 0 71 34 138 75 67
41 126 75 133 75 7 0 66 -34 133 -75 67 -41 130 -75 140 -75 23 0 67 44 67 67
-1 10 -15 79 -33 153 l-33 136 108 92 c119 102 138 128 120 167 -16 36 -43 43
-186 51 -70 4 -133 12 -141 18 -7 6 -37 67 -65 136 -28 69 -58 131 -67 138
-22 16 -78 15 -92 -1z m84 -319 c35 -84 49 -94 152 -105 l72 -8 -64 -53 c-59
-48 -65 -57 -65 -90 0 -20 7 -62 15 -92 8 -30 13 -55 11 -57 -2 -2 -34 15 -72
37 -38 22 -76 40 -84 40 -9 0 -47 -18 -84 -41 -37 -22 -69 -39 -71 -37 -3 2 2
28 10 58 28 104 23 121 -50 183 l-65 55 78 7 c42 4 87 13 99 21 11 7 34 45 50
83 15 39 30 71 33 71 3 0 19 -33 35 -72z"/>
<path d="M1457 4608 c-9 -7 -35 -58 -58 -113 -22 -55 -43 -105 -45 -111 -3 -7
-51 -15 -122 -19 -128 -8 -148 -14 -162 -51 -15 -39 3 -67 98 -147 l89 -76
-29 -122 c-29 -122 -29 -123 -10 -148 33 -44 66 -39 175 29 54 33 102 60 107
60 5 0 52 -27 105 -60 58 -36 107 -60 124 -60 35 0 64 31 63 68 0 23 -29 148
-48 214 -3 12 23 41 91 98 85 73 95 85 95 115 0 27 -13 53 -33 66 -1 1 -58 6
-125 13 l-124 11 -45 110 c-47 117 -61 135 -103 135 -14 0 -34 -6 -43 -12z
m63 -288 c20 -60 41 -77 107 -85 l58 -7 -44 -38 c-47 -41 -51 -57 -36 -138 l8
-43 -49 30 c-26 17 -54 31 -62 31 -8 0 -38 -13 -67 -30 l-52 -30 13 57 c15 65
11 77 -44 127 l-36 34 57 7 c63 8 86 27 109 91 6 19 15 34 18 34 4 0 13 -18
20 -40z"/>
<path d="M3578 4608 c-9 -7 -37 -62 -61 -123 l-45 -110 -119 -11 c-136 -12
-148 -16 -161 -52 -14 -41 0 -63 85 -135 44 -36 85 -72 91 -79 8 -10 4 -42
-18 -127 -29 -115 -29 -132 -2 -163 26 -31 66 -21 167 42 53 33 100 60 105 60
5 0 53 -27 107 -60 109 -68 142 -73 175 -30 18 25 18 27 -11 145 l-29 120 61
55 c34 30 77 69 96 86 26 23 34 39 34 63 0 54 -19 64 -155 75 -68 5 -126 14
-130 20 -4 6 -26 57 -49 114 -23 56 -50 107 -60 112 -25 14 -62 12 -81 -2z
m60 -282 c23 -64 46 -83 109 -91 l58 -7 -36 -32 c-56 -48 -62 -66 -45 -131
l14 -55 -53 30 c-29 16 -59 30 -67 30 -8 0 -36 -14 -62 -31 l-49 -30 8 43 c15
81 11 97 -36 138 l-44 38 58 7 c66 8 87 25 107 85 7 22 16 40 20 40 3 0 12
-15 18 -34z"/>
<path d="M2570 4020 c-461 -47 -857 -279 -1024 -600 -71 -137 -96 -254 -96
-451 0 -135 -1 -139 -29 -183 -60 -96 -66 -209 -16 -311 26 -55 88 -115 135
-133 20 -8 28 -22 39 -68 46 -201 178 -415 341 -553 36 -30 66 -58 68 -62 2
-5 -9 -42 -24 -83 l-28 -75 -66 -27 c-278 -117 -555 -259 -637 -327 -102 -84
-170 -192 -204 -325 -17 -67 -19 -112 -19 -422 0 -328 1 -349 19 -371 l19 -24
1451 -3 c1608 -3 1514 -6 1526 61 4 18 5 189 3 378 l-3 344 -31 85 c-86 241
-230 348 -806 595 -86 37 -88 38 -107 89 -10 28 -24 63 -30 78 -9 25 -6 30 64
87 150 124 286 338 336 526 21 80 25 88 58 105 160 82 206 311 91 457 -19 24
-20 39 -20 314 0 265 -2 293 -20 343 -41 108 -142 187 -257 202 l-53 7 0 46
c-1 130 -118 235 -313 280 -100 24 -253 32 -367 21z m339 -156 c78 -18 156
-58 182 -95 15 -21 19 -44 19 -107 0 -65 4 -84 21 -106 18 -23 27 -26 87 -26
37 0 83 -5 102 -10 41 -11 94 -61 109 -103 7 -17 11 -123 11 -268 l0 -239 -60
0 c-33 0 -63 -1 -67 -2 -4 -2 -21 54 -38 124 -32 134 -51 168 -93 168 -32 0
-72 -36 -72 -64 0 -12 20 -100 45 -196 55 -217 69 -234 155 -190 83 42 166 15
202 -67 15 -34 18 -56 14 -86 -13 -76 -43 -109 -139 -146 -31 -12 -39 -28 -62
-130 -71 -311 -295 -559 -590 -651 -148 -46 -361 -35 -506 25 -253 107 -449
342 -514 615 -28 118 -38 137 -83 150 -75 20 -122 80 -122 154 0 122 112 191
220 136 83 -42 120 -1 120 132 0 131 42 203 144 248 43 19 72 22 250 27 157 3
256 12 451 39 143 20 260 42 272 50 47 30 34 106 -20 119 -12 3 -129 -10 -260
-30 -181 -26 -271 -35 -375 -35 -212 -1 -319 -13 -386 -45 -112 -53 -201 -175
-213 -291 l-6 -54 -60 0 -60 0 5 128 c6 148 32 241 100 356 48 82 168 206 253
263 182 122 417 202 670 227 66 6 226 -4 294 -20z m-554 -2349 c162 -31 353
-11 512 53 l52 21 21 -56 c11 -31 20 -61 18 -68 -2 -7 -101 -113 -220 -235
l-218 -224 -26 25 c-14 13 -115 117 -225 230 l-198 206 20 54 c11 29 23 57 25
60 2 4 37 -6 76 -21 40 -16 114 -36 163 -45z m-124 -415 c231 -238 255 -260
286 -260 30 0 55 22 290 260 140 143 260 260 264 260 5 0 40 -14 79 -31 l70
-32 0 -171 0 -171 -44 -18 c-65 -27 -120 -79 -147 -139 -20 -45 -24 -73 -27
-188 -3 -122 -2 -138 16 -159 26 -33 78 -33 104 -2 15 20 18 41 18 140 0 128
12 168 62 204 38 28 123 33 167 10 66 -35 76 -59 79 -206 3 -77 9 -138 15
-146 19 -23 55 -31 81 -19 40 18 49 55 44 190 -6 181 -44 251 -164 308 l-64
31 0 135 c0 73 3 134 6 134 3 0 73 -34 155 -76 182 -92 259 -157 313 -264 50
-100 57 -166 54 -475 l-3 -270 -1368 -3 -1368 -2 3 322 c3 309 4 325 26 380
31 77 98 166 158 210 44 31 198 115 297 160 l37 18 0 -169 0 -168 -49 -30
c-121 -75 -147 -241 -54 -344 91 -101 228 -111 330 -25 71 59 95 178 55 268
-20 45 -77 103 -118 118 l-24 10 0 203 0 203 73 31 c39 17 77 32 84 32 6 1
125 -116 264 -259z m-448 -351 c48 -22 64 -87 33 -134 -51 -77 -166 -35 -166
60 0 34 50 85 84 85 14 0 36 -5 49 -11z"/>
<path d="M2035 2713 c-46 -24 -76 -54 -96 -98 -38 -82 -15 -155 50 -155 34 0
71 39 71 75 0 30 30 55 67 55 34 0 63 -26 63 -57 0 -60 78 -95 120 -53 36 36
19 133 -33 188 -55 59 -174 81 -242 45z"/>
<path d="M2830 2719 c-46 -19 -100 -81 -116 -135 -15 -53 -12 -76 14 -106 30
-35 112 -10 112 33 0 23 18 61 34 71 6 4 25 8 43 8 36 0 63 -29 63 -67 0 -32
34 -63 69 -63 45 0 75 43 67 95 -10 61 -54 125 -105 152 -48 25 -134 31 -181
12z"/>
<path d="M2260 2140 c-35 -35 -26 -77 28 -130 75 -73 130 -95 232 -95 103 1
160 26 233 104 52 56 57 76 26 115 -27 35 -68 35 -100 0 -45 -50 -109 -84
-156 -84 -53 0 -94 19 -150 71 -48 44 -82 50 -113 19z"/>
<path d="M873 3798 c-16 -8 -37 -46 -70 -124 -54 -129 -39 -119 -197 -129
-110 -8 -136 -22 -136 -75 0 -32 8 -41 118 -132 39 -34 72 -66 72 -72 0 -6
-11 -54 -25 -106 -14 -52 -25 -107 -25 -122 0 -34 32 -68 63 -68 13 0 69 29
126 64 l104 63 105 -63 c58 -35 114 -64 124 -64 21 0 68 42 68 62 0 7 -12 64
-27 127 l-28 114 55 46 c94 79 140 128 140 149 0 12 -10 32 -22 46 -21 24 -31
26 -136 33 -73 4 -118 11 -127 19 -7 7 -30 57 -51 110 -36 90 -69 135 -98 133
-6 0 -21 -5 -33 -11z m89 -360 c12 -11 37 -18 64 -18 23 0 45 -4 48 -8 3 -5
-13 -26 -36 -47 -38 -37 -40 -41 -34 -84 3 -26 8 -56 12 -69 7 -23 6 -23 -43
7 -61 38 -74 38 -130 5 -25 -14 -46 -24 -49 -22 -2 3 2 30 8 62 l13 58 -47 43
c-49 47 -47 55 18 55 52 0 69 13 94 76 l23 56 19 -48 c10 -27 28 -57 40 -66z"/>
<path d="M4178 3791 c-14 -12 -39 -58 -62 -115 -21 -53 -44 -103 -51 -110 -9
-8 -54 -15 -127 -19 -105 -7 -115 -9 -135 -33 -43 -48 -31 -68 112 -191 l60
-51 -28 -113 c-15 -63 -27 -120 -27 -127 0 -20 47 -62 68 -62 10 0 66 29 124
64 l105 63 104 -63 c57 -35 113 -64 126 -64 30 0 63 34 63 65 0 14 -12 73 -27
132 l-26 106 29 25 c127 106 164 144 164 171 0 60 -44 78 -205 80 -33 1 -65 5
-71 9 -7 4 -33 57 -58 118 -36 84 -53 114 -72 123 -33 15 -37 14 -66 -8z m107
-364 c9 -4 32 -7 50 -7 63 0 66 -8 17 -55 l-47 -43 13 -58 c6 -32 10 -59 8
-62 -3 -2 -24 8 -49 22 -56 33 -69 33 -130 -5 -49 -30 -50 -30 -43 -7 4 13 9
43 12 69 6 43 4 47 -34 84 -23 21 -39 42 -36 47 3 4 24 8 47 8 57 0 81 19 103
81 l19 51 26 -60 c15 -32 34 -62 44 -65z"/>
</g>
</svg>
