<?xml version="1.0" encoding="UTF-8"?>
<svg version="1.1" xmlns="http://www.w3.org/2000/svg" width="512" height="512">
<path d="M0 0 C1.09900635 0.53512207 1.09900635 0.53512207 2.22021484 1.08105469 C22.19606115 10.92265938 40.3894188 23.88601205 56.76171875 38.9453125 C58.87039527 40.88102603 61.01786328 42.75819976 63.1875 44.625 C78.91074873 58.35916305 91.94865213 75.36392761 103 93 C103.61439941 93.97743164 103.61439941 93.97743164 104.24121094 94.97460938 C140.31165475 152.92384698 150.71674516 223.75915258 135.5378418 290.07177734 C130.99634567 308.82543663 124.49908734 326.68785559 116 344 C115.63261719 344.74862305 115.26523437 345.49724609 114.88671875 346.26855469 C107.44378057 361.23990649 98.27200465 374.82185881 88 388 C87.31679688 388.87785156 86.63359375 389.75570313 85.9296875 390.66015625 C45.08266169 441.83198378 -13.44663117 474.34354991 -78 484 C-78.78955078 484.11859375 -79.57910156 484.2371875 -80.39257812 484.359375 C-145.54560856 493.61187636 -213.37562893 475.52252344 -266.0625 436.5625 C-321.22291716 394.54912527 -357.70285362 335.35492606 -368.0390625 266.40234375 C-374.95484166 214.96575865 -366.8408482 162.62103864 -344 116 C-343.46487793 114.90099365 -343.46487793 114.90099365 -342.91894531 113.77978516 C-333.07734062 93.80393885 -320.11398795 75.6105812 -305.0546875 59.23828125 C-303.11897397 57.12960473 -301.24180024 54.98213672 -299.375 52.8125 C-285.64083695 37.08925127 -268.63607239 24.05134787 -251 13 C-250.34837891 12.59040039 -249.69675781 12.18080078 -249.02539062 11.75878906 C-174.47214146 -34.6468048 -78.66021041 -38.53766406 0 0 Z M-271 47 C-267.04404623 48.31865126 -263.30338686 48.01615774 -259.1875 47.9375 C-243.92512993 47.81609478 -228.29872256 48.7174305 -216.81640625 59.87109375 C-212.19955586 65.28224099 -211.40890925 71.0462382 -211.66796875 78.03125 C-213.44230742 93.89592517 -222.78629475 107.16127919 -233.5625 118.42578125 C-236.83354908 121.88030263 -239.79644441 125.54581415 -242.7734375 129.25390625 C-244.26944463 131.09898171 -245.79635774 132.91938311 -247.3515625 134.71484375 C-256.12671799 144.94274238 -262.61513458 156.24636805 -262.3125 170.03515625 C-260.98325627 182.64635615 -254.47676469 192.68662384 -245.01953125 200.796875 C-229.31620772 212.25440989 -209.26684553 217.2919219 -190 217 C-190.15855469 216.31421875 -190.31710938 215.6284375 -190.48046875 214.921875 C-192.07981369 205.92706288 -192.12705949 196.81584313 -187 189 C-180.7785453 181.63248786 -173.98813908 178.55445732 -164.625 177.6875 C-154.92160446 178.52399962 -148.54702745 181.74483641 -142 189 C-139.47741243 192.89873312 -137.51306896 196.97863952 -135.5625 201.1875 C-135.01682373 202.31921631 -134.47114746 203.45093262 -133.90893555 204.61694336 C-132.25051641 208.06797358 -130.62159413 211.5315352 -129 215 C-127.54477822 218.09211338 -126.08778753 221.18335479 -124.62670898 224.27270508 C-123.76622993 226.09932483 -122.91384776 227.92978608 -122.07055664 229.7644043 C-121.50389282 230.98123901 -121.50389282 230.98123901 -120.92578125 232.22265625 C-120.60005127 232.93172119 -120.27432129 233.64078613 -119.9387207 234.37133789 C-119.0941247 236.18277105 -119.0941247 236.18277105 -117 237 C-115.03633718 236.91803144 -113.07577506 236.75791794 -111.12011719 236.56274414 C-109.88412781 236.4425441 -108.64813843 236.32234406 -107.37469482 236.19850159 C-106.37935856 236.09754779 -106.37935856 236.09754779 -105.36391449 235.99455452 C-103.27692014 235.78313475 -101.18931237 235.57922971 -99.10137939 235.37730408 C-93.90431053 234.87320903 -88.70844384 234.35716604 -83.51269531 233.83966064 C-79.13906261 233.40429107 -74.76495042 232.97450731 -70.3900528 232.55203056 C-68.35701449 232.35352817 -66.32488075 232.14715741 -64.29266357 231.94044495 C-36.94226031 229.2919193 -36.94226031 229.2919193 -27.1875 237.3125 C-22.58889471 242.96221507 -20.11937569 247.59870709 -20 255 C-21 258 -21 258 -23 260 C-27.39092112 260.54886514 -29.28500878 260.47666082 -33 258 C-33.73828125 255.9765625 -33.73828125 255.9765625 -34.3125 253.625 C-35.37015418 250.29097339 -35.97987087 249.02063236 -38.5 246.4375 C-46.78248394 243.03576552 -57.04016543 245.24267065 -65.74048233 246.11117554 C-67.81009017 246.31771718 -69.88025259 246.51763502 -71.95065308 246.71606445 C-76.34267806 247.13821609 -80.73385733 247.56878295 -85.125 248 C-90.22782441 248.50022761 -95.33096607 248.9968755 -100.43478012 249.48690796 C-102.45844997 249.68272355 -104.48155006 249.88379108 -106.50466919 250.08520508 C-120.24126643 251.41043524 -120.24126643 251.41043524 -126 251 C-128.66764991 248.77739236 -129.99967476 246.36309981 -131.53125 243.265625 C-132.00691406 242.30962402 -132.48257813 241.35362305 -132.97265625 240.36865234 C-133.47667969 239.33949707 -133.98070312 238.3103418 -134.5 237.25 C-135.02464844 236.19119629 -135.54929688 235.13239258 -136.08984375 234.04150391 C-140.27196908 225.57069431 -144.35309895 217.05104689 -148.34570312 208.48925781 C-152.2368386 199.7712277 -152.2368386 199.7712277 -158.75 193.0625 C-162.85423785 191.72072994 -165.88006723 191.7427834 -170 193 C-173.40569591 195.14706916 -175.80960782 197.10417103 -177 201 C-178.08656627 209.27765944 -174.37135205 215.59270259 -170.8125 222.875 C-170.22712225 224.10220091 -169.64312744 225.33006249 -169.06054688 226.55859375 C-166.11420877 232.7439862 -163.08062011 238.87377116 -159.85424805 244.91845703 C-158.49418432 248.23251914 -158.89075375 250.67226125 -160 254 C-163.46923881 256.31282587 -164.92205575 256.42478586 -169 256 C-171.86643093 253.79969905 -172.62345137 251.59471598 -173.6015625 248.18359375 C-175.58994075 242.26160644 -177.57302321 236.54921025 -182 232 C-188.81925203 229.08895439 -196.60236092 229.86243466 -203.87353516 230.02099609 C-208.4294066 229.99040067 -212.69209968 229.2487821 -217.125 228.25 C-217.89005859 228.07887695 -218.65511719 227.90775391 -219.44335938 227.73144531 C-237.61725639 223.38072451 -256.11592643 214.61043668 -266.8125 198.75 C-274.69106173 185.52593658 -278.03732945 171.53668485 -275.3515625 156.328125 C-271.05843824 139.81610863 -260.31317762 126.74326447 -248.9375 114.4375 C-239.01002235 103.67485359 -227.26950077 90.63709042 -225.625 75.5625 C-225.69558346 71.89637718 -225.69558346 71.89637718 -228.125 69.25 C-241.50954558 58.77513824 -261.86307315 61.16732487 -277.875 62.875 C-278.61766113 62.95331055 -279.36032227 63.03162109 -280.12548828 63.11230469 C-287.8830514 64.0464334 -291.55477008 66.0087755 -296.5 72 C-297.01409424 72.61302979 -297.52818848 73.22605957 -298.05786133 73.85766602 C-339.64037817 124.1996809 -359.75218986 187.38717929 -354.53125 252.609375 C-352.27155737 275.84133103 -346.38823571 298.26375026 -338 320 C-337.72607422 320.71768555 -337.45214844 321.43537109 -337.16992188 322.17480469 C-327.58050891 346.84531199 -312.46780536 369.26296313 -295 389 C-293.84371094 390.32257813 -293.84371094 390.32257813 -292.6640625 391.671875 C-284.12453569 401.32004213 -275.13353835 410.03793416 -265 418 C-263.50339844 419.20462891 -263.50339844 419.20462891 -261.9765625 420.43359375 C-254.35573075 426.5048088 -246.37555235 431.80292319 -238.01318359 436.79736328 C-236.71016539 437.57576101 -235.41073795 438.36021487 -234.11572266 439.15185547 C-181.5617366 471.19018868 -115.89887574 478.63862818 -56.59057617 464.53125 C-5.74901881 451.76263056 41.41900438 422.26557341 74 381 C74.76957031 380.05898438 75.53914063 379.11796875 76.33203125 378.1484375 C115.07966903 329.69824099 132.07059988 266.3462338 126.23071289 204.93725586 C123.72807325 182.51312375 118.11345014 161.02420397 110 140 C109.58911133 138.92347168 109.58911133 138.92347168 109.16992188 137.82519531 C99.58050891 113.15468801 84.46780536 90.73703687 67 71 C66.22914063 70.11828125 65.45828125 69.2365625 64.6640625 68.328125 C56.12453569 58.67995787 47.13353835 49.96206584 37 42 C35.50339844 40.79537109 35.50339844 40.79537109 33.9765625 39.56640625 C25.73577437 33.00053322 17.05151598 27.37880244 8 22 C6.9780957 21.38125 6.9780957 21.38125 5.93554688 20.75 C-76.17472545 -28.68609999 -184.56598419 -19.48585378 -271 47 Z " fill="#000000" transform="translate(370,26)"/>
<path d="M0 0 C3.48984159 2.85402114 6.77000763 5.85714772 10 9 C10.63421875 9.58394531 11.2684375 10.16789062 11.921875 10.76953125 C27.70271691 25.67753899 37.63403256 49.47998945 38.30078125 71.015625 C38.32005897 73.09366425 38.32359477 75.17190095 38.3125 77.25 C38.30758545 78.34538086 38.3026709 79.44076172 38.29760742 80.56933594 C37.97065308 103.27170374 29.8271509 123.79575076 15 141 C14.47019531 141.67417969 13.94039063 142.34835938 13.39453125 143.04296875 C5.61908405 152.66148491 -5.00737503 159.5807901 -16 165 C-15.76216797 165.78697266 -15.76216797 165.78697266 -15.51953125 166.58984375 C-15.00728529 168.29072675 -14.49863234 169.99269319 -13.9921875 171.6953125 C-13.26048549 174.13239874 -12.51457954 176.56293075 -11.7578125 178.9921875 C-2.1344717 210.20901719 -4.7669657 240.94704637 -19.76538086 270.03149414 C-20.82671994 272.03069171 -21.90840973 274.01716855 -23 276 C-23.37640625 276.6894873 -23.7528125 277.37897461 -24.140625 278.08935547 C-46.5783442 318.78576866 -81.46893174 352.80302628 -126.36328125 366.97265625 C-153.44968584 374.62434734 -184.9878009 375.89810942 -211 364 C-211.93199219 363.58105469 -212.86398438 363.16210938 -213.82421875 362.73046875 C-231.89785539 353.7838897 -243.59480208 336.700233 -250 318 C-251.29208683 313.36368845 -252.24996128 308.75224536 -253 304 C-253.13019531 303.2265625 -253.26039063 302.453125 -253.39453125 301.65625 C-256.148155 281.97701894 -252.17293712 263.51881136 -246 245 C-246.66683807 244.82318192 -247.33367615 244.64636383 -248.02072144 244.46418762 C-254.3484848 242.784243 -260.67332848 241.09375442 -266.99520683 239.39178944 C-270.24434 238.51745097 -273.4944104 237.64702305 -276.74707031 236.78588867 C-280.49824973 235.79060448 -284.24544795 234.7813839 -287.9921875 233.76953125 C-289.14363251 233.46723099 -290.29507751 233.16493073 -291.48141479 232.85346985 C-302.85019124 229.754668 -312.22966435 226.03070467 -319 216 C-323.3943758 207.72020153 -324.35322814 199.25022249 -322.375 190.11328125 C-319.89369377 182.17088588 -315.50335353 175.82642909 -308.3984375 171.3671875 C-294.52234061 164.20401064 -281.81338059 167.38749532 -267.4375 171.375 C-265.66700968 171.85567601 -263.89616274 172.33504005 -262.125 172.81323242 C-259.17524507 173.61058075 -256.22611867 174.4099782 -253.27853394 175.21531677 C-244.85430871 177.514462 -236.4103676 179.73199736 -227.96058846 181.93471527 C-223.41095701 183.12291477 -218.86393925 184.32107188 -214.31705761 185.51974487 C-210.54502141 186.51367093 -206.77185456 187.50271632 -202.99557495 188.48040771 C-199.39053944 189.41432167 -195.78992929 190.36379317 -192.19186211 191.32419014 C-190.85820306 191.67738304 -189.52311343 192.02522748 -188.18651009 192.3671093 C-175.73835052 195.55711967 -165.89960907 199.76896968 -159 211 C-155.99291276 216.60606979 -155.60712252 221.7139603 -156 228 C-155.01 227.67 -154.02 227.34 -153 227 C-151.12772142 226.78342714 -149.25018083 226.6110033 -147.37109375 226.46484375 C-146.25283203 226.37783203 -145.13457031 226.29082031 -143.98242188 226.20117188 C-142.81259766 226.11416016 -141.64277344 226.02714844 -140.4375 225.9375 C-138.72336914 225.80118164 -138.72336914 225.80118164 -136.97460938 225.66210938 C-131.79219917 225.26802101 -126.60549803 224.91503907 -121.41015625 224.75390625 C-120.64968994 224.72756104 -119.88922363 224.70121582 -119.10571289 224.67407227 C-116.35674587 225.09956455 -115.01798116 226.11631144 -113 228 C-111.80691838 231.65878362 -111.67332256 233.29997692 -113.3125 236.8125 C-115 239 -115 239 -117 240 C-119.62224159 240.29676264 -122.22991427 240.54425968 -124.859375 240.75390625 C-125.64137268 240.81907944 -126.42337036 240.88425262 -127.22906494 240.95140076 C-128.88659717 241.08863399 -130.54429851 241.22383731 -132.20214844 241.35717773 C-134.72635013 241.56059414 -137.24989718 241.77097545 -139.7734375 241.98242188 C-141.38538242 242.11500041 -142.99736064 242.24717474 -144.609375 242.37890625 C-145.35958923 242.44139053 -146.10980347 242.50387482 -146.88275146 242.56825256 C-150.93324491 242.89074572 -154.93693687 243.06371075 -159 243 C-159.14695313 244.03447266 -159.14695313 244.03447266 -159.296875 245.08984375 C-161.60685155 259.60685155 -161.60685155 259.60685155 -166 264 C-173.10464058 264.69881711 -173.10464058 264.69881711 -176.5625 262 C-180.17873067 254.45308382 -175.08543573 243.4429031 -172.90820312 235.84375 C-171.19098292 229.41330839 -170.62319077 225.27903333 -173 219 C-177.90340615 211.35645511 -185.84301995 209.90951748 -194.1340332 207.71923828 C-195.28969536 207.40876053 -195.28969536 207.40876053 -196.46870422 207.0920105 C-198.99506142 206.41430396 -201.52288716 205.74226141 -204.05078125 205.0703125 C-205.832381 204.59367052 -207.61388878 204.11668465 -209.39530945 203.63937378 C-214.08056689 202.38505073 -218.76710555 201.13558142 -223.45391846 199.88708496 C-228.1608595 198.63223568 -232.86648213 197.37246291 -237.57226562 196.11328125 C-249.19806189 192.99980294 -249.19806189 192.99980294 -260.8297472 189.90844917 C-264.94683046 188.81960466 -269.05635997 187.70958699 -273.15829468 186.56488037 C-274.43040818 186.21566937 -274.43040818 186.21566937 -275.72822094 185.85940361 C-277.3325949 185.41883593 -278.93492287 184.97071266 -280.53457355 184.51329231 C-286.56579135 182.87276507 -292.14257972 181.99149873 -298.1875 184.125 C-302.42051121 186.94700747 -305.35909664 190.07728992 -307 195 C-307.36826224 200.61599916 -307.21556007 204.17665989 -304 209 C-298.69747563 214.56010093 -292.74368087 215.83816013 -285.4375 217.6875 C-283.52627594 218.19527726 -281.61505689 218.70307367 -279.70401001 219.21151733 C-276.89963896 219.95351821 -274.09155839 220.68092537 -271.28338623 221.40838623 C-264.6778678 223.11984249 -258.07681907 224.84749124 -251.48123169 226.59683228 C-249.03236006 227.24148143 -246.57982129 227.87049208 -244.12670898 228.4987793 C-242.60512564 228.89954375 -241.08371413 229.30096136 -239.5625 229.703125 C-238.87096329 229.87582413 -238.17942657 230.04852325 -237.4669342 230.22645569 C-233.17463768 231.38189818 -230.14996188 232.83770438 -227 236 C-226.23898274 241.25961122 -227.46938583 244.73514454 -229.75 249.4375 C-239.17535943 269.88375174 -240.97728391 293.70135336 -233.8125 315.125 C-227.48849285 331.58954339 -218.06185595 343.14412435 -201.86328125 350.40625 C-174.35072204 361.60662913 -142.86594234 356.7827877 -116 346 C-98.79582735 338.55675329 -84.40592582 326.90941005 -71 314 C-70.05640625 313.13375 -70.05640625 313.13375 -69.09375 312.25 C-44.78391133 289.31618994 -24.06406454 253.14887712 -21.76171875 219.51953125 C-21.41604753 202.25416346 -25.49680714 186.9452602 -32.08959961 171.04492188 C-35.92521252 161.57850541 -35.92521252 161.57850541 -34 157 C-30.40686536 153.30593461 -25.98279413 151.44203774 -21.375 149.3125 C-1.22133002 139.57205702 11.15558756 122.82384791 18.9921875 102.328125 C25.33252049 81.39028117 23.29771136 59.17852497 13.34350586 39.80493164 C2.62619747 20.11714598 -14.07066368 6.36996121 -35.5234375 -0.0703125 C-57.64068856 -5.98481335 -79.37337297 -3.53860229 -99.23828125 7.93994141 C-117.19864399 18.7470222 -130.12183819 34.8385466 -136 55 C-137.97328623 62.95394647 -139.00977192 70.87938149 -139.3125 79.0625 C-139.65546526 84.23286313 -140.69262587 87.53549918 -144.1015625 91.4765625 C-147.35821608 94.08992649 -150.96272042 95.13871369 -155 96 C-154.29884019 113.48063934 -150.86477652 125.52658271 -141 140 C-139.61546726 142.03521421 -138.23911451 144.07604432 -136.875 146.125 C-136.31554687 146.93195313 -135.75609375 147.73890625 -135.1796875 148.5703125 C-133.71594438 151.58504171 -133.67685092 153.68658413 -134 157 C-135.5625 159.375 -135.5625 159.375 -138 161 C-141.375 161.6875 -141.375 161.6875 -145 161 C-147.52145483 158.70267448 -149.08448954 156.78030073 -151 154 C-151.37560059 153.4632666 -151.75120117 152.9265332 -152.13818359 152.37353516 C-155.19872834 147.98200654 -158.11956609 143.51109781 -161 139 C-161.61746094 138.05769531 -162.23492187 137.11539063 -162.87109375 136.14453125 C-169.32007788 125.51416091 -170.23367805 113.59402331 -170.4375 101.4375 C-170.47109619 100.18851929 -170.47109619 100.18851929 -170.50537109 98.91430664 C-170.48760263 94.2828172 -170.01441748 90.49142165 -167.53198242 86.51611328 C-165.52935465 84.53422986 -163.46990867 83.80050905 -160.8671875 82.74609375 C-157.08018577 81.07663848 -157.08018577 81.07663848 -154.97363281 77.68408203 C-154.47675873 74.79189987 -154.25461123 71.99398021 -154.125 69.0625 C-153.9408938 66.97850887 -153.74950904 64.89514769 -153.55078125 62.8125 C-153.46393066 61.80832031 -153.37708008 60.80414063 -153.28759766 59.76953125 C-150.99003283 37.64425501 -136.28864535 16.48012883 -119.8125 2.375 C-84.74552195 -25.24024522 -36.07293886 -26.42146248 0 0 Z " fill="#000000" transform="translate(405,96)"/>
<path d="M0 0 C1.37943762 0.74676322 2.73527439 1.53895237 4.0625 2.375 C4.75859375 2.7875 5.4546875 3.2 6.171875 3.625 C12.91537036 8.08686159 17.20953093 14.68602429 19.4375 22.4375 C20.99678008 32.26096449 20.24216837 41.30126766 14.3125 49.625 C8.38631242 56.86811816 1.63874928 62.26148264 -7.9375 63.375 C-18.19315581 64.12855177 -26.31968812 62.19954742 -34.44140625 55.77734375 C-36.6564799 53.70107367 -36.92194448 52.55388846 -37.1875 49.5 C-36.90583695 45.9792119 -36.55042013 44.72662812 -33.9375 42.375 C-30.31536791 41.33421667 -28.49647452 41.14596037 -24.97265625 42.58984375 C-23.99167969 43.15832031 -23.01070313 43.72679687 -22 44.3125 C-17.36634827 46.76359321 -14.26889037 48.40026738 -8.9375 47.375 C-4.60634107 45.89566678 -1.62692526 44.11745798 1.5 40.75 C3.86333431 35.6451979 5.00504131 30.61290661 3.3984375 25.09375 C1.4272846 20.79888027 -0.9038296 17.96068615 -4.9375 15.375 C-9.42611594 13.87879469 -13.98032755 14.03788808 -18.6875 13.8515625 C-21.9375 13.375 -21.9375 13.375 -23.82421875 12.01953125 C-25.51720617 9.51866211 -25.75469474 7.36081917 -25.9375 4.375 C-25.15897826 1.82711068 -24.51989022 0.76233129 -22.3046875 -0.7109375 C-15.85594743 -3.20104505 -6.34167981 -2.66084468 0 0 Z " fill="#000000" transform="translate(385.9375,157.625)"/>
<path d="M0 0 C2.8125 2.375 2.8125 2.375 5 5 C5.66 5.66 6.32 6.32 7 7 C10.7436635 6.83361496 12.58508874 6.34230179 15.5 3.9375 C18 2 18 2 21.0625 1.5625 C24.44273423 2.06593914 25.83222115 2.33196449 28 5 C28.5661486 9.38765168 28.63245514 11.76383769 26.625 15.6875 C20.71865934 20.89070486 14.34042982 23.88802717 6.3828125 23.4140625 C-1.07421992 22.11825031 -5.69785345 18.04384601 -10 12 C-11.42041821 9.15916359 -11.31452272 7.14522722 -11 4 C-8.0623219 -0.46527072 -5.12830352 -0.80973213 0 0 Z " fill="#000000" transform="translate(291,167)"/>
</svg>
