<?xml version="1.0" standalone="no"?>
<!DOCTYPE svg PUBLIC "-//W3C//DTD SVG 20010904//EN"
 "http://www.w3.org/TR/2001/REC-SVG-20010904/DTD/svg10.dtd">
<svg version="1.0" xmlns="http://www.w3.org/2000/svg"
 width="512.000000pt" height="512.000000pt" viewBox="0 0 512.000000 512.000000"
 preserveAspectRatio="xMidYMid meet">

<g transform="translate(0.000000,512.000000) scale(0.100000,-0.100000)"
fill="#000000" stroke="none">
<path d="M4141 5029 c-124 -16 -266 -105 -342 -215 -71 -103 -97 -232 -79
-388 18 -159 65 -282 147 -384 24 -29 30 -43 21 -46 -121 -35 -206 -83 -291
-165 l-67 -65 -58 57 c-86 87 -161 129 -295 171 -15 5 -13 12 22 56 83 105
133 248 146 416 24 316 -196 564 -501 564 -222 0 -408 -137 -475 -350 -41
-128 -21 -354 44 -500 14 -30 46 -83 71 -118 30 -40 42 -64 34 -66 -116 -33
-205 -84 -289 -164 l-68 -63 -59 58 c-66 65 -161 125 -237 149 -27 8 -56 17
-63 20 -9 3 -2 17 23 46 46 54 108 183 129 268 23 98 31 226 17 306 -33 190
-175 344 -365 399 -80 23 -228 16 -308 -14 -123 -47 -239 -163 -290 -289 -20
-50 -23 -74 -23 -202 0 -108 5 -162 18 -210 23 -85 75 -194 120 -250 20 -25
33 -48 29 -51 -4 -4 -25 -12 -47 -19 -200 -62 -376 -248 -456 -483 -34 -102
-72 -317 -73 -417 0 -127 61 -224 179 -280 76 -36 235 -75 375 -91 122 -14
433 -17 605 -6 l120 8 34 -68 c31 -60 85 -119 465 -501 237 -239 443 -440 458
-448 15 -8 35 -14 45 -14 28 0 864 841 924 928 27 41 49 80 49 88 0 13 18 14
118 7 305 -21 656 1 847 51 169 45 243 93 292 190 37 72 39 137 9 316 -41 253
-106 404 -228 535 -96 103 -190 161 -326 201 -8 2 0 19 23 50 85 111 128 227
145 385 13 131 0 221 -45 317 -94 199 -300 309 -524 281z m233 -173 c72 -36
147 -117 176 -191 46 -117 25 -321 -47 -457 -66 -126 -166 -192 -288 -192
-197 1 -332 172 -360 456 -25 254 168 449 413 416 30 -3 77 -18 106 -32z
m-2774 15 c137 -52 225 -170 237 -321 7 -86 -19 -233 -56 -315 -75 -164 -231
-251 -377 -210 -118 33 -211 134 -257 280 -18 57 -22 94 -22 200 0 116 3 135
23 176 46 92 122 160 220 195 56 20 173 17 232 -5z m1405 -18 c143 -73 217
-216 200 -387 -19 -209 -102 -359 -233 -423 -76 -37 -173 -38 -247 -3 -144 69
-234 245 -237 461 -1 114 15 172 70 244 75 100 177 147 307 142 66 -3 91 -9
140 -34z m-1228 -997 c106 -28 208 -93 272 -174 l32 -41 -22 -43 c-30 -58 -57
-140 -75 -221 -10 -49 -24 -81 -48 -110 -74 -92 -116 -214 -116 -340 l0 -74
-52 -7 c-291 -35 -749 -2 -922 65 -65 26 -113 72 -127 122 -14 52 22 290 62
412 70 210 215 362 392 410 74 20 530 20 604 1z m1369 0 c164 -44 294 -167
379 -360 23 -51 24 -57 8 -51 -53 23 -157 44 -223 44 -150 1 -288 -53 -402
-159 l-63 -57 -67 62 c-120 111 -260 161 -423 152 -53 -3 -114 -14 -147 -26
-38 -13 -58 -16 -58 -9 0 6 18 49 41 95 72 151 207 269 350 307 75 20 531 22
605 2z m1369 0 c145 -38 270 -144 348 -295 48 -92 72 -175 98 -344 26 -166 21
-203 -30 -255 -41 -40 -158 -77 -332 -103 -115 -17 -192 -22 -379 -23 -129 0
-260 3 -291 7 l-56 8 -1 85 c-2 109 -40 226 -105 316 -36 51 -50 83 -66 151
-11 48 -34 119 -51 158 -16 39 -30 77 -30 84 0 20 104 121 157 152 26 15 77
38 113 50 60 21 83 22 320 23 182 0 269 -4 305 -14z m-2022 -521 c89 -23 135
-51 222 -135 91 -88 116 -104 148 -94 12 4 62 45 110 91 98 94 160 128 263
146 158 27 328 -48 424 -189 78 -112 92 -285 35 -414 -26 -60 -61 -98 -439
-478 l-411 -412 -378 377 c-209 208 -399 404 -423 437 -124 165 -109 397 35
549 109 115 265 161 414 122z"/>
<path d="M2800 2970 c-18 -18 -20 -33 -20 -160 l0 -140 -130 0 c-143 0 -173
-8 -191 -52 -10 -25 -9 -33 8 -56 20 -27 22 -27 164 -32 l144 -5 5 -144 c5
-142 5 -144 32 -164 23 -17 31 -18 56 -8 44 18 52 48 52 191 l0 130 140 0
c130 0 141 1 160 22 25 27 26 59 1 89 -18 23 -26 24 -159 27 l-141 3 -3 141
c-3 133 -4 141 -27 159 -30 25 -66 24 -91 -1z"/>
<path d="M1305 1975 c-49 -13 -199 -60 -333 -103 l-242 -79 -16 53 c-26 92
-76 134 -156 134 -49 -1 -454 -118 -492 -144 -14 -9 -33 -27 -42 -41 -38 -58
-37 -63 190 -840 119 -407 224 -757 233 -778 9 -21 30 -48 46 -59 56 -40 103
-36 332 32 116 34 223 69 240 79 71 41 91 114 58 218 -20 64 -20 64 73 87 l61
16 384 -141 c439 -161 536 -189 653 -189 139 0 33 -50 1511 708 425 217 463
239 515 298 46 53 60 93 60 173 0 173 -119 316 -273 328 -60 5 -79 -1 -687
-215 l-625 -220 -11 37 c-30 97 -107 201 -175 236 -104 54 -912 408 -959 420
-89 23 -237 19 -345 -10z m345 -138 c36 -12 251 -106 479 -207 458 -204 472
-213 511 -316 51 -136 8 -280 -98 -326 -75 -34 -123 -23 -453 101 -162 61
-307 111 -322 111 -28 0 -67 -41 -67 -70 0 -40 39 -61 320 -166 157 -58 310
-113 340 -121 74 -20 181 -12 246 18 92 44 171 147 189 249 l6 36 635 223
c674 237 671 236 728 194 44 -33 69 -81 74 -140 6 -72 -13 -108 -76 -150 -60
-39 -1690 -872 -1751 -895 -61 -23 -170 -23 -257 0 -38 10 -250 85 -472 165
-221 81 -410 147 -420 147 -9 0 -56 -10 -104 -22 -48 -12 -89 -20 -92 -18 -2
3 -68 223 -146 490 -77 267 -143 493 -146 502 -4 14 37 30 248 99 340 110 368
117 473 118 69 0 105 -5 155 -22z m-1071 -29 c59 -188 421 -1444 418 -1453 -3
-6 -93 -37 -201 -68 -184 -54 -226 -63 -226 -52 0 2 -97 336 -215 741 -119
405 -213 739 -210 743 9 9 376 118 402 120 16 1 24 -7 32 -31z"/>
</g>
</svg>
