<?xml version="1.0" encoding="utf-8" ?>
<svg baseProfile="tiny" height="100%" version="1.2" width="100%" viewBox="120 0 330 300" xmlns="http://www.w3.org/2000/svg" xmlns:ev="http://www.w3.org/2001/xml-events" xmlns:xlink="http://www.w3.org/1999/xlink"><defs /><polyline fill="none" points="325.5,0.0 326.0,0.5 327.0,0.5 328.0,0.5 329.0,0.5 329.5,1.0 330.0,1.5 331.0,1.5 332.0,1.5 333.0,1.5 333.5,2.0 334.0,2.5 335.0,2.5 336.0,2.5 336.5,3.0 337.0,3.5 338.0,3.5 339.0,3.5 339.5,4.0 340.0,4.5 341.0,4.5 342.0,4.5 342.5,5.0 343.0,5.5 344.0,5.5 344.5,6.0 345.0,6.5 346.0,6.5 346.5,7.0 347.0,7.5 347.5,8.0 348.0,8.5 349.0,8.5 349.5,9.0 350.0,9.5 350.5,10.0 351.0,10.5 351.5,11.0 352.0,11.5 352.5,12.0 353.0,12.5 353.5,13.0 354.0,13.5 354.5,14.0 355.0,14.5 355.5,15.0 355.5,16.0 356.0,16.5 356.5,17.0 357.0,17.5 357.5,18.0 358.0,18.5 358.5,19.0 358.5,20.0 359.0,20.5 359.5,21.0 359.5,22.0 360.0,22.5 360.5,23.0 360.5,24.0 360.5,25.0 360.5,26.0 361.0,26.5 362.0,26.5 363.0,26.5 364.0,26.5 365.0,26.5 366.0,26.5 367.0,26.5 368.0,26.5 369.0,26.5 370.0,26.5 370.5,27.0 371.0,27.5 372.0,27.5 373.0,27.5 374.0,27.5 375.0,27.5 375.5,28.0 376.0,28.5 377.0,28.5 378.0,28.5 378.5,29.0 379.0,29.5 380.0,29.5 381.0,29.5 381.5,30.0 382.0,30.5 383.0,30.5 383.5,31.0 384.0,31.5 385.0,31.5 385.5,32.0 386.0,32.5 387.0,32.5 387.5,33.0 388.0,33.5 389.0,33.5 389.5,34.0 390.0,34.5 391.0,34.5 391.5,35.0 392.0,35.5 392.5,36.0 393.0,36.5 393.5,37.0 394.0,37.5 395.0,37.5 395.5,38.0 396.0,38.5 396.5,39.0 397.0,39.5 397.5,40.0 398.0,40.5 399.0,40.5 399.5,41.0 400.0,41.5 400.5,42.0 401.0,42.5 401.5,43.0 402.0,43.5 402.5,44.0 403.0,44.5 403.5,45.0 404.0,45.5 404.5,46.0 404.5,47.0 405.0,47.5 405.5,48.0 406.0,48.5 406.5,49.0 407.0,49.5 407.5,50.0 407.5,51.0 408.0,51.5 408.5,52.0 409.0,52.5 409.5,53.0 409.5,54.0 410.0,54.5 410.5,55.0 410.5,56.0 411.0,56.5 411.5,57.0 411.5,58.0 412.0,58.5 412.5,59.0 412.5,60.0 412.5,61.0 413.0,61.5 413.5,62.0 413.5,63.0 414.0,63.5 414.5,64.0 414.5,65.0 414.5,66.0 414.5,67.0 415.0,67.5 415.5,68.0 415.5,69.0 415.5,70.0 415.5,71.0 415.5,72.0 415.5,73.0 416.0,73.5 416.5,74.0 416.5,75.0 416.5,76.0 416.5,77.0 416.5,78.0 416.5,79.0 416.5,80.0 416.5,81.0 416.5,82.0 416.5,83.0 416.5,84.0 416.5,85.0 416.5,86.0 416.5,87.0 416.5,88.0 416.5,89.0 416.5,90.0 416.5,91.0 416.5,92.0 416.5,93.0 417.0,93.5 418.0,93.5 418.5,94.0 419.0,94.5 420.0,94.5 420.5,95.0 421.0,95.5 422.0,95.5 422.5,96.0 423.0,96.5 424.0,96.5 424.5,97.0 425.0,97.5 425.5,98.0 426.0,98.5 427.0,98.5 427.5,99.0 428.0,99.5 428.5,100.0 429.0,100.5 429.5,101.0 430.0,101.5 431.0,101.5 431.5,102.0 432.0,102.5 432.5,103.0 433.0,103.5 433.5,104.0 434.0,104.5 434.5,105.0 435.0,105.5 435.5,106.0 436.0,106.5 436.5,107.0 436.5,108.0 437.0,108.5 437.5,109.0 438.0,109.5 438.5,110.0 439.0,110.5 439.5,111.0 439.5,112.0 440.0,112.5 440.5,113.0 441.0,113.5 441.5,114.0 441.5,115.0 442.0,115.5 442.5,116.0 443.0,116.5 443.5,117.0 443.5,118.0 444.0,118.5 444.5,119.0 444.5,120.0 445.0,120.5 445.5,121.0 446.0,121.5 446.5,122.0 446.5,123.0 447.0,123.5 447.5,124.0 447.5,125.0 447.5,126.0 448.0,126.5 448.5,127.0 448.5,128.0 448.5,129.0 448.5,130.0 448.5,131.0 448.5,132.0 448.5,133.0 448.5,134.0 448.5,135.0 448.0,135.5 447.5,136.0 447.0,136.5 446.5,137.0 446.0,137.5 445.5,138.0 445.0,138.5 444.5,139.0 444.0,139.5 443.0,139.5 442.5,140.0 442.0,140.5 441.0,140.5 440.0,140.5 439.5,140.0 439.0,139.5 438.0,139.5 437.5,139.0 437.0,138.5 436.5,138.0 436.0,137.5 435.5,137.0 435.0,136.5 434.5,136.0 434.0,135.5 433.5,135.0 433.5,134.0 433.0,133.5 432.5,133.0 432.5,132.0 432.0,131.5 431.5,131.0 431.5,130.0 431.0,129.5 430.5,129.0 430.5,128.0 430.0,127.5 429.5,127.0 429.5,126.0 429.0,125.5 428.5,125.0 428.5,124.0 428.0,123.5 427.5,123.0 427.0,122.5 426.5,122.0 426.0,121.5 425.5,121.0 425.5,120.0 425.0,119.5 424.5,119.0 424.0,118.5 423.5,118.0 423.0,117.5 422.5,117.0 422.0,116.5 421.5,116.0 421.0,115.5 420.5,115.0 420.0,114.5 419.5,114.0 419.0,113.5 418.0,113.5 417.5,113.0 417.0,112.5 416.5,112.0 416.0,111.5 415.5,111.0 415.0,110.5 414.0,110.5 413.5,110.0 413.0,109.5 412.5,109.0 412.0,108.5 411.0,108.5 410.5,108.0 410.0,107.5 409.0,107.5 408.5,107.0 408.0,106.5 407.0,106.5 406.5,106.0 406.0,105.5 405.0,105.5 404.5,105.0 404.0,104.5 403.0,104.5 402.0,104.5 401.5,104.0 401.0,103.5 400.0,103.5 399.0,103.5 398.0,103.5 397.5,103.0 397.0,102.5 396.0,102.5 395.0,102.5 394.0,102.5 393.5,102.0 393.0,101.5 392.0,101.5 391.0,101.5 390.0,101.5 389.0,101.5 388.0,101.5 387.0,101.5 386.0,101.5 385.5,101.0 385.0,100.5 384.5,101.0 384.5,102.0 384.5,103.0 384.5,104.0 384.5,105.0 384.5,106.0 384.5,107.0 385.0,107.5 385.5,108.0 385.5,109.0 385.5,110.0 385.5,111.0 385.5,112.0 385.5,113.0 385.5,114.0 385.5,115.0 385.0,115.5 384.5,116.0 384.5,117.0 384.5,118.0 384.0,118.5 383.5,119.0 383.5,120.0 383.0,120.5 382.0,120.5 381.5,121.0 381.0,121.5 380.0,121.5 379.5,122.0 379.0,122.5 378.0,122.5 377.0,122.5 376.0,122.5 375.0,122.5 374.5,122.0 374.0,121.5 373.0,121.5 372.5,121.0 372.0,120.5 371.5,120.0 371.0,119.5 370.5,119.0 370.5,118.0 370.0,117.5 369.5,117.0 369.5,116.0 369.5,115.0 369.0,114.5 368.5,114.0 368.5,113.0 368.5,112.0 368.5,111.0 368.5,110.0 368.5,109.0 368.5,108.0 368.5,107.0 368.5,106.0 368.0,105.5 367.5,105.0 367.5,104.0 367.5,103.0 367.0,102.5 366.5,102.0 366.5,101.0 366.0,100.5 365.5,100.0 365.0,99.5 364.5,99.0 364.0,98.5 363.5,98.0 363.0,97.5 362.5,97.0 362.0,96.5 361.5,96.0 361.0,95.5 360.0,95.5 359.5,95.0 359.0,94.5 358.5,94.0 358.0,93.5 357.0,93.5 356.5,93.0 356.0,92.5 355.0,92.5 354.5,92.0 354.0,91.5 353.0,91.5 352.0,91.5 351.5,91.0 351.0,90.5 350.5,90.0 350.0,89.5 349.5,89.0 349.5,88.0 349.5,87.0 349.0,86.5 348.5,86.0 348.5,85.0 348.5,84.0 348.5,83.0 349.0,82.5 349.5,82.0 349.5,81.0 349.5,80.0 349.5,79.0 350.0,78.5 350.5,78.0 351.0,77.5 352.0,77.5 353.0,77.5 353.5,77.0 354.0,76.5 355.0,76.5 356.0,76.5 357.0,76.5 358.0,76.5 359.0,76.5 359.5,77.0 360.0,77.5 361.0,77.5 362.0,77.5 362.5,78.0 363.0,78.5 364.0,78.5 364.5,79.0 365.0,79.5 366.0,79.5 366.5,80.0 367.0,80.5 368.0,80.5 368.5,81.0 369.0,81.5 369.5,82.0 370.0,82.5 371.0,82.5 371.5,83.0 372.0,83.5 372.5,84.0 373.0,84.5 374.0,84.5 375.0,84.5 375.5,85.0 376.0,85.5 377.0,85.5 378.0,85.5 379.0,85.5 380.0,85.5 381.0,85.5 382.0,85.5 383.0,85.5 384.0,85.5 385.0,85.5 386.0,85.5 387.0,85.5 388.0,85.5 389.0,85.5 390.0,85.5 391.0,85.5 392.0,85.5 393.0,85.5 394.0,85.5 395.0,85.5 396.0,85.5 396.5,86.0 397.0,86.5 398.0,86.5 399.0,86.5 400.0,86.5 400.5,87.0 401.0,87.5 401.5,87.0 401.5,86.0 401.5,85.0 401.0,84.5 400.5,84.0 400.5,83.0 400.5,82.0 400.5,81.0 400.5,80.0 400.5,79.0 400.5,78.0 400.5,77.0 400.5,76.0 400.0,75.5 399.5,75.0 399.5,74.0 399.5,73.0 399.5,72.0 399.0,71.5 398.5,71.0 398.5,70.0 398.5,69.0 398.5,68.0 398.0,67.5 397.5,67.0 397.5,66.0 397.0,65.5 396.5,65.0 396.5,64.0 396.0,63.5 395.5,63.0 395.5,62.0 395.0,61.5 394.5,61.0 394.5,60.0 394.0,59.5 393.5,59.0 393.0,58.5 392.5,58.0 392.5,57.0 392.0,56.5 391.5,56.0 391.0,55.5 390.5,55.0 390.0,54.5 389.5,54.0 389.0,53.5 388.5,53.0 388.0,52.5 387.5,52.0 387.0,51.5 386.5,51.0 386.0,50.5 385.0,50.5 384.5,50.0 384.0,49.5 383.5,49.0 383.0,48.5 382.0,48.5 381.5,48.0 381.0,47.5 380.0,47.5 379.5,47.0 379.0,46.5 378.0,46.5 377.5,46.0 377.0,45.5 376.0,45.5 375.0,45.5 374.5,45.0 374.0,44.5 373.0,44.5 372.0,44.5 371.5,44.0 371.0,43.5 370.0,43.5 369.0,43.5 368.5,43.0 368.0,42.5 367.0,42.5 366.0,42.5 365.0,42.5 364.0,42.5 363.5,42.0 363.0,41.5 362.5,42.0 362.5,43.0 362.5,44.0 362.5,45.0 362.5,46.0 362.5,47.0 362.5,48.0 362.5,49.0 362.0,49.5 361.5,50.0 361.5,51.0 361.5,52.0 361.5,53.0 361.0,53.5 360.5,54.0 360.5,55.0 360.0,55.5 359.5,56.0 359.5,57.0 359.0,57.5 358.5,58.0 358.0,58.5 357.5,59.0 357.5,60.0 357.0,60.5 356.5,61.0 356.0,61.5 355.0,61.5 354.5,62.0 354.0,62.5 353.0,62.5 352.0,62.5 351.0,62.5 350.0,62.5 349.5,62.0 349.0,61.5 348.0,61.5 347.5,61.0 347.0,60.5 346.5,60.0 346.0,59.5 345.5,59.0 345.0,58.5 344.5,58.0 344.5,57.0 344.5,56.0 344.5,55.0 344.5,54.0 344.5,53.0 344.5,52.0 344.5,51.0 344.5,50.0 345.0,49.5 345.5,49.0 345.5,48.0 345.5,47.0 346.0,46.5 346.5,46.0 346.5,45.0 346.5,44.0 346.5,43.0 346.5,42.0 346.5,41.0 346.5,40.0 346.5,39.0 346.5,38.0 346.5,37.0 346.5,36.0 346.5,35.0 346.5,34.0 346.0,33.5 345.5,33.0 345.5,32.0 345.5,31.0 345.0,30.5 344.5,30.0 344.5,29.0 344.0,28.5 343.5,28.0 343.5,27.0 343.0,26.5 342.5,26.0 342.0,25.5 341.5,25.0 341.0,24.5 340.5,24.0 340.0,23.5 339.5,23.0 339.0,22.5 338.5,22.0 338.0,21.5 337.0,21.5 336.5,21.0 336.0,20.5 335.5,20.0 335.0,19.5 334.5,19.0 334.0,18.5 333.0,18.5 332.5,18.0 332.0,17.5 331.0,17.5 330.0,17.5 329.5,17.0 329.0,16.5 328.0,16.5 327.0,16.5 326.0,16.5 325.5,16.0 325.0,15.5 324.0,15.5 323.0,15.5 322.0,15.5 321.0,15.5 320.0,15.5 319.0,15.5 318.0,15.5 317.0,15.5 316.5,16.0 316.0,16.5 315.0,16.5 314.0,16.5 313.0,16.5 312.5,17.0 312.0,17.5 311.0,17.5 310.0,17.5 309.5,18.0 309.0,18.5 308.0,18.5 307.5,19.0 307.0,19.5 306.0,19.5 305.5,20.0 305.0,20.5 304.5,21.0 304.0,21.5 303.5,22.0 303.0,22.5 302.5,23.0 302.0,23.5 301.5,24.0 301.0,24.5 300.5,25.0 300.5,26.0 300.0,26.5 299.5,27.0 299.0,27.5 298.5,28.0 298.5,29.0 298.0,29.5 297.5,30.0 297.5,31.0 297.5,32.0 297.0,32.5 296.5,33.0 296.5,34.0 296.5,35.0 296.5,36.0 296.0,36.5 295.5,37.0 295.5,38.0 295.5,39.0 295.5,40.0 295.5,41.0 295.5,42.0 295.5,43.0 295.5,44.0 295.5,45.0 295.5,46.0 295.5,47.0 295.5,48.0 295.5,49.0 295.5,50.0 295.5,51.0 295.5,52.0 295.5,53.0 295.5,54.0 295.5,55.0 295.5,56.0 295.5,57.0 295.5,58.0 295.5,59.0 295.5,60.0 295.5,61.0 295.5,62.0 295.5,63.0 295.5,64.0 295.5,65.0 295.5,66.0 295.5,67.0 295.5,68.0 295.5,69.0 295.5,70.0 295.5,71.0 295.5,72.0 295.5,73.0 295.5,74.0 295.5,75.0 295.5,76.0 295.5,77.0 295.5,78.0 295.5,79.0 295.5,80.0 295.5,81.0 295.5,82.0 295.5,83.0 295.5,84.0 295.5,85.0 295.5,86.0 295.5,87.0 295.5,88.0 295.5,89.0 295.5,90.0 295.5,91.0 295.5,92.0 295.5,93.0 295.5,94.0 295.5,95.0 295.5,96.0 295.5,97.0 295.5,98.0 295.5,99.0 295.5,100.0 295.5,101.0 295.5,102.0 295.5,103.0 295.5,104.0 295.5,105.0 295.5,106.0 295.5,107.0 295.5,108.0 295.5,109.0 295.5,110.0 295.5,111.0 295.5,112.0 295.5,113.0 295.5,114.0 295.5,115.0 295.5,116.0 295.5,117.0 295.5,118.0 295.5,119.0 295.5,120.0 295.5,121.0 295.5,122.0 295.5,123.0 295.5,124.0 295.5,125.0 295.5,126.0 295.5,127.0 295.5,128.0 295.5,129.0 295.5,130.0 295.5,131.0 295.5,132.0 295.5,133.0 295.5,134.0 295.5,135.0 295.5,136.0 295.5,137.0 295.5,138.0 295.5,139.0 295.5,140.0 295.5,141.0 295.5,142.0 295.5,143.0 295.5,144.0 295.5,145.0 295.5,146.0 295.5,147.0 295.5,148.0 295.5,149.0 295.5,150.0 295.5,151.0 295.5,152.0 295.5,153.0 295.5,154.0 295.5,155.0 295.5,156.0 295.5,157.0 295.5,158.0 295.5,159.0 295.5,160.0 295.5,161.0 295.5,162.0 295.5,163.0 295.5,164.0 295.5,165.0 295.5,166.0 295.5,167.0 295.5,168.0 295.5,169.0 295.5,170.0 295.5,171.0 295.5,172.0 295.5,173.0 295.5,174.0 295.5,175.0 295.5,176.0 295.5,177.0 295.5,178.0 295.5,179.0 295.5,180.0 295.5,181.0 295.5,182.0 295.5,183.0 295.5,184.0 295.5,185.0 295.5,186.0 295.5,187.0 295.5,188.0 295.5,189.0 295.5,190.0 295.5,191.0 295.5,192.0 295.5,193.0 295.5,194.0 295.5,195.0 295.5,196.0 295.5,197.0 295.5,198.0 295.5,199.0 295.5,200.0 295.5,201.0 295.5,202.0 295.5,203.0 295.5,204.0 295.5,205.0 295.5,206.0 295.5,207.0 295.5,208.0 295.5,209.0 295.5,210.0 295.5,211.0 295.5,212.0 295.5,213.0 295.5,214.0 295.5,215.0 295.5,216.0 295.5,217.0 295.5,218.0 295.5,219.0 295.5,220.0 295.5,221.0 295.5,222.0 295.5,223.0 295.5,224.0 295.5,225.0 295.5,226.0 295.5,227.0 295.5,228.0 295.5,229.0 295.5,230.0 295.5,231.0 295.5,232.0 295.5,233.0 295.5,234.0 295.5,235.0 295.5,236.0 295.5,237.0 295.5,238.0 295.5,239.0 295.5,240.0 295.5,241.0 295.5,242.0 295.5,243.0 295.5,244.0 295.5,245.0 295.5,246.0 295.5,247.0 295.5,248.0 295.5,249.0 295.5,250.0 295.5,251.0 295.5,252.0 295.5,253.0 295.5,254.0 295.5,255.0 295.5,256.0 295.5,257.0 295.5,258.0 295.5,259.0 295.5,260.0 295.5,261.0 295.5,262.0 295.5,263.0 296.0,263.5 296.5,264.0 296.5,265.0 296.5,266.0 297.0,266.5 297.5,267.0 297.5,268.0 298.0,268.5 298.5,269.0 298.5,270.0 299.0,270.5 299.5,271.0 299.5,272.0 300.0,272.5 300.5,273.0 301.0,273.5 301.5,274.0 302.0,274.5 302.5,275.0 303.0,275.5 303.5,276.0 304.0,276.5 304.5,277.0 305.0,277.5 305.5,278.0 306.0,278.5 307.0,278.5 307.5,279.0 308.0,279.5 309.0,279.5 309.5,280.0 310.0,280.5 311.0,280.5 311.5,281.0 312.0,281.5 313.0,281.5 314.0,281.5 315.0,281.5 316.0,281.5 316.5,282.0 317.0,282.5 318.0,282.5 319.0,282.5 320.0,282.5 321.0,282.5 322.0,282.5 323.0,282.5 324.0,282.5 325.0,282.5 326.0,282.5 327.0,282.5 327.5,282.0 328.0,281.5 329.0,281.5 330.0,281.5 331.0,281.5 331.5,281.0 332.0,280.5 333.0,280.5 333.5,280.0 334.0,279.5 335.0,279.5 335.5,279.0 336.0,278.5 337.0,278.5 337.5,278.0 338.0,277.5 338.5,277.0 339.0,276.5 339.5,276.0 340.0,275.5 340.5,275.0 341.0,274.5 341.5,274.0 341.5,273.0 342.0,272.5 342.5,272.0 343.0,271.5 343.5,271.0 343.5,270.0 344.0,269.5 344.5,269.0 344.5,268.0 345.0,267.5 345.5,267.0 345.5,266.0 345.5,265.0 345.5,264.0 346.0,263.5 346.5,263.0 346.5,262.0 346.5,261.0 346.5,260.0 346.5,259.0 346.5,258.0 346.5,257.0 346.5,256.0 346.5,255.0 346.5,254.0 346.5,253.0 346.5,252.0 346.0,251.5 345.5,251.0 345.5,250.0 345.5,249.0 345.0,248.5 344.5,248.0 344.5,247.0 344.5,246.0 344.5,245.0 344.5,244.0 344.5,243.0 344.5,242.0 344.5,241.0 345.0,240.5 345.5,240.0 345.5,239.0 346.0,238.5 346.5,238.0 347.0,237.5 347.5,237.0 348.0,236.5 349.0,236.5 350.0,236.5 351.0,236.5 352.0,236.5 353.0,236.5 354.0,236.5 355.0,236.5 355.5,237.0 356.0,237.5 357.0,237.5 357.5,238.0 358.0,238.5 358.5,239.0 358.5,240.0 359.0,240.5 359.5,241.0 359.5,242.0 360.0,242.5 360.5,243.0 360.5,244.0 361.0,244.5 361.5,245.0 361.5,246.0 361.5,247.0 362.0,247.5 362.5,248.0 362.5,249.0 362.5,250.0 362.5,251.0 362.5,252.0 362.5,253.0 362.5,254.0 362.5,255.0 362.5,256.0 363.0,256.5 363.5,256.0 364.0,255.5 365.0,255.5 366.0,255.5 367.0,255.5 367.5,255.0 368.0,254.5 369.0,254.5 370.0,254.5 371.0,254.5 371.5,254.0 372.0,253.5 373.0,253.5 374.0,253.5 374.5,253.0 375.0,252.5 376.0,252.5 377.0,252.5 377.5,252.0 378.0,251.5 379.0,251.5 379.5,251.0 380.0,250.5 381.0,250.5 381.5,250.0 382.0,249.5 383.0,249.5 383.5,249.0 384.0,248.5 384.5,248.0 385.0,247.5 386.0,247.5 386.5,247.0 387.0,246.5 387.5,246.0 388.0,245.5 388.5,245.0 389.0,244.5 389.5,244.0 390.0,243.5 390.5,243.0 391.0,242.5 391.5,242.0 392.0,241.5 392.5,241.0 393.0,240.5 393.5,240.0 393.5,239.0 394.0,238.5 394.5,238.0 395.0,237.5 395.5,237.0 395.5,236.0 396.0,235.5 396.5,235.0 396.5,234.0 396.5,233.0 397.0,232.5 397.5,232.0 397.5,231.0 398.0,230.5 398.5,230.0 398.5,229.0 398.5,228.0 399.0,227.5 399.5,227.0 399.5,226.0 399.5,225.0 399.5,224.0 399.5,223.0 399.5,222.0 400.0,221.5 400.5,221.0 400.5,220.0 400.5,219.0 400.5,218.0 400.5,217.0 400.5,216.0 400.5,215.0 400.5,214.0 400.5,213.0 400.5,212.0 400.0,211.5 399.5,212.0 399.0,212.5 398.0,212.5 397.0,212.5 396.0,212.5 395.0,212.5 394.0,212.5 393.0,212.5 392.0,212.5 391.0,212.5 390.0,212.5 389.0,212.5 388.0,212.5 387.0,212.5 386.0,212.5 385.0,212.5 384.0,212.5 383.0,212.5 382.5,213.0 382.0,213.5 381.0,213.5 380.0,213.5 379.0,213.5 378.0,213.5 377.0,213.5 376.0,213.5 375.0,213.5 374.5,214.0 374.0,214.5 373.0,214.5 372.5,215.0 372.0,215.5 371.0,215.5 370.5,216.0 370.0,216.5 369.0,216.5 368.5,217.0 368.0,217.5 367.0,217.5 366.5,218.0 366.0,218.5 365.5,219.0 365.0,219.5 364.0,219.5 363.5,220.0 363.0,220.5 362.0,220.5 361.5,221.0 361.0,221.5 360.0,221.5 359.0,221.5 358.0,221.5 357.0,221.5 356.5,222.0 356.0,222.5 355.0,222.5 354.5,222.0 354.0,221.5 353.0,221.5 352.5,221.0 352.0,220.5 351.5,220.0 351.0,219.5 350.5,219.0 350.0,218.5 349.5,218.0 349.5,217.0 349.0,216.5 348.5,216.0 348.5,215.0 348.5,214.0 348.5,213.0 349.0,212.5 349.5,212.0 349.5,211.0 349.5,210.0 350.0,209.5 350.5,209.0 350.5,208.0 351.0,207.5 352.0,207.5 352.5,207.0 353.0,206.5 354.0,206.5 354.5,206.0 355.0,205.5 356.0,205.5 356.5,205.0 357.0,204.5 358.0,204.5 358.5,204.0 359.0,203.5 360.0,203.5 360.5,203.0 361.0,202.5 361.5,202.0 362.0,201.5 363.0,201.5 363.5,201.0 364.0,200.5 364.5,200.0 364.5,199.0 365.0,198.5 365.5,198.0 366.0,197.5 366.5,197.0 366.5,196.0 367.0,195.5 367.5,195.0 367.5,194.0 367.5,193.0 368.0,192.5 368.5,192.0 368.5,191.0 368.5,190.0 368.5,189.0 368.5,188.0 368.5,187.0 368.5,186.0 368.5,185.0 368.5,184.0 369.0,183.5 369.5,183.0 369.5,182.0 369.5,181.0 370.0,180.5 370.5,180.0 370.5,179.0 371.0,178.5 371.5,178.0 372.0,177.5 373.0,177.5 373.5,177.0 374.0,176.5 375.0,176.5 376.0,176.5 377.0,176.5 378.0,176.5 379.0,176.5 380.0,176.5 380.5,177.0 381.0,177.5 382.0,177.5 382.5,178.0 383.0,178.5 383.5,179.0 384.0,179.5 384.5,180.0 384.5,181.0 384.5,182.0 385.0,182.5 385.5,183.0 385.5,184.0 385.5,185.0 385.5,186.0 385.5,187.0 385.5,188.0 385.5,189.0 385.5,190.0 385.0,190.5 384.5,191.0 384.5,192.0 384.5,193.0 384.5,194.0 384.5,195.0 384.5,196.0 384.0,196.5 383.5,197.0 384.0,197.5 384.5,197.0 385.0,196.5 386.0,196.5 387.0,196.5 388.0,196.5 389.0,196.5 390.0,196.5 390.5,196.0 391.0,195.5 392.0,195.5 393.0,195.5 394.0,195.5 395.0,195.5 395.5,195.0 396.0,194.5 397.0,194.5 398.0,194.5 399.0,194.5 399.5,194.0 400.0,193.5 401.0,193.5 402.0,193.5 403.0,193.5 403.5,193.0 404.0,192.5 405.0,192.5 406.0,192.5 406.5,192.0 407.0,191.5 408.0,191.5 408.5,191.0 409.0,190.5 410.0,190.5 410.5,190.0 411.0,189.5 412.0,189.5 412.5,189.0 413.0,188.5 414.0,188.5 414.5,188.0 415.0,187.5 416.0,187.5 416.5,187.0 417.0,186.5 417.5,186.0 418.0,185.5 418.5,185.0 419.0,184.5 420.0,184.5 420.5,184.0 421.0,183.5 421.5,183.0 422.0,182.5 422.5,182.0 423.0,181.5 423.5,181.0 424.0,180.5 424.5,180.0 425.0,179.5 425.5,179.0 425.5,178.0 426.0,177.5 426.5,177.0 427.0,176.5 427.5,176.0 427.5,175.0 428.0,174.5 428.5,174.0 429.0,173.5 429.5,173.0 429.5,172.0 430.0,171.5 430.5,171.0 430.5,170.0 431.0,169.5 431.5,169.0 431.5,168.0 432.0,167.5 432.5,167.0 432.5,166.0 433.0,165.5 433.5,165.0 433.5,164.0 434.0,163.5 434.5,163.0 434.5,162.0 435.0,161.5 435.5,161.0 436.0,160.5 436.5,160.0 437.0,159.5 438.0,159.5 438.5,159.0 439.0,158.5 440.0,158.5 441.0,158.5 442.0,158.5 442.5,159.0 443.0,159.5 444.0,159.5 445.0,159.5 445.5,160.0 446.0,160.5 447.0,160.5 447.5,161.0 447.5,162.0 448.0,162.5 448.5,163.0 448.5,164.0 448.5,165.0 448.5,166.0 448.5,167.0 448.5,168.0 448.5,169.0 448.5,170.0 448.5,171.0 448.0,171.5 447.5,172.0 447.5,173.0 447.5,174.0 447.0,174.5 446.5,175.0 446.5,176.0 446.0,176.5 445.5,177.0 445.5,178.0 445.0,178.5 444.5,179.0 444.5,180.0 444.0,180.5 443.5,181.0 443.0,181.5 442.5,182.0 442.5,183.0 442.0,183.5 441.5,184.0 441.5,185.0 441.0,185.5 440.5,186.0 440.0,186.5 439.5,187.0 439.0,187.5 438.5,188.0 438.0,188.5 437.5,189.0 437.0,189.5 436.5,190.0 436.0,190.5 435.5,191.0 435.0,191.5 434.5,192.0 434.5,193.0 434.0,193.5 433.5,194.0 433.0,194.5 432.0,194.5 431.5,195.0 431.0,195.5 430.5,196.0 430.0,196.5 429.5,197.0 429.0,197.5 428.5,198.0 428.0,198.5 427.5,199.0 427.0,199.5 426.0,199.5 425.5,200.0 425.0,200.5 424.5,201.0 424.0,201.5 423.5,202.0 423.0,202.5 422.0,202.5 421.5,203.0 421.0,203.5 420.5,204.0 420.0,204.5 419.5,205.0 419.0,205.5 418.0,205.5 417.5,206.0 417.5,207.0 417.5,208.0 417.5,209.0 417.5,210.0 417.5,211.0 417.5,212.0 417.5,213.0 417.5,214.0 417.5,215.0 417.5,216.0 417.5,217.0 417.5,218.0 417.5,219.0 417.0,219.5 416.5,220.0 416.5,221.0 416.5,222.0 416.5,223.0 416.5,224.0 416.5,225.0 416.5,226.0 416.0,226.5 415.5,227.0 415.5,228.0 415.5,229.0 415.5,230.0 415.0,230.5 414.5,231.0 414.5,232.0 414.5,233.0 414.5,234.0 414.0,234.5 413.5,235.0 413.5,236.0 413.0,236.5 412.5,237.0 412.5,238.0 412.5,239.0 412.0,239.5 411.5,240.0 411.5,241.0 411.0,241.5 410.5,242.0 410.5,243.0 410.0,243.5 409.5,244.0 409.5,245.0 409.0,245.5 408.5,246.0 408.0,246.5 407.5,247.0 407.5,248.0 407.0,248.5 406.5,249.0 406.0,249.5 405.5,250.0 405.5,251.0 405.0,251.5 404.5,252.0 404.0,252.5 403.5,253.0 403.0,253.5 402.5,254.0 402.0,254.5 401.5,255.0 401.0,255.5 400.5,256.0 400.0,256.5 399.5,257.0 399.0,257.5 398.5,258.0 398.0,258.5 397.5,259.0 397.0,259.5 396.5,260.0 396.0,260.5 395.0,260.5 394.5,261.0 394.0,261.5 393.5,262.0 393.0,262.5 392.5,263.0 392.0,263.5 391.0,263.5 390.5,264.0 390.0,264.5 389.0,264.5 388.5,265.0 388.0,265.5 387.5,266.0 387.0,266.5 386.0,266.5 385.5,267.0 385.0,267.5 384.0,267.5 383.0,267.5 382.5,268.0 382.0,268.5 381.0,268.5 380.5,269.0 380.0,269.5 379.0,269.5 378.0,269.5 377.0,269.5 376.5,270.0 376.0,270.5 375.0,270.5 374.0,270.5 373.5,271.0 373.0,271.5 372.0,271.5 371.0,271.5 370.0,271.5 369.0,271.5 368.0,271.5 367.0,271.5 366.0,271.5 365.0,271.5 364.5,272.0 364.0,272.5 363.5,272.0 363.0,271.5 362.0,271.5 361.0,271.5 360.5,272.0 360.5,273.0 360.5,274.0 360.0,274.5 359.5,275.0 359.5,276.0 359.0,276.5 358.5,277.0 358.5,278.0 358.0,278.5 357.5,279.0 357.5,280.0 357.0,280.5 356.5,281.0 356.0,281.5 355.5,282.0 355.0,282.5 354.5,283.0 354.5,284.0 354.0,284.5 353.5,285.0 353.0,285.5 352.5,286.0 352.0,286.5 351.5,287.0 351.0,287.5 350.5,288.0 350.0,288.5 349.5,289.0 349.0,289.5 348.0,289.5 347.5,290.0 347.0,290.5 346.5,291.0 346.0,291.5 345.5,292.0 345.0,292.5 344.0,292.5 343.5,293.0 343.0,293.5 342.0,293.5 341.5,294.0 341.0,294.5 340.0,294.5 339.5,295.0 339.0,295.5 338.0,295.5 337.5,296.0 337.0,296.5 336.0,296.5 335.5,297.0 335.0,297.5 334.0,297.5 333.0,297.5 332.5,298.0 332.0,298.5 331.0,298.5 330.0,298.5 329.0,298.5 328.0,298.5 327.5,299.0 327.0,299.5 326.0,299.5 325.0,299.5 324.0,299.5 323.0,299.5 322.0,299.5 321.0,299.5 320.0,299.5 319.0,299.5 318.0,299.5 317.0,299.5 316.0,299.5 315.0,299.5 314.0,299.5 313.5,299.0 313.0,298.5 312.0,298.5 311.0,298.5 310.0,298.5 309.0,298.5 308.5,298.0 308.0,297.5 307.0,297.5 306.0,297.5 305.5,297.0 305.0,296.5 304.0,296.5 303.5,296.0 303.0,295.5 302.0,295.5 301.5,295.0 301.0,294.5 300.5,294.0 300.0,293.5 299.0,293.5 298.5,293.0 298.0,292.5 297.5,292.0 297.0,291.5 296.5,291.0 296.0,290.5 295.0,290.5 294.5,290.0 294.0,289.5 293.5,289.0 293.0,288.5 292.5,288.0 292.0,287.5 291.5,287.0 291.0,286.5 290.5,286.0 290.0,285.5 289.5,285.0 289.0,284.5 288.0,284.5 287.5,284.0 287.0,283.5 286.0,283.5 285.0,283.5 284.5,284.0 284.0,284.5 283.5,285.0 283.0,285.5 282.5,286.0 282.0,286.5 281.5,287.0 281.0,287.5 280.5,288.0 280.0,288.5 279.5,289.0 279.0,289.5 278.5,290.0 278.0,290.5 277.0,290.5 276.5,291.0 276.0,291.5 275.5,292.0 275.0,292.5 274.0,292.5 273.5,293.0 273.0,293.5 272.5,294.0 272.0,294.5 271.0,294.5 270.5,295.0 270.0,295.5 269.0,295.5 268.5,296.0 268.0,296.5 267.0,296.5 266.0,296.5 265.5,297.0 265.0,297.5 264.0,297.5 263.5,298.0 263.0,298.5 262.0,298.5 261.0,298.5 260.0,298.5 259.0,298.5 258.5,299.0 258.0,299.5 257.0,299.5 256.0,299.5 255.0,299.5 254.0,299.5 253.0,299.5 252.0,299.5 251.0,299.5 250.0,299.5 249.0,299.5 248.0,299.5 247.0,299.5 246.0,299.5 245.5,299.0 245.0,298.5 244.0,298.5 243.0,298.5 242.0,298.5 241.0,298.5 240.5,298.0 240.0,297.5 239.0,297.5 238.0,297.5 237.5,297.0 237.0,296.5 236.0,296.5 235.0,296.5 234.5,296.0 234.0,295.5 233.0,295.5 232.5,295.0 232.0,294.5 231.0,294.5 230.5,294.0 230.0,293.5 229.5,293.0 229.0,292.5 228.0,292.5 227.5,292.0 227.0,291.5 226.5,291.0 226.0,290.5 225.5,290.0 225.0,289.5 224.0,289.5 223.5,289.0 223.0,288.5 222.5,288.0 222.0,287.5 221.5,287.0 221.0,286.5 220.5,286.0 220.0,285.5 219.5,285.0 219.0,284.5 218.5,284.0 218.5,283.0 218.0,282.5 217.5,282.0 217.0,281.5 216.5,281.0 216.0,280.5 215.5,280.0 215.5,279.0 215.0,278.5 214.5,278.0 214.5,277.0 214.0,276.5 213.5,276.0 213.5,275.0 213.0,274.5 212.5,274.0 212.5,273.0 212.0,272.5 211.0,272.5 210.0,272.5 209.0,272.5 208.0,272.5 207.0,272.5 206.5,272.0 206.0,271.5 205.0,271.5 204.0,271.5 203.0,271.5 202.0,271.5 201.0,271.5 200.5,271.0 200.0,270.5 199.0,270.5 198.0,270.5 197.0,270.5 196.5,270.0 196.0,269.5 195.0,269.5 194.0,269.5 193.5,269.0 193.0,268.5 192.0,268.5 191.5,268.0 191.0,267.5 190.0,267.5 189.0,267.5 188.5,267.0 188.0,266.5 187.0,266.5 186.5,266.0 186.0,265.5 185.0,265.5 184.5,265.0 184.0,264.5 183.0,264.5 182.5,264.0 182.0,263.5 181.5,263.0 181.0,262.5 180.0,262.5 179.5,262.0 179.0,261.5 178.5,261.0 178.0,260.5 177.0,260.5 176.5,260.0 176.0,259.5 175.5,259.0 175.0,258.5 174.5,258.0 174.0,257.5 173.5,257.0 173.0,256.5 172.5,256.0 172.0,255.5 171.5,255.0 171.0,254.5 170.5,254.0 170.0,253.5 169.5,253.0 169.0,252.5 168.5,252.0 168.0,251.5 167.5,251.0 167.0,250.5 166.5,250.0 166.5,249.0 166.0,248.5 165.5,248.0 165.0,247.5 164.5,247.0 164.5,246.0 164.0,245.5 163.5,245.0 163.0,244.5 162.5,244.0 162.5,243.0 162.0,242.5 161.5,242.0 161.5,241.0 161.0,240.5 160.5,240.0 160.5,239.0 160.5,238.0 160.0,237.5 159.5,237.0 159.5,236.0 159.0,235.5 158.5,235.0 158.5,234.0 158.5,233.0 158.0,232.5 157.5,232.0 157.5,231.0 157.5,230.0 157.5,229.0 157.0,228.5 156.5,228.0 156.5,227.0 156.5,226.0 156.5,225.0 156.5,224.0 156.5,223.0 156.5,222.0 156.5,221.0 156.5,220.0 156.5,219.0 156.5,218.0 156.5,217.0 156.5,216.0 156.5,215.0 156.5,214.0 156.5,213.0 156.5,212.0 156.5,211.0 156.0,210.5 155.5,210.0 155.5,209.0 155.5,208.0 155.5,207.0 155.0,206.5 154.5,206.0 154.5,205.0 154.0,204.5 153.5,204.0 153.0,203.5 152.5,203.0 152.0,202.5 151.5,202.0 151.0,201.5 150.0,201.5 149.5,201.0 149.0,200.5 148.5,200.0 148.0,199.5 147.0,199.5 146.5,199.0 146.0,198.5 145.0,198.5 144.5,198.0 144.0,197.5 143.0,197.5 142.5,197.0 142.0,196.5 141.5,196.0 141.0,195.5 140.5,195.0 140.0,194.5 139.5,194.0 139.0,193.5 138.0,193.5 137.5,193.0 137.5,192.0 137.0,191.5 136.5,191.0 136.0,190.5 135.5,190.0 135.0,189.5 134.5,189.0 134.0,188.5 133.5,188.0 133.0,187.5 132.5,187.0 132.5,186.0 132.0,185.5 131.5,185.0 131.0,184.5 130.5,184.0 130.5,183.0 130.0,182.5 129.5,182.0 129.5,181.0 129.0,180.5 128.5,180.0 128.0,179.5 127.5,179.0 127.5,178.0 127.5,177.0 127.0,176.5 126.5,176.0 126.5,175.0 126.0,174.5 125.5,174.0 125.5,173.0 125.0,172.5 124.5,172.0 124.5,171.0 124.5,170.0 124.0,169.5 123.5,169.0 123.5,168.0 123.5,167.0 123.0,166.5 122.5,166.0 122.5,165.0 122.5,164.0 122.5,163.0 122.0,162.5 121.5,162.0 121.5,161.0 121.5,160.0 121.5,159.0 121.5,158.0 121.5,157.0 121.5,156.0 121.5,155.0 121.5,154.0 121.5,153.0 121.5,152.0 121.5,151.0 121.5,150.0 121.5,149.0 121.5,148.0 121.5,147.0 121.5,146.0 121.5,145.0 121.5,144.0 121.5,143.0 121.5,142.0 121.5,141.0 121.5,140.0 121.5,139.0 122.0,138.5 122.5,138.0 122.5,137.0 122.5,136.0 122.5,135.0 122.5,134.0 123.0,133.5 123.5,133.0 123.5,132.0 123.5,131.0 124.0,130.5 124.5,130.0 124.5,129.0 124.5,128.0 125.0,127.5 125.5,127.0 125.5,126.0 125.5,125.0 126.0,124.5 126.5,124.0 126.5,123.0 127.0,122.5 127.5,122.0 127.5,121.0 128.0,120.5 128.5,120.0 128.5,119.0 129.0,118.5 129.5,118.0 129.5,117.0 130.0,116.5 130.5,116.0 130.5,115.0 131.0,114.5 131.5,114.0 132.0,113.5 132.5,113.0 132.5,112.0 133.0,111.5 133.5,111.0 134.0,110.5 134.5,110.0 135.0,109.5 135.5,109.0 135.5,108.0 136.0,107.5 136.5,107.0 137.0,106.5 137.5,106.0 138.0,105.5 138.5,105.0 139.0,104.5 139.5,104.0 140.0,103.5 140.5,103.0 141.0,102.5 141.5,102.0 142.0,101.5 143.0,101.5 143.5,101.0 144.0,100.5 144.5,100.0 145.0,99.5 145.5,99.0 146.0,98.5 146.5,98.0 147.0,97.5 148.0,97.5 148.5,97.0 149.0,96.5 149.5,96.0 150.0,95.5 151.0,95.5 151.5,95.0 152.0,94.5 153.0,94.5 153.5,94.0 154.0,93.5 155.0,93.5 156.0,93.5 156.5,93.0 156.5,92.0 156.5,91.0 156.5,90.0 156.5,89.0 156.5,88.0 156.0,87.5 155.5,87.0 155.5,86.0 156.0,85.5 156.5,85.0 156.5,84.0 156.5,83.0 156.5,82.0 156.5,81.0 156.5,80.0 156.5,79.0 156.5,78.0 156.5,77.0 156.5,76.0 156.5,75.0 156.5,74.0 156.5,73.0 157.0,72.5 157.5,72.0 157.5,71.0 157.5,70.0 157.5,69.0 157.5,68.0 158.0,67.5 158.5,67.0 158.5,66.0 158.5,65.0 158.5,64.0 159.0,63.5 159.5,63.0 159.5,62.0 160.0,61.5 160.5,61.0 160.5,60.0 160.5,59.0 161.0,58.5 161.5,58.0 161.5,57.0 162.0,56.5 162.5,56.0 162.5,55.0 163.0,54.5 163.5,54.0 164.0,53.5 164.5,53.0 164.5,52.0 165.0,51.5 165.5,51.0 165.5,50.0 166.0,49.5 166.5,49.0 167.0,48.5 167.5,48.0 168.0,47.5 168.5,47.0 168.5,46.0 169.0,45.5 169.5,45.0 170.0,44.5 170.5,44.0 171.0,43.5 171.5,43.0 172.0,42.5 172.5,42.0 173.0,41.5 173.5,41.0 174.0,40.5 174.5,40.0 175.0,39.5 175.5,39.0 176.0,38.5 177.0,38.5 177.5,38.0 178.0,37.5 178.5,37.0 179.0,36.5 179.5,36.0 180.0,35.5 181.0,35.5 181.5,35.0 182.0,34.5 182.5,34.0 183.0,33.5 184.0,33.5 184.5,33.0 185.0,32.5 186.0,32.5 186.5,32.0 187.0,31.5 188.0,31.5 188.5,31.0 189.0,30.5 190.0,30.5 190.5,30.0 191.0,29.5 192.0,29.5 193.0,29.5 194.0,29.5 194.5,29.0 195.0,28.5 196.0,28.5 197.0,28.5 197.5,28.0 198.0,27.5 199.0,27.5 200.0,27.5 201.0,27.5 202.0,27.5 202.5,27.0 203.0,26.5 204.0,26.5 205.0,26.5 206.0,26.5 207.0,26.5 208.0,26.5 209.0,26.5 209.5,26.0 210.0,25.5 211.0,25.5 211.5,25.0 212.0,24.5 213.0,24.5 213.5,24.0 214.0,23.5 214.5,23.0 214.5,22.0 215.0,21.5 215.5,21.0 215.5,20.0 216.0,19.5 216.5,19.0 216.5,18.0 216.5,17.0 217.0,16.5 217.5,16.0 218.0,15.5 218.5,15.0 219.0,14.5 219.5,14.0 219.5,13.0 220.0,12.5 220.5,12.0 221.0,11.5 221.5,11.0 222.0,10.5 222.5,10.0 223.0,9.5 223.5,9.0 224.0,8.5 225.0,8.5 225.5,8.0 226.0,7.5 226.5,7.0 227.0,6.5 227.5,6.0 228.0,5.5 229.0,5.5 229.5,5.0 230.0,4.5 231.0,4.5 231.5,4.0 232.0,3.5 233.0,3.5 233.5,3.0 234.0,2.5 235.0,2.5 236.0,2.5 236.5,2.0 237.0,1.5 238.0,1.5 239.0,1.5 239.5,1.0 240.0,0.5 241.0,0.5 242.0,0.5 243.0,0.5 243.5,0.0" stroke="black" stroke-width="2" /><polyline fill="none" points="257.5,0.0 258.0,0.5 259.0,0.5 260.0,0.5 260.5,1.0 261.0,1.5 262.0,1.5 263.0,1.5 264.0,1.5 264.5,2.0 265.0,2.5 266.0,2.5 267.0,2.5 267.5,3.0 268.0,3.5 269.0,3.5 269.5,4.0 270.0,4.5 271.0,4.5 271.5,5.0 272.0,5.5 273.0,5.5 273.5,6.0 274.0,6.5 275.0,6.5 275.5,7.0 276.0,7.5 276.5,8.0 277.0,8.5 277.5,9.0 278.0,9.5 279.0,9.5 279.5,10.0 280.0,10.5 280.5,11.0 281.0,11.5 281.5,12.0 281.5,13.0 282.0,13.5 282.5,14.0 283.0,14.5 283.5,15.0 284.0,15.5 284.5,16.0 285.0,16.5 285.5,17.0 286.0,17.5 287.0,17.5 287.5,17.0 288.0,16.5 288.5,16.0 289.0,15.5 289.5,15.0 289.5,14.0 290.0,13.5 290.5,13.0 291.0,12.5 291.5,12.0 292.0,11.5 292.5,11.0 293.0,10.5 293.5,10.0 294.0,9.5 294.5,9.0 295.0,8.5 295.5,8.0 296.0,7.5 297.0,7.5 297.5,7.0 298.0,6.5 299.0,6.5 299.5,6.0 300.0,5.5 301.0,5.5 301.5,5.0 302.0,4.5 303.0,4.5 303.5,4.0 304.0,3.5 305.0,3.5 305.5,3.0 306.0,2.5 307.0,2.5 307.5,2.0 308.0,1.5 309.0,1.5 309.5,1.0 310.0,0.5 311.0,0.5 311.5,0.0" stroke="black" stroke-width="2" /><polyline fill="none" points="259.5,283.0 260.0,282.5 261.0,282.5 261.5,282.0 262.0,281.5 263.0,281.5 264.0,281.5 264.5,281.0 265.0,280.5 265.5,280.0 266.0,279.5 267.0,279.5 267.5,279.0 268.0,278.5 268.5,278.0 269.0,277.5 269.5,277.0 270.0,276.5 270.5,276.0 271.0,275.5 271.5,275.0 272.0,274.5 272.5,274.0 273.0,273.5 273.5,273.0 274.0,272.5 274.5,272.0 274.5,271.0 275.0,270.5 275.5,270.0 276.0,269.5 276.5,269.0 276.5,268.0 277.0,267.5 277.5,267.0 277.5,266.0 277.5,265.0 278.0,264.5 278.5,264.0 278.5,263.0 278.5,262.0 278.5,261.0 278.5,260.0 279.0,259.5 279.5,259.0 279.5,258.0 279.5,257.0 279.5,256.0 279.5,255.0 279.5,254.0 279.5,253.0 279.5,252.0 279.5,251.0 279.5,250.0 279.5,249.0 279.5,248.0 279.5,247.0 279.5,246.0 279.5,245.0 279.5,244.0 279.5,243.0 279.5,242.0 279.5,241.0 279.5,240.0 279.5,239.0 279.5,238.0 279.5,237.0 279.5,236.0 279.5,235.0 279.5,234.0 279.5,233.0 279.5,232.0 279.5,231.0 279.5,230.0 279.5,229.0 279.5,228.0 279.5,227.0 279.5,226.0 279.5,225.0 279.5,224.0 279.5,223.0 279.5,222.0 279.5,221.0 279.5,220.0 279.5,219.0 279.5,218.0 279.5,217.0 279.5,216.0 279.5,215.0 279.5,214.0 279.5,213.0 279.5,212.0 279.5,211.0 279.5,210.0 279.5,209.0 279.5,208.0 279.5,207.0 279.5,206.0 279.5,205.0 279.5,204.0 279.5,203.0 279.5,202.0 279.5,201.0 279.5,200.0 279.5,199.0 279.5,198.0 279.5,197.0 279.5,196.0 279.5,195.0 279.5,194.0 279.5,193.0 279.5,192.0 279.5,191.0 279.5,190.0 279.5,189.0 279.5,188.0 279.5,187.0 279.5,186.0 279.5,185.0 279.5,184.0 279.5,183.0 279.5,182.0 279.5,181.0 279.5,180.0 279.5,179.0 279.5,178.0 279.5,177.0 279.5,176.0 279.5,175.0 279.5,174.0 279.5,173.0 279.5,172.0 279.5,171.0 279.5,170.0 279.5,169.0 279.5,168.0 279.5,167.0 279.5,166.0 279.5,165.0 279.5,164.0 279.5,163.0 279.5,162.0 279.5,161.0 279.5,160.0 279.5,159.0 279.5,158.0 279.5,157.0 279.5,156.0 279.5,155.0 279.5,154.0 279.5,153.0 279.5,152.0 279.5,151.0 279.5,150.0 279.5,149.0 279.5,148.0 279.5,147.0 279.5,146.0 279.5,145.0 279.5,144.0 279.5,143.0 279.5,142.0 279.5,141.0 279.5,140.0 279.5,139.0 279.5,138.0 279.5,137.0 279.5,136.0 279.5,135.0 279.5,134.0 279.5,133.0 279.5,132.0 279.5,131.0 279.5,130.0 279.5,129.0 279.5,128.0 279.5,127.0 279.5,126.0 279.5,125.0 279.5,124.0 279.5,123.0 279.5,122.0 279.5,121.0 279.5,120.0 279.5,119.0 279.5,118.0 279.5,117.0 279.5,116.0 279.5,115.0 279.5,114.0 279.5,113.0 279.5,112.0 279.5,111.0 279.5,110.0 279.5,109.0 279.5,108.0 279.5,107.0 279.5,106.0 279.5,105.0 279.5,104.0 279.5,103.0 279.5,102.0 279.5,101.0 279.5,100.0 279.5,99.0 279.5,98.0 279.5,97.0 279.5,96.0 279.5,95.0 279.5,94.0 279.5,93.0 279.5,92.0 279.5,91.0 279.5,90.0 279.5,89.0 279.5,88.0 279.5,87.0 279.5,86.0 279.5,85.0 279.5,84.0 279.5,83.0 279.5,82.0 279.5,81.0 279.5,80.0 279.5,79.0 279.5,78.0 279.5,77.0 279.5,76.0 279.5,75.0 279.5,74.0 279.5,73.0 279.5,72.0 279.5,71.0 279.5,70.0 279.5,69.0 279.5,68.0 279.5,67.0 279.5,66.0 279.5,65.0 279.5,64.0 279.5,63.0 279.5,62.0 279.5,61.0 279.5,60.0 279.5,59.0 279.5,58.0 279.5,57.0 279.5,56.0 279.5,55.0 279.5,54.0 279.5,53.0 279.5,52.0 279.5,51.0 279.5,50.0 279.5,49.0 279.5,48.0 279.5,47.0 279.5,46.0 279.5,45.0 279.5,44.0 279.5,43.0 279.5,42.0 279.5,41.0 279.0,40.5 278.5,40.0 278.5,39.0 278.5,38.0 278.5,37.0 278.5,36.0 278.0,35.5 277.5,35.0 277.5,34.0 277.5,33.0 277.0,32.5 276.5,32.0 276.5,31.0 276.5,30.0 276.0,29.5 275.5,29.0 275.5,28.0 275.0,27.5 274.5,27.0 274.0,26.5 273.5,26.0 273.5,25.0 273.0,24.5 272.5,24.0 272.0,23.5 271.5,23.0 271.0,22.5 270.5,22.0 270.0,21.5 269.5,21.0 269.0,20.5 268.5,20.0 268.0,19.5 267.0,19.5 266.5,19.0 266.0,18.5 265.5,18.0 265.0,17.5 264.0,17.5 263.5,17.0 263.0,16.5 262.0,16.5 261.0,16.5 260.5,16.0 260.0,15.5 259.0,15.5 258.0,15.5 257.0,15.5 256.5,15.0 256.0,14.5 255.0,14.5 254.0,14.5 253.0,14.5 252.0,14.5 251.0,14.5 250.0,14.5 249.0,14.5 248.0,14.5 247.5,15.0 247.0,15.5 246.0,15.5 245.0,15.5 244.0,15.5 243.0,15.5 242.5,16.0 242.0,16.5 241.0,16.5 240.5,17.0 240.0,17.5 239.0,17.5 238.5,18.0 238.0,18.5 237.0,18.5 236.5,19.0 236.0,19.5 235.5,20.0 235.0,20.5 234.5,21.0 234.0,21.5 233.0,21.5 232.5,22.0 232.0,22.5 231.5,23.0 231.0,23.5 230.5,24.0 230.0,24.5 229.5,25.0 229.5,26.0 229.0,26.5 228.5,27.0 228.5,28.0 228.0,28.5 227.5,29.0 227.0,29.5 226.5,30.0 226.5,31.0 226.5,32.0 226.5,33.0 226.0,33.5 225.5,34.0 225.5,35.0 225.5,36.0 225.5,37.0 225.5,38.0 225.5,39.0 225.5,40.0 225.5,41.0 225.5,42.0 225.5,43.0 225.5,44.0 225.5,45.0 225.5,46.0 226.0,46.5 226.5,47.0 226.5,48.0 226.5,49.0 227.0,49.5 227.5,50.0 227.5,51.0 227.5,52.0 227.5,53.0 227.5,54.0 227.5,55.0 227.5,56.0 227.5,57.0 227.0,57.5 226.5,58.0 226.5,59.0 226.0,59.5 225.5,60.0 225.0,60.5 224.0,60.5 223.5,61.0 223.0,61.5 222.0,61.5 221.0,61.5 220.5,61.0 220.0,60.5 219.0,60.5 218.0,60.5 217.0,60.5 216.5,60.0 216.0,59.5 215.5,59.0 215.5,58.0 215.0,57.5 214.5,57.0 214.0,56.5 213.5,56.0 213.5,55.0 213.5,54.0 213.0,53.5 212.5,53.0 212.5,52.0 212.5,51.0 212.0,50.5 211.5,50.0 211.5,49.0 211.5,48.0 211.5,47.0 211.5,46.0 211.0,45.5 210.5,45.0 210.5,44.0 210.5,43.0 210.5,42.0 210.0,41.5 209.0,41.5 208.0,41.5 207.5,42.0 207.0,42.5 206.0,42.5 205.0,42.5 204.0,42.5 203.0,42.5 202.0,42.5 201.5,43.0 201.0,43.5 200.0,43.5 199.0,43.5 198.0,43.5 197.5,44.0 197.0,44.5 196.0,44.5 195.5,45.0 195.0,45.5 194.0,45.5 193.5,46.0 193.0,46.5 192.0,46.5 191.5,47.0 191.0,47.5 190.0,47.5 189.5,48.0 189.0,48.5 188.5,49.0 188.0,49.5 187.0,49.5 186.5,50.0 186.0,50.5 185.5,51.0 185.0,51.5 184.5,52.0 184.0,52.5 183.5,53.0 183.0,53.5 182.5,54.0 182.0,54.5 181.5,55.0 181.0,55.5 180.5,56.0 180.0,56.5 179.5,57.0 179.5,58.0 179.0,58.5 178.5,59.0 178.0,59.5 177.5,60.0 177.5,61.0 177.0,61.5 176.5,62.0 176.5,63.0 176.0,63.5 175.5,64.0 175.5,65.0 175.0,65.5 174.5,66.0 174.5,67.0 174.0,67.5 173.5,68.0 173.5,69.0 173.5,70.0 173.0,70.5 172.5,71.0 172.5,72.0 172.5,73.0 172.5,74.0 172.5,75.0 172.0,75.5 171.5,76.0 171.5,77.0 171.5,78.0 171.5,79.0 171.5,80.0 171.5,81.0 171.5,82.0 171.5,83.0 171.5,84.0 171.5,85.0 171.5,86.0 171.5,87.0 172.0,87.5 172.5,87.0 173.0,86.5 174.0,86.5 175.0,86.5 176.0,86.5 177.0,86.5 178.0,86.5 179.0,86.5 180.0,86.5 181.0,86.5 182.0,86.5 183.0,86.5 184.0,86.5 185.0,86.5 186.0,86.5 187.0,86.5 188.0,86.5 189.0,86.5 190.0,86.5 191.0,86.5 192.0,86.5 193.0,86.5 194.0,86.5 195.0,86.5 196.0,86.5 196.5,86.0 197.0,85.5 198.0,85.5 199.0,85.5 199.5,85.0 200.0,84.5 201.0,84.5 202.0,84.5 202.5,84.0 203.0,83.5 203.5,83.0 204.0,82.5 205.0,82.5 205.5,82.0 206.0,81.5 206.5,81.0 207.0,80.5 207.5,80.0 208.0,79.5 209.0,79.5 210.0,79.5 210.5,79.0 211.0,78.5 212.0,78.5 213.0,78.5 213.5,78.0 214.0,77.5 215.0,77.5 216.0,77.5 217.0,77.5 218.0,77.5 218.5,78.0 219.0,78.5 220.0,78.5 221.0,78.5 221.5,79.0 222.0,79.5 222.5,80.0 222.5,81.0 222.5,82.0 223.0,82.5 223.5,83.0 223.5,84.0 223.5,85.0 223.5,86.0 223.5,87.0 223.0,87.5 222.5,88.0 222.5,89.0 222.0,89.5 221.5,90.0 221.0,90.5 220.0,90.5 219.5,91.0 219.0,91.5 218.0,91.5 217.0,91.5 216.5,92.0 216.0,92.5 215.0,92.5 214.5,93.0 214.0,93.5 213.0,93.5 212.5,94.0 212.0,94.5 211.5,95.0 211.0,95.5 210.5,96.0 210.0,96.5 209.5,97.0 209.0,97.5 208.5,98.0 208.0,98.5 207.5,99.0 207.0,99.5 206.5,100.0 206.0,100.5 205.5,101.0 205.5,102.0 205.0,102.5 204.5,103.0 204.5,104.0 204.5,105.0 204.0,105.5 203.5,106.0 203.5,107.0 203.5,108.0 203.5,109.0 203.5,110.0 203.5,111.0 203.5,112.0 203.5,113.0 203.5,114.0 203.0,114.5 202.5,115.0 202.5,116.0 202.5,117.0 202.0,117.5 201.5,118.0 201.5,119.0 201.0,119.5 200.5,120.0 200.0,120.5 199.0,120.5 198.5,121.0 198.0,121.5 197.0,121.5 196.0,121.5 195.0,121.5 194.0,121.5 193.5,121.0 193.0,120.5 192.0,120.5 191.5,120.0 191.0,119.5 190.5,119.0 190.0,118.5 189.5,118.0 189.5,117.0 189.0,116.5 188.5,116.0 188.5,115.0 188.5,114.0 188.5,113.0 188.5,112.0 188.5,111.0 188.5,110.0 188.5,109.0 189.0,108.5 189.5,108.0 189.5,107.0 189.5,106.0 189.5,105.0 189.5,104.0 189.5,103.0 189.5,102.0 189.5,101.0 189.0,100.5 188.0,100.5 187.0,100.5 186.0,100.5 185.0,100.5 184.0,100.5 183.0,100.5 182.0,100.5 181.0,100.5 180.5,101.0 180.0,101.5 179.0,101.5 178.0,101.5 177.0,101.5 176.0,101.5 175.0,101.5 174.5,102.0 174.0,102.5 173.0,102.5 172.0,102.5 171.5,103.0 171.0,103.5 170.0,103.5 169.0,103.5 168.5,104.0 168.0,104.5 167.0,104.5 166.0,104.5 165.5,105.0 165.0,105.5 164.0,105.5 163.5,106.0 163.0,106.5 162.0,106.5 161.5,107.0 161.0,107.5 160.0,107.5 159.5,108.0 159.0,108.5 158.5,109.0 158.0,109.5 157.0,109.5 156.5,110.0 156.0,110.5 155.5,111.0 155.0,111.5 154.5,112.0 154.0,112.5 153.5,113.0 153.0,113.5 152.5,114.0 152.0,114.5 151.0,114.5 150.5,115.0 150.5,116.0 150.0,116.5 149.5,117.0 149.0,117.5 148.5,118.0 148.0,118.5 147.5,119.0 147.0,119.5 146.5,120.0 146.0,120.5 145.5,121.0 145.0,121.5 144.5,122.0 144.5,123.0 144.0,123.5 143.5,124.0 143.0,124.5 142.5,125.0 142.5,126.0 142.0,126.5 141.5,127.0 141.5,128.0 141.0,128.5 140.5,129.0 140.5,130.0 140.0,130.5 139.5,131.0 139.5,132.0 139.0,132.5 138.5,133.0 138.5,134.0 138.5,135.0 138.0,135.5 137.5,136.0 137.5,137.0 137.5,138.0 137.5,139.0 137.5,140.0 137.0,140.5 136.5,141.0 136.5,142.0 136.5,143.0 136.5,144.0 136.5,145.0 136.5,146.0 136.5,147.0 136.5,148.0 136.5,149.0 136.5,150.0 136.5,151.0 136.5,152.0 136.5,153.0 136.5,154.0 137.0,154.5 137.5,155.0 137.5,156.0 137.5,157.0 137.5,158.0 137.5,159.0 137.5,160.0 138.0,160.5 138.5,161.0 138.5,162.0 138.5,163.0 138.5,164.0 139.0,164.5 139.5,165.0 139.5,166.0 139.5,167.0 140.0,167.5 140.5,168.0 140.5,169.0 141.0,169.5 141.5,170.0 141.5,171.0 142.0,171.5 142.5,172.0 142.5,173.0 143.0,173.5 143.5,174.0 143.5,175.0 144.0,175.5 144.5,176.0 145.0,176.5 145.5,177.0 145.5,178.0 146.0,178.5 146.5,179.0 147.0,179.5 147.5,180.0 148.0,180.5 148.5,181.0 149.0,181.5 149.5,182.0 150.0,182.5 150.5,183.0 151.0,183.5 151.5,184.0 152.0,184.5 152.5,185.0 153.0,185.5 154.0,185.5 154.5,186.0 155.0,186.5 155.5,187.0 156.0,187.5 156.5,188.0 157.0,188.5 158.0,188.5 158.5,189.0 159.0,189.5 159.5,190.0 160.0,190.5 161.0,190.5 161.5,191.0 162.0,191.5 163.0,191.5 163.5,192.0 164.0,192.5 165.0,192.5 165.5,193.0 166.0,193.5 167.0,193.5 168.0,193.5 168.5,194.0 169.0,194.5 170.0,194.5 171.0,194.5 171.5,195.0 172.0,195.5 173.0,195.5 174.0,195.5 175.0,195.5 175.5,196.0 176.0,196.5 177.0,196.5 178.0,196.5 179.0,196.5 180.0,196.5 181.0,196.5 182.0,196.5 183.0,196.5 183.5,197.0 184.0,197.5 185.0,197.5 186.0,197.5 187.0,197.5 188.0,197.5 189.0,197.5 189.5,197.0 189.5,196.0 189.5,195.0 189.5,194.0 189.5,193.0 189.5,192.0 189.5,191.0 189.5,190.0 189.0,189.5 188.5,189.0 188.5,188.0 188.5,187.0 188.5,186.0 188.5,185.0 188.5,184.0 188.5,183.0 188.5,182.0 189.0,181.5 189.5,181.0 189.5,180.0 190.0,179.5 190.5,179.0 191.0,178.5 191.5,178.0 192.0,177.5 193.0,177.5 193.5,177.0 194.0,176.5 195.0,176.5 196.0,176.5 197.0,176.5 197.5,177.0 198.0,177.5 199.0,177.5 199.5,178.0 200.0,178.5 201.0,178.5 201.5,179.0 201.5,180.0 202.0,180.5 202.5,181.0 202.5,182.0 202.5,183.0 203.0,183.5 203.5,184.0 203.5,185.0 203.5,186.0 203.5,187.0 203.5,188.0 203.5,189.0 203.5,190.0 203.5,191.0 203.5,192.0 204.0,192.5 204.5,193.0 204.5,194.0 204.5,195.0 205.0,195.5 205.5,196.0 205.5,197.0 206.0,197.5 206.5,198.0 206.5,199.0 207.0,199.5 207.5,200.0 208.0,200.5 208.5,201.0 209.0,201.5 209.5,202.0 210.0,202.5 210.5,203.0 211.0,203.5 212.0,203.5 212.5,204.0 213.0,204.5 213.5,205.0 214.0,205.5 215.0,205.5 215.5,206.0 216.0,206.5 217.0,206.5 217.5,207.0 218.0,207.5 219.0,207.5 220.0,207.5 220.5,208.0 221.0,208.5 221.5,209.0 222.0,209.5 222.5,210.0 223.0,210.5 223.5,211.0 223.5,212.0 223.5,213.0 223.5,214.0 223.5,215.0 223.5,216.0 223.5,217.0 223.0,217.5 222.5,218.0 222.0,218.5 221.5,219.0 221.0,219.5 220.5,220.0 220.0,220.5 219.0,220.5 218.5,221.0 218.0,221.5 217.0,221.5 216.0,221.5 215.5,221.0 215.0,220.5 214.0,220.5 213.0,220.5 212.0,220.5 211.5,220.0 211.0,219.5 210.0,219.5 209.0,219.5 208.5,219.0 208.0,218.5 207.0,218.5 206.5,218.0 206.0,217.5 205.0,217.5 204.5,217.0 204.0,216.5 203.5,216.0 203.0,215.5 202.0,215.5 201.5,215.0 201.0,214.5 200.5,214.0 200.0,213.5 199.5,213.0 199.0,212.5 198.0,212.5 197.0,212.5 196.0,212.5 195.0,212.5 194.0,212.5 193.0,212.5 192.0,212.5 191.0,212.5 190.0,212.5 189.0,212.5 188.0,212.5 187.0,212.5 186.0,212.5 185.0,212.5 184.0,212.5 183.5,212.0 183.0,211.5 182.0,211.5 181.0,211.5 180.0,211.5 179.0,211.5 178.0,211.5 177.0,211.5 176.0,211.5 175.0,211.5 174.0,211.5 173.5,211.0 173.0,210.5 172.0,210.5 171.5,211.0 171.5,212.0 171.5,213.0 171.5,214.0 171.5,215.0 171.5,216.0 171.5,217.0 171.5,218.0 171.5,219.0 171.5,220.0 172.0,220.5 172.5,221.0 172.5,222.0 172.5,223.0 172.5,224.0 172.5,225.0 172.5,226.0 173.0,226.5 173.5,227.0 173.5,228.0 173.5,229.0 174.0,229.5 174.5,230.0 174.5,231.0 174.5,232.0 175.0,232.5 175.5,233.0 175.5,234.0 176.0,234.5 176.5,235.0 176.5,236.0 177.0,236.5 177.5,237.0 177.5,238.0 178.0,238.5 178.5,239.0 179.0,239.5 179.5,240.0 179.5,241.0 180.0,241.5 180.5,242.0 181.0,242.5 181.5,243.0 182.0,243.5 182.5,244.0 183.0,244.5 183.5,245.0 184.0,245.5 184.5,246.0 185.0,246.5 185.5,247.0 186.0,247.5 186.5,248.0 187.0,248.5 188.0,248.5 188.5,249.0 189.0,249.5 189.5,250.0 190.0,250.5 190.5,251.0 191.0,251.5 192.0,251.5 192.5,252.0 193.0,252.5 194.0,252.5 194.5,253.0 195.0,253.5 196.0,253.5 197.0,253.5 197.5,254.0 198.0,254.5 199.0,254.5 200.0,254.5 200.5,255.0 201.0,255.5 202.0,255.5 203.0,255.5 204.0,255.5 205.0,255.5 206.0,255.5 206.5,256.0 207.0,256.5 208.0,256.5 209.0,256.5 210.0,256.5 210.5,256.0 210.5,255.0 210.5,254.0 210.5,253.0 211.0,252.5 211.5,252.0 211.5,251.0 211.5,250.0 211.5,249.0 211.5,248.0 212.0,247.5 212.5,247.0 212.5,246.0 212.5,245.0 213.0,244.5 213.5,244.0 213.5,243.0 214.0,242.5 214.5,242.0 214.5,241.0 215.0,240.5 215.5,240.0 215.5,239.0 216.0,238.5 217.0,238.5 217.5,238.0 218.0,237.5 219.0,237.5 220.0,237.5 221.0,237.5 222.0,237.5 223.0,237.5 224.0,237.5 225.0,237.5 225.5,238.0 226.0,238.5 226.5,239.0 226.5,240.0 227.0,240.5 227.5,241.0 227.5,242.0 227.5,243.0 227.5,244.0 227.5,245.0 227.5,246.0 227.5,247.0 227.5,248.0 227.0,248.5 226.5,249.0 226.5,250.0 226.5,251.0 226.0,251.5 225.5,252.0 225.5,253.0 225.5,254.0 225.5,255.0 225.5,256.0 225.5,257.0 225.5,258.0 225.5,259.0 225.5,260.0 225.5,261.0 225.5,262.0 225.5,263.0 226.0,263.5 226.5,264.0 226.5,265.0 226.5,266.0 226.5,267.0 227.0,267.5 227.5,268.0 227.5,269.0 228.0,269.5 228.5,270.0 228.5,271.0 229.0,271.5 229.5,272.0 229.5,273.0 230.0,273.5 230.5,274.0 231.0,274.5 231.5,275.0 232.0,275.5 232.5,276.0 233.0,276.5 233.5,277.0 234.0,277.5 235.0,277.5 235.5,278.0 236.0,278.5 236.5,279.0 237.0,279.5 238.0,279.5 238.5,280.0 239.0,280.5 240.0,280.5 240.5,281.0 241.0,281.5 242.0,281.5 242.5,282.0 243.0,282.5 244.0,282.5 245.0,282.5 246.0,282.5 246.5,283.0 247.0,283.5 248.0,283.5 249.0,283.5 250.0,283.5 251.0,283.5 252.0,283.5 253.0,283.5 254.0,283.5 255.0,283.5 256.0,283.5 257.0,283.5 258.0,283.5 259.0,283.5 259.5,283.0" stroke="black" stroke-width="2" /><polyline fill="none" points="132.5,511.0 132.0,510.5 131.0,510.5 130.0,510.5 129.5,510.0 129.0,509.5 128.0,509.5 127.5,509.0 127.0,508.5 126.0,508.5 125.5,508.0 125.0,507.5 124.5,507.0 124.0,506.5 123.0,506.5 122.5,506.0 122.0,505.5 121.5,505.0 121.0,504.5 120.5,504.0 120.0,503.5 119.5,503.0 119.0,502.5 118.0,502.5 117.5,502.0 117.0,501.5 116.5,501.0 116.0,500.5 115.5,500.0 115.0,499.5 114.5,499.0 114.0,498.5 113.5,498.0 113.0,497.5 112.0,497.5 111.5,497.0 111.0,496.5 110.5,496.0 110.0,495.5 109.5,495.0 109.0,494.5 108.5,494.0 108.0,493.5 107.5,493.0 107.0,492.5 106.5,492.0 106.0,491.5 105.0,491.5 104.5,491.0 104.0,490.5 103.5,490.0 103.0,489.5 102.5,489.0 102.0,488.5 101.5,488.0 101.0,487.5 100.0,487.5 99.5,487.0 99.0,486.5 98.5,486.0 98.0,485.5 97.5,485.0 97.0,484.5 96.5,484.0 96.5,483.0 96.0,482.5 95.5,482.0 95.5,481.0 95.0,480.5 94.5,480.0 94.5,479.0 95.0,478.5 95.5,478.0 95.5,477.0 95.5,476.0 96.0,475.5 96.5,475.0 96.5,474.0 97.0,473.5 97.5,473.0 98.0,472.5 99.0,472.5 99.5,472.0 100.0,471.5 101.0,471.5 102.0,471.5 103.0,471.5 104.0,471.5 105.0,471.5 105.5,472.0 106.0,472.5 107.0,472.5 107.5,473.0 108.0,473.5 109.0,473.5 109.5,474.0 110.0,474.5 111.0,474.5 111.5,475.0 112.0,475.5 112.5,476.0 113.0,476.5 113.5,477.0 114.0,477.5 114.5,478.0 115.0,478.5 115.5,479.0 116.0,479.5 116.5,480.0 117.0,480.5 117.5,481.0 118.0,481.5 118.5,482.0 119.0,482.5 120.0,482.5 120.5,483.0 121.0,483.5 121.5,484.0 122.0,484.5 122.5,485.0 123.0,485.5 123.5,486.0 124.0,486.5 124.5,487.0 125.0,487.5 125.5,488.0 126.0,488.5 127.0,488.5 127.5,489.0 128.0,489.5 128.5,490.0 129.0,490.5 129.5,491.0 130.0,491.5 130.5,492.0 131.0,492.5 131.5,493.0 132.0,493.5 133.0,493.5 133.5,494.0 134.0,494.5 135.0,494.5 135.5,495.0 136.0,495.5 137.0,495.5 138.0,495.5 139.0,495.5 140.0,495.5 140.5,495.0 141.0,494.5 142.0,494.5 142.5,494.0 143.0,493.5 143.5,493.0 144.0,492.5 144.5,492.0 145.0,491.5 145.5,491.0 146.0,490.5 146.5,490.0 147.0,489.5 147.5,489.0 147.5,488.0 148.0,487.5 148.5,487.0 149.0,486.5 149.5,486.0 150.0,485.5 150.5,485.0 150.5,484.0 151.0,483.5 151.5,483.0 152.0,482.5 152.5,482.0 153.0,481.5 153.5,481.0 153.5,480.0 154.0,479.5 154.5,479.0 155.0,478.5 155.5,478.0 156.0,477.5 156.5,477.0 157.0,476.5 157.5,476.0 157.5,475.0 158.0,474.5 158.5,474.0 159.0,473.5 159.5,473.0 159.5,472.0 160.0,471.5 160.5,471.0 161.0,470.5 161.5,470.0 162.0,469.5 162.5,469.0 162.5,468.0 163.0,467.5 163.5,467.0 163.5,466.0 163.5,465.0 163.5,464.0 164.0,463.5 164.5,463.0 164.0,462.5 163.0,462.5 162.5,462.0 162.0,461.5 161.5,461.0 161.0,460.5 160.0,460.5 159.5,460.0 159.0,459.5 158.5,459.0 158.0,458.5 157.0,458.5 156.5,458.0 156.0,457.5 155.5,457.0 155.0,456.5 154.5,456.0 154.0,455.5 153.5,455.0 153.0,454.5 152.5,454.0 152.0,453.5 151.0,453.5 150.5,453.0 150.0,452.5 149.5,452.0 149.0,451.5 148.5,451.0 148.0,450.5 147.5,450.0 147.0,449.5 146.0,449.5 145.5,449.0 145.0,448.5 144.5,448.0 144.0,447.5 143.5,447.0 143.0,446.5 142.5,446.0 142.0,445.5 141.0,445.5 140.5,445.0 140.0,444.5 139.5,444.0 139.0,443.5 138.5,443.0 138.0,442.5 137.5,442.0 137.0,441.5 136.0,441.5 135.5,441.0 135.0,440.5 134.5,440.0 134.0,439.5 133.5,439.0 133.0,438.5 132.0,438.5 131.5,438.0 131.0,437.5 130.5,437.0 130.0,436.5 129.5,436.0 129.0,435.5 128.5,435.0 128.0,434.5 127.0,434.5 126.5,434.0 126.0,433.5 125.5,433.0 125.0,432.5 124.5,432.0 124.0,431.5 123.5,431.0 123.0,430.5 122.5,430.0 122.0,429.5 121.0,429.5 120.5,429.0 120.0,428.5 119.5,428.0 119.0,427.5 118.5,427.0 118.0,426.5 117.5,426.0 117.0,425.5 116.0,425.5 115.5,425.0 115.0,424.5 114.5,424.0 114.0,423.5 113.5,423.0 113.0,422.5 112.5,422.0 112.0,421.5 111.0,421.5 110.5,421.0 110.0,420.5 109.5,420.0 109.0,419.5 108.5,419.0 108.0,418.5 107.0,418.5 106.5,418.0 106.0,417.5 105.5,417.0 105.0,416.5 104.5,416.0 104.0,415.5 103.5,415.0 103.0,414.5 102.0,414.5 101.5,414.0 101.0,413.5 100.5,413.0 100.0,412.5 99.5,412.0 99.0,411.5 98.5,411.0 98.0,410.5 97.0,410.5 96.5,410.0 96.0,409.5 95.5,409.0 95.0,408.5 94.5,408.0 94.0,407.5 93.5,407.0 93.0,406.5 92.5,406.0 92.0,405.5 91.0,405.5 90.5,405.0 90.0,404.5 89.5,404.0 89.0,403.5 88.5,403.0 88.0,402.5 87.5,402.0 87.0,401.5 86.0,401.5 85.5,401.0 85.0,400.5 84.5,400.0 84.0,399.5 83.5,399.0 83.0,398.5 82.5,398.0 82.0,397.5 81.0,397.5 80.5,397.0 80.0,396.5 79.5,396.0 79.0,395.5 78.0,395.5 77.0,395.5 76.0,395.5 75.0,395.5 74.0,395.5 73.5,396.0 73.0,396.5 72.5,397.0 72.0,397.5 71.5,398.0 71.0,398.5 70.5,399.0 70.5,400.0 70.0,400.5 69.5,401.0 69.0,401.5 68.5,402.0 68.0,402.5 67.5,403.0 67.5,404.0 67.0,404.5 66.5,405.0 66.0,405.5 65.5,406.0 65.5,407.0 65.0,407.5 64.5,408.0 64.0,408.5 63.5,409.0 63.0,409.5 62.5,410.0 62.5,411.0 62.0,411.5 61.5,412.0 61.0,412.5 60.5,413.0 60.0,413.5 59.5,414.0 59.0,414.5 58.5,415.0 58.0,415.5 57.5,416.0 57.5,417.0 57.0,417.5 56.5,418.0 56.0,418.5 55.5,419.0 55.5,420.0 55.0,420.5 54.5,421.0 54.5,422.0 54.5,423.0 54.0,423.5 53.5,424.0 53.5,425.0 53.5,426.0 54.0,426.5 54.5,427.0 54.5,428.0 55.0,428.5 55.5,429.0 56.0,429.5 56.5,430.0 57.0,430.5 57.5,431.0 57.5,432.0 58.0,432.5 59.0,432.5 59.5,433.0 60.0,433.5 60.5,434.0 61.0,434.5 61.5,435.0 62.0,435.5 62.5,436.0 63.0,436.5 64.0,436.5 64.5,437.0 65.0,437.5 65.5,438.0 66.0,438.5 66.5,439.0 67.0,439.5 68.0,439.5 68.5,440.0 69.0,440.5 69.5,441.0 70.0,441.5 70.5,442.0 71.0,442.5 71.5,443.0 72.0,443.5 72.5,444.0 73.0,444.5 74.0,444.5 74.5,445.0 75.0,445.5 75.5,446.0 76.0,446.5 76.5,447.0 77.0,447.5 77.5,448.0 78.0,448.5 78.5,449.0 79.0,449.5 80.0,449.5 80.5,450.0 81.0,450.5 81.5,451.0 81.5,452.0 82.0,452.5 82.5,453.0 83.0,453.5 83.5,454.0 83.5,455.0 83.5,456.0 83.5,457.0 83.5,458.0 83.5,459.0 83.5,460.0 83.0,460.5 82.5,461.0 82.5,462.0 82.0,462.5 81.5,463.0 81.0,463.5 80.0,463.5 79.5,464.0 79.0,464.5 78.0,464.5 77.0,464.5 76.0,464.5 75.0,464.5 74.0,464.5 73.0,464.5 72.5,464.0 72.0,463.5 71.0,463.5 70.5,463.0 70.0,462.5 69.5,462.0 69.0,461.5 68.0,461.5 67.5,461.0 67.0,460.5 66.5,460.0 66.0,459.5 65.5,459.0 65.0,458.5 64.5,458.0 64.0,457.5 63.5,457.0 63.0,456.5 62.0,456.5 61.5,456.0 61.0,455.5 60.5,455.0 60.5,454.0 60.0,453.5 59.0,453.5 58.5,453.0 58.0,452.5 57.5,452.0 57.0,451.5 56.5,451.0 56.0,450.5 55.5,450.0 55.0,449.5 54.0,449.5 53.5,449.0 53.0,448.5 52.5,448.0 52.0,447.5 51.5,447.0 51.0,446.5 50.5,446.0 50.0,445.5 49.5,445.0 49.0,444.5 48.0,444.5 47.5,444.0 47.0,443.5 46.5,443.0 46.0,442.5 45.5,442.0 45.0,441.5 44.5,441.0 44.0,440.5 43.5,440.0 43.0,439.5 42.5,439.0 42.5,438.0 42.0,437.5 41.5,437.0 41.0,436.5 40.5,436.0 40.5,435.0 40.0,434.5 39.5,434.0 39.5,433.0 39.0,432.5 38.5,432.0 38.5,431.0 38.0,430.5 37.5,430.0 37.5,429.0 37.5,428.0 37.5,427.0 37.5,426.0 37.0,425.5 36.5,425.0 36.5,424.0 37.0,423.5 37.5,423.0 37.5,422.0 37.5,421.0 37.5,420.0 37.5,419.0 38.0,418.5 38.5,418.0 38.5,417.0 39.0,416.5 39.5,416.0 39.5,415.0 40.0,414.5 40.5,414.0 40.5,413.0 41.0,412.5 41.5,412.0 41.5,411.0 42.0,410.5 42.5,410.0 43.0,409.5 43.5,409.0 43.5,408.0 44.0,407.5 44.5,407.0 45.0,406.5 45.5,406.0 46.0,405.5 46.5,405.0 46.5,404.0 47.0,403.5 47.5,403.0 48.0,402.5 48.5,402.0 49.0,401.5 49.5,401.0 50.0,400.5 50.5,400.0 51.0,399.5 51.5,399.0 51.5,398.0 52.0,397.5 52.5,397.0 53.0,396.5 53.5,396.0 54.0,395.5 54.5,395.0 54.5,394.0 55.0,393.5 55.5,393.0 56.0,392.5 56.5,392.0 57.0,391.5 57.5,391.0 57.5,390.0 58.0,389.5 58.5,389.0 59.0,388.5 59.5,388.0 60.0,387.5 60.5,387.0 60.5,386.0 61.0,385.5 61.5,385.0 62.0,384.5 62.5,384.0 63.0,383.5 63.5,383.0 64.0,382.5 64.5,382.0 65.0,381.5 65.5,381.0 66.0,380.5 66.5,380.0 67.0,379.5 67.5,379.0 68.0,378.5 69.0,378.5 70.0,378.5 71.0,378.5 72.0,378.5 73.0,378.5 74.0,378.5 74.5,378.0 75.0,377.5 76.0,377.5 76.5,378.0 77.0,378.5 77.5,378.0 78.0,377.5 79.0,377.5 80.0,377.5 80.5,378.0 81.0,378.5 82.0,378.5 83.0,378.5 83.5,379.0 84.0,379.5 85.0,379.5 86.0,379.5 86.5,379.0 87.0,378.5 87.5,378.0 88.0,377.5 88.5,377.0 89.0,376.5 89.5,376.0 90.0,375.5 90.5,375.0 91.0,374.5 91.5,374.0 92.0,373.5 92.5,373.0 93.0,372.5 93.5,372.0 94.0,371.5 94.5,371.0 95.0,370.5 95.5,370.0 96.0,369.5 96.5,369.0 97.0,368.5 97.5,368.0 98.0,367.5 98.5,367.0 99.0,366.5 99.5,366.0 100.0,365.5 100.5,365.0 101.0,364.5 101.5,364.0 102.0,363.5 103.0,363.5 103.5,363.0 104.0,362.5 104.5,362.0 105.0,361.5 105.5,361.0 106.0,360.5 106.5,360.0 107.0,359.5 107.5,359.0 108.0,358.5 109.0,358.5 109.5,358.0 110.0,357.5 110.5,357.0 111.0,356.5 111.5,356.0 112.0,355.5 113.0,355.5 113.5,355.0 114.0,354.5 114.5,354.0 115.0,353.5 115.5,353.0 116.0,352.5 117.0,352.5 117.5,352.0 118.0,351.5 118.5,351.0 119.0,350.5 119.5,350.0 120.0,349.5 121.0,349.5 121.5,349.0 122.0,348.5 122.5,348.0 123.0,347.5 124.0,347.5 124.5,347.0 125.0,346.5 125.5,346.0 126.0,345.5 127.0,345.5 127.5,345.0 128.0,344.5 128.5,344.0 129.0,343.5 130.0,343.5 130.5,343.0 131.0,342.5 131.5,342.0 132.0,341.5 133.0,341.5 133.5,341.0 134.0,340.5 135.0,340.5 135.5,340.0 136.0,339.5 136.5,339.0 137.0,338.5 138.0,338.5 138.5,338.0 139.0,337.5 140.0,337.5 140.5,337.0 141.0,336.5 142.0,336.5 142.5,336.0 143.0,335.5 144.0,335.5 144.5,335.0 145.0,334.5 146.0,334.5 146.5,334.0 147.0,333.5 148.0,333.5 148.5,333.0 149.0,332.5 150.0,332.5 151.0,332.5 151.5,332.0 152.0,331.5 153.0,331.5 153.5,331.0 154.0,330.5 155.0,330.5 155.5,330.0 156.0,329.5 157.0,329.5 158.0,329.5 158.5,329.0 159.0,328.5 160.0,328.5 160.5,328.0 161.0,327.5 162.0,327.5 163.0,327.5 163.5,327.0 164.0,326.5 165.0,326.5 166.0,326.5 167.0,326.5 167.5,326.0 168.0,325.5 169.0,325.5 170.0,325.5 170.5,325.0 171.0,324.5 172.0,324.5 173.0,324.5 173.5,324.0 174.0,323.5 175.0,323.5 176.0,323.5 177.0,323.5 177.5,323.0 178.0,322.5 179.0,322.5 180.0,322.5 181.0,322.5 182.0,322.5 182.5,322.0 183.0,321.5 184.0,321.5 185.0,321.5 186.0,321.5 187.0,321.5 187.5,321.0 188.0,320.5 189.0,320.5 190.0,320.5 191.0,320.5 192.0,320.5 193.0,320.5 194.0,320.5 195.0,320.5 195.5,320.0 196.0,319.5 197.0,319.5 198.0,319.5 199.0,319.5 200.0,319.5 201.0,319.5 202.0,319.5 203.0,319.5 204.0,319.5 205.0,319.5 206.0,319.5 207.0,319.5 207.5,319.0 208.0,318.5 209.0,318.5 210.0,318.5 211.0,318.5 212.0,318.5 213.0,318.5 214.0,318.5 215.0,318.5 216.0,318.5 217.0,318.5 218.0,318.5 219.0,318.5 220.0,318.5 221.0,318.5 222.0,318.5 223.0,318.5 224.0,318.5 225.0,318.5 226.0,318.5 227.0,318.5 228.0,318.5 229.0,318.5 230.0,318.5 231.0,318.5 232.0,318.5 232.5,319.0 233.0,319.5 234.0,319.5 235.0,319.5 236.0,319.5 237.0,319.5 238.0,319.5 239.0,319.5 240.0,319.5 241.0,319.5 242.0,319.5 242.5,320.0 243.0,320.5 244.0,320.5 245.0,320.5 246.0,320.5 247.0,320.5 247.5,321.0 248.0,321.5 249.0,321.5 250.0,321.5 251.0,321.5 251.5,322.0 252.0,322.5 253.0,322.5 254.0,322.5 255.0,322.5 255.5,323.0 256.0,323.5 257.0,323.5 258.0,323.5 258.5,324.0 259.0,324.5 260.0,324.5 261.0,324.5 261.5,325.0 262.0,325.5 263.0,325.5 264.0,325.5 264.5,326.0 265.0,326.5 266.0,326.5 267.0,326.5 267.5,327.0 268.0,327.5 269.0,327.5 270.0,327.5 270.5,328.0 271.0,328.5 272.0,328.5 272.5,329.0 273.0,329.5 274.0,329.5 274.5,330.0 275.0,330.5 276.0,330.5 277.0,330.5 277.5,331.0 278.0,331.5 279.0,331.5 279.5,332.0 280.0,332.5 281.0,332.5 282.0,332.5 282.5,333.0 283.0,333.5 284.0,333.5 284.5,334.0 285.0,334.5 286.0,334.5 287.0,334.5 287.5,335.0 288.0,335.5 289.0,335.5 289.5,336.0 290.0,336.5 291.0,336.5 292.0,336.5 292.5,337.0 293.0,337.5 294.0,337.5 294.5,338.0 295.0,338.5 296.0,338.5 296.5,339.0 297.0,339.5 298.0,339.5 299.0,339.5 299.5,340.0 300.0,340.5 301.0,340.5 301.5,341.0 302.0,341.5 303.0,341.5 304.0,341.5 304.5,342.0 305.0,342.5 306.0,342.5 307.0,342.5 307.5,343.0 308.0,343.5 309.0,343.5 309.5,344.0 310.0,344.5 311.0,344.5 312.0,344.5 312.5,345.0 313.0,345.5 314.0,345.5 314.5,346.0 315.0,346.5 316.0,346.5 316.5,347.0 317.0,347.5 318.0,347.5 318.5,348.0 319.0,348.5 320.0,348.5 320.5,349.0 321.0,349.5 321.5,350.0 322.0,350.5 323.0,350.5 323.5,351.0 324.0,351.5 324.5,352.0 325.0,352.5 326.0,352.5 326.5,353.0 327.0,353.5 327.5,354.0 328.0,354.5 328.5,355.0 329.0,355.5 329.5,356.0 329.5,357.0 330.0,357.5 330.5,358.0 331.0,358.5 331.5,359.0 332.0,359.5 332.5,360.0 332.5,361.0 333.0,361.5 333.5,362.0 333.5,363.0 334.0,363.5 334.5,364.0 334.5,365.0 334.5,366.0 335.0,366.5 335.5,367.0 335.5,368.0 335.5,369.0 335.5,370.0 335.5,371.0 336.0,371.5 336.5,371.0 337.0,370.5 338.0,370.5 339.0,370.5 339.5,370.0 340.0,369.5 341.0,369.5 342.0,369.5 342.5,369.0 343.0,368.5 344.0,368.5 345.0,368.5 346.0,368.5 346.5,368.0 347.0,367.5 348.0,367.5 349.0,367.5 349.5,367.0 350.0,366.5 351.0,366.5 352.0,366.5 353.0,366.5 353.5,366.0 354.0,365.5 355.0,365.5 356.0,365.5 356.5,365.0 357.0,364.5 358.0,364.5 359.0,364.5 360.0,364.5 360.5,364.0 361.0,363.5 362.0,363.5 363.0,363.5 363.5,363.0 364.0,362.5 365.0,362.5 366.0,362.5 366.5,362.0 367.0,361.5 368.0,361.5 369.0,361.5 370.0,361.5 370.5,361.0 371.0,360.5 372.0,360.5 373.0,360.5 373.5,360.0 374.0,359.5 375.0,359.5 376.0,359.5 377.0,359.5 377.5,359.0 378.0,358.5 379.0,358.5 380.0,358.5 380.5,358.0 381.0,357.5 382.0,357.5 383.0,357.5 383.5,357.0 384.0,356.5 385.0,356.5 386.0,356.5 387.0,356.5 387.5,356.0 388.0,355.5 389.0,355.5 390.0,355.5 390.5,355.0 391.0,354.5 392.0,354.5 393.0,354.5 394.0,354.5 394.5,354.0 395.0,353.5 396.0,353.5 397.0,353.5 397.5,353.0 398.0,352.5 399.0,352.5 400.0,352.5 401.0,352.5 401.5,352.0 402.0,351.5 403.0,351.5 404.0,351.5 404.5,351.0 405.0,350.5 406.0,350.5 407.0,350.5 407.5,350.0 408.0,349.5 409.0,349.5 410.0,349.5 411.0,349.5 411.5,349.0 412.0,348.5 413.0,348.5 414.0,348.5 414.5,348.0 415.0,347.5 416.0,347.5 417.0,347.5 418.0,347.5 418.5,347.0 419.0,346.5 420.0,346.5 421.0,346.5 421.5,346.0 422.0,345.5 423.0,345.5 424.0,345.5 424.5,345.0 425.0,344.5 426.0,344.5 427.0,344.5 428.0,344.5 428.5,344.0 429.0,343.5 430.0,343.5 431.0,343.5 432.0,343.5 432.5,343.0 433.0,342.5 434.0,342.5 435.0,342.5 436.0,342.5 437.0,342.5 438.0,342.5 439.0,342.5 440.0,342.5 441.0,342.5 442.0,342.5 443.0,342.5 444.0,342.5 445.0,342.5 446.0,342.5 447.0,342.5 448.0,342.5 449.0,342.5 449.5,343.0 450.0,343.5 451.0,343.5 452.0,343.5 452.5,344.0 453.0,344.5 454.0,344.5 455.0,344.5 455.5,345.0 456.0,345.5 457.0,345.5 458.0,345.5 458.5,346.0 459.0,346.5 459.5,347.0 460.0,347.5 461.0,347.5 461.5,348.0 462.0,348.5 462.5,349.0 463.0,349.5 463.5,350.0 464.0,350.5 464.5,351.0 465.0,351.5 465.5,352.0 466.0,352.5 466.5,353.0 466.5,354.0 467.0,354.5 467.5,355.0 468.0,355.5 468.5,356.0 468.5,357.0 469.0,357.5 469.5,358.0 470.0,358.5 470.5,359.0 470.5,360.0 471.0,360.5 471.5,361.0 471.5,362.0 471.5,363.0 472.0,363.5 472.5,364.0 472.5,365.0 472.5,366.0 472.5,367.0 473.0,367.5 473.5,368.0 473.5,369.0 473.5,370.0 473.5,371.0 473.5,372.0 473.5,373.0 473.5,374.0 473.5,375.0 473.5,376.0 473.5,377.0 473.0,377.5 472.5,378.0 472.5,379.0 472.5,380.0 472.5,381.0 472.5,382.0 472.0,382.5 471.5,383.0 471.5,384.0 471.5,385.0 471.0,385.5 470.5,386.0 470.5,387.0 470.0,387.5 469.5,388.0 469.5,389.0 469.0,389.5 468.5,390.0 468.0,390.5 467.5,391.0 467.5,392.0 467.0,392.5 466.5,393.0 466.0,393.5 465.5,394.0 465.0,394.5 464.0,394.5 463.5,395.0 463.5,396.0 463.0,396.5 462.5,397.0 462.0,397.5 461.5,398.0 461.0,398.5 460.5,399.0 460.0,399.5 459.0,399.5 458.5,400.0 458.0,400.5 457.0,400.5 456.5,401.0 456.5,402.0 456.0,402.5 455.5,403.0 455.0,403.5 454.0,403.5 453.5,404.0 453.0,404.5 452.0,404.5 451.5,405.0 451.0,405.5 450.0,405.5 449.5,406.0 449.0,406.5 448.5,407.0 448.0,407.5 447.0,407.5 446.0,407.5 445.5,408.0 445.0,408.5 444.0,408.5 443.5,409.0 443.0,409.5 442.0,409.5 441.5,410.0 441.0,410.5 440.0,410.5 439.0,410.5 438.5,411.0 438.0,411.5 437.0,411.5 436.5,412.0 436.0,412.5 435.0,412.5 434.5,413.0 434.0,413.5 433.0,413.5 432.5,414.0 432.0,414.5 431.0,414.5 430.5,415.0 430.0,415.5 429.0,415.5 428.5,416.0 428.0,416.5 427.0,416.5 426.0,416.5 425.5,417.0 425.0,417.5 424.0,417.5 423.5,418.0 423.0,418.5 422.0,418.5 421.5,419.0 421.0,419.5 420.0,419.5 419.0,419.5 418.5,420.0 418.0,420.5 417.0,420.5 416.5,421.0 416.0,421.5 415.0,421.5 414.5,422.0 414.0,422.5 413.0,422.5 412.0,422.5 411.5,423.0 411.0,423.5 410.0,423.5 409.5,424.0 409.0,424.5 408.0,424.5 407.5,425.0 407.0,425.5 406.0,425.5 405.0,425.5 404.5,426.0 404.0,426.5 403.0,426.5 402.5,427.0 402.0,427.5 401.0,427.5 400.5,428.0 400.0,428.5 399.0,428.5 398.5,429.0 398.0,429.5 397.0,429.5 396.0,429.5 395.5,430.0 395.0,430.5 394.0,430.5 393.5,431.0 393.0,431.5 392.0,431.5 391.5,432.0 391.0,432.5 390.0,432.5 389.0,432.5 388.5,433.0 388.0,433.5 387.0,433.5 386.5,434.0 386.0,434.5 385.0,434.5 384.5,435.0 384.0,435.5 383.0,435.5 382.5,436.0 382.0,436.5 381.0,436.5 380.5,437.0 380.0,437.5 379.0,437.5 378.0,437.5 377.5,438.0 377.0,438.5 376.0,438.5 375.5,439.0 375.0,439.5 374.0,439.5 373.5,440.0 373.0,440.5 372.0,440.5 371.5,441.0 371.0,441.5 370.0,441.5 369.0,441.5 368.5,442.0 368.0,442.5 367.0,442.5 366.5,443.0 366.0,443.5 365.0,443.5 364.5,444.0 364.0,444.5 363.0,444.5 362.0,444.5 361.5,445.0 361.0,445.5 360.0,445.5 359.5,446.0 359.0,446.5 358.0,446.5 357.5,447.0 357.0,447.5 356.0,447.5 355.0,447.5 354.5,448.0 354.0,448.5 353.0,448.5 352.5,449.0 352.0,449.5 351.0,449.5 350.5,450.0 350.0,450.5 349.0,450.5 348.5,451.0 348.0,451.5 347.0,451.5 346.5,452.0 346.0,452.5 345.0,452.5 344.5,453.0 344.0,453.5 343.0,453.5 342.0,453.5 341.5,454.0 341.0,454.5 340.0,454.5 339.5,455.0 339.0,455.5 338.0,455.5 337.5,456.0 337.0,456.5 336.0,456.5 335.0,456.5 334.5,457.0 334.0,457.5 333.0,457.5 332.5,458.0 332.0,458.5 331.0,458.5 330.5,459.0 330.0,459.5 329.0,459.5 328.5,460.0 328.0,460.5 327.0,460.5 326.5,461.0 326.0,461.5 325.0,461.5 324.0,461.5 323.5,462.0 323.0,462.5 322.0,462.5 321.5,463.0 321.0,463.5 320.0,463.5 319.5,464.0 319.0,464.5 318.0,464.5 317.0,464.5 316.5,465.0 316.0,465.5 315.0,465.5 314.0,465.5 313.0,465.5 312.5,466.0 312.0,466.5 311.0,466.5 310.0,466.5 309.5,467.0 309.0,467.5 308.0,467.5 307.0,467.5 306.0,467.5 305.0,467.5 304.5,468.0 304.0,468.5 303.0,468.5 302.0,468.5 301.0,468.5 300.0,468.5 299.0,468.5 298.0,468.5 297.5,469.0 297.0,469.5 296.0,469.5 295.0,469.5 294.0,469.5 293.0,469.5 292.0,469.5 291.0,469.5 290.0,469.5 289.0,469.5 288.0,469.5 287.0,469.5 286.0,469.5 285.0,469.5 284.5,469.0 284.0,468.5 283.0,468.5 282.0,468.5 281.0,468.5 280.0,468.5 279.0,468.5 278.5,468.0 278.0,467.5 277.0,467.5 276.0,467.5 275.0,467.5 274.0,467.5 273.5,467.0 273.0,466.5 272.0,466.5 271.0,466.5 270.5,466.0 270.0,465.5 269.0,465.5 268.0,465.5 267.5,465.0 267.0,464.5 266.0,464.5 265.0,464.5 264.5,464.0 264.0,463.5 263.0,463.5 262.0,463.5 261.5,463.0 261.0,462.5 260.0,462.5 259.5,462.0 259.0,461.5 258.0,461.5 257.0,461.5 256.5,461.0 256.0,460.5 255.0,460.5 254.5,460.0 254.0,459.5 253.0,459.5 252.0,459.5 251.5,459.0 251.0,458.5 250.0,458.5 249.5,458.0 249.0,457.5 248.0,457.5 247.0,457.5 246.5,457.0 246.0,456.5 245.0,456.5 244.5,456.0 244.0,455.5 243.0,455.5 242.5,455.0 242.0,454.5 241.0,454.5 240.0,454.5 239.5,454.0 239.0,453.5 238.0,453.5 237.5,453.0 237.0,452.5 236.0,452.5 235.0,452.5 234.5,452.0 234.0,451.5 233.0,451.5 232.0,451.5 231.5,451.0 231.0,450.5 230.0,450.5 229.5,450.0 229.0,449.5 228.0,449.5 227.5,449.0 227.0,448.5 226.0,448.5 225.5,448.0 225.0,447.5 224.0,447.5 223.0,447.5 222.5,447.0 222.0,446.5 221.0,446.5 220.0,446.5 219.5,446.0 219.0,445.5 218.0,445.5 217.0,445.5 216.5,445.0 216.0,444.5 215.0,444.5 214.0,444.5 213.0,444.5 212.0,444.5 211.0,444.5 210.5,444.0 210.0,443.5 209.0,443.5 208.0,443.5 207.0,443.5 206.0,443.5 205.0,443.5 204.0,443.5 203.0,443.5 202.0,443.5 201.0,443.5 200.0,443.5 199.0,443.5 198.0,443.5 197.0,443.5 196.0,443.5 195.0,443.5 194.0,443.5 193.5,444.0 193.0,444.5 192.0,444.5 191.0,444.5 190.0,444.5 189.0,444.5 188.5,445.0 188.0,445.5 187.0,445.5 186.5,446.0 186.0,446.5 185.0,446.5 184.5,447.0 184.0,447.5 183.0,447.5 182.5,448.0 182.0,448.5 181.5,449.0 181.0,449.5 180.0,449.5 179.5,450.0 179.0,450.5 178.5,451.0 178.0,451.5 177.5,452.0 177.5,453.0 177.5,454.0 178.0,454.5 178.5,455.0 178.5,456.0 178.5,457.0 179.0,457.5 179.5,458.0 179.5,459.0 179.5,460.0 179.5,461.0 180.0,461.5 180.5,462.0 180.5,463.0 180.5,464.0 180.5,465.0 180.5,466.0 180.5,467.0 180.5,468.0 180.0,468.5 179.5,469.0 179.5,470.0 179.5,471.0 179.5,472.0 179.0,472.5 178.5,473.0 178.5,474.0 178.0,474.5 177.5,475.0 177.0,475.5 176.5,476.0 176.5,477.0 176.0,477.5 175.5,478.0 175.5,479.0 175.0,479.5 174.5,480.0 174.0,480.5 173.5,481.0 173.0,481.5 172.5,482.0 172.5,483.0 172.0,483.5 171.5,484.0 171.0,484.5 170.5,485.0 170.0,485.5 169.5,486.0 169.0,486.5 168.5,487.0 168.5,488.0 168.0,488.5 167.5,489.0 167.0,489.5 166.5,490.0 166.0,490.5 165.5,491.0 165.0,491.5 164.5,492.0 164.0,492.5 163.5,493.0 163.5,494.0 163.0,494.5 162.5,495.0 162.0,495.5 161.5,496.0 161.0,496.5 160.5,497.0 160.5,498.0 160.0,498.5 159.5,499.0 159.0,499.5 158.5,500.0 158.0,500.5 157.5,501.0 157.5,502.0 157.0,502.5 156.5,503.0 156.0,503.5 155.5,504.0 155.0,504.5 154.5,505.0 154.0,505.5 153.5,506.0 153.0,506.5 152.5,507.0 152.0,507.5 151.5,508.0 151.0,508.5 150.5,509.0 150.0,509.5 149.5,510.0 149.0,510.5 148.0,510.5 147.0,510.5 146.5,511.0" stroke="black" stroke-width="2" /><polyline fill="none" points="299.5,453.0 300.0,452.5 301.0,452.5 302.0,452.5 303.0,452.5 304.0,452.5 304.5,452.0 305.0,451.5 306.0,451.5 307.0,451.5 308.0,451.5 308.5,451.0 309.0,450.5 310.0,450.5 311.0,450.5 311.5,450.0 312.0,449.5 313.0,449.5 314.0,449.5 314.5,449.0 315.0,448.5 316.0,448.5 316.5,448.0 317.0,447.5 318.0,447.5 319.0,447.5 319.5,447.0 320.0,446.5 321.0,446.5 321.5,446.0 322.0,445.5 323.0,445.5 323.5,445.0 324.0,444.5 325.0,444.5 325.5,444.0 326.0,443.5 327.0,443.5 328.0,443.5 328.5,443.0 329.0,442.5 330.0,442.5 330.5,442.0 331.0,441.5 332.0,441.5 332.5,441.0 333.0,440.5 334.0,440.5 334.5,440.0 335.0,439.5 336.0,439.5 337.0,439.5 337.5,439.0 338.0,438.5 339.0,438.5 339.5,438.0 340.0,437.5 341.0,437.5 341.5,437.0 342.0,436.5 343.0,436.5 343.5,436.0 344.0,435.5 345.0,435.5 345.5,435.0 346.0,434.5 347.0,434.5 348.0,434.5 348.5,434.0 349.0,433.5 350.0,433.5 350.5,433.0 351.0,432.5 352.0,432.5 352.5,432.0 353.0,431.5 354.0,431.5 354.5,431.0 355.0,430.5 356.0,430.5 357.0,430.5 357.5,430.0 358.0,429.5 359.0,429.5 359.5,429.0 360.0,428.5 361.0,428.5 361.5,428.0 362.0,427.5 363.0,427.5 364.0,427.5 364.5,427.0 365.0,426.5 366.0,426.5 366.5,426.0 367.0,425.5 368.0,425.5 368.5,425.0 369.0,424.5 370.0,424.5 370.5,424.0 371.0,423.5 372.0,423.5 372.5,423.0 373.0,422.5 374.0,422.5 375.0,422.5 375.5,422.0 376.0,421.5 377.0,421.5 377.5,421.0 378.0,420.5 379.0,420.5 379.5,420.0 380.0,419.5 381.0,419.5 381.5,419.0 382.0,418.5 383.0,418.5 383.5,418.0 384.0,417.5 385.0,417.5 386.0,417.5 386.5,417.0 387.0,416.5 388.0,416.5 388.5,416.0 389.0,415.5 390.0,415.5 390.5,415.0 391.0,414.5 392.0,414.5 393.0,414.5 393.5,414.0 394.0,413.5 395.0,413.5 395.5,413.0 396.0,412.5 397.0,412.5 397.5,412.0 398.0,411.5 399.0,411.5 400.0,411.5 400.5,411.0 401.0,410.5 402.0,410.5 402.5,410.0 403.0,409.5 404.0,409.5 404.5,409.0 405.0,408.5 406.0,408.5 407.0,408.5 407.5,408.0 408.0,407.5 409.0,407.5 409.5,407.0 410.0,406.5 411.0,406.5 411.5,406.0 412.0,405.5 413.0,405.5 413.5,405.0 414.0,404.5 415.0,404.5 415.5,404.0 416.0,403.5 417.0,403.5 418.0,403.5 418.5,403.0 419.0,402.5 420.0,402.5 420.5,402.0 421.0,401.5 422.0,401.5 422.5,401.0 423.0,400.5 424.0,400.5 424.5,400.0 425.0,399.5 426.0,399.5 427.0,399.5 427.5,399.0 428.0,398.5 429.0,398.5 429.5,398.0 430.0,397.5 431.0,397.5 432.0,397.5 432.5,397.0 433.0,396.5 434.0,396.5 434.5,396.0 435.0,395.5 436.0,395.5 436.5,395.0 437.0,394.5 438.0,394.5 438.5,394.0 439.0,393.5 440.0,393.5 440.5,393.0 441.0,392.5 442.0,392.5 443.0,392.5 443.5,392.0 444.0,391.5 445.0,391.5 445.5,391.0 446.0,390.5 446.5,390.0 447.0,389.5 448.0,389.5 448.5,389.0 449.0,388.5 449.5,388.0 450.0,387.5 450.5,387.0 451.0,386.5 451.5,386.0 452.0,385.5 452.5,385.0 453.0,384.5 453.5,384.0 454.0,383.5 454.5,383.0 455.0,382.5 455.5,382.0 456.0,381.5 456.5,381.0 456.5,380.0 456.5,379.0 457.0,378.5 457.5,378.0 457.5,377.0 457.5,376.0 457.5,375.0 457.5,374.0 457.5,373.0 457.5,372.0 457.5,371.0 457.5,370.0 457.5,369.0 457.5,368.0 457.0,367.5 456.5,367.0 456.5,366.0 456.5,365.0 456.0,364.5 455.5,364.0 455.0,363.5 454.5,363.0 454.0,362.5 453.5,362.0 453.0,361.5 452.5,361.0 452.0,360.5 451.0,360.5 450.5,360.0 450.0,359.5 449.0,359.5 448.5,359.0 448.0,358.5 447.0,358.5 446.5,358.0 446.0,357.5 445.0,357.5 444.0,357.5 443.0,357.5 442.0,357.5 441.0,357.5 440.0,357.5 439.0,357.5 438.0,357.5 437.0,357.5 436.0,357.5 435.5,358.0 435.0,358.5 434.0,358.5 433.0,358.5 432.0,358.5 431.0,358.5 430.5,359.0 430.0,359.5 429.0,359.5 428.0,359.5 427.5,360.0 427.0,360.5 426.0,360.5 425.0,360.5 424.5,361.0 424.0,361.5 423.0,361.5 422.0,361.5 421.5,362.0 421.0,362.5 420.0,362.5 419.0,362.5 418.5,363.0 418.0,363.5 417.0,363.5 416.0,363.5 415.0,363.5 414.5,364.0 414.0,364.5 413.0,364.5 412.0,364.5 411.5,365.0 411.0,365.5 410.0,365.5 409.0,365.5 408.5,366.0 408.0,366.5 407.0,366.5 406.0,366.5 405.0,366.5 404.5,367.0 404.0,367.5 403.0,367.5 402.0,367.5 401.5,368.0 401.0,368.5 400.0,368.5 399.0,368.5 398.5,369.0 398.0,369.5 397.0,369.5 396.0,369.5 395.0,369.5 394.5,370.0 394.0,370.5 393.0,370.5 392.0,370.5 391.5,371.0 391.0,371.5 390.0,371.5 389.0,371.5 388.0,371.5 387.5,372.0 387.0,372.5 386.0,372.5 385.0,372.5 384.5,373.0 384.0,373.5 383.0,373.5 382.0,373.5 381.0,373.5 380.5,374.0 380.0,374.5 379.0,374.5 378.0,374.5 377.5,375.0 377.0,375.5 376.0,375.5 375.0,375.5 374.5,376.0 374.0,376.5 373.0,376.5 372.0,376.5 371.0,376.5 370.5,377.0 370.0,377.5 369.0,377.5 368.0,377.5 367.5,378.0 367.0,378.5 366.0,378.5 365.0,378.5 364.5,379.0 364.0,379.5 363.0,379.5 362.0,379.5 361.0,379.5 360.5,380.0 360.0,380.5 359.0,380.5 358.0,380.5 357.0,380.5 356.5,381.0 356.0,381.5 355.0,381.5 354.0,381.5 353.5,382.0 353.0,382.5 352.0,382.5 351.0,382.5 350.0,382.5 349.5,383.0 349.0,383.5 348.0,383.5 347.0,383.5 346.5,384.0 346.0,384.5 345.0,384.5 344.0,384.5 343.0,384.5 342.5,385.0 342.0,385.5 341.0,385.5 340.0,385.5 339.5,386.0 339.0,386.5 338.0,386.5 337.5,387.0 337.0,387.5 336.0,387.5 335.5,388.0 335.0,388.5 334.0,388.5 333.5,389.0 333.0,389.5 332.5,390.0 332.0,390.5 331.5,391.0 331.0,391.5 330.5,392.0 330.0,392.5 329.5,393.0 329.0,393.5 328.5,394.0 328.0,394.5 327.5,395.0 327.5,396.0 327.0,396.5 326.0,396.5 325.5,397.0 325.0,397.5 324.5,398.0 324.0,398.5 323.5,399.0 323.0,399.5 322.5,400.0 322.0,400.5 321.0,400.5 320.5,401.0 320.0,401.5 319.0,401.5 318.5,402.0 318.0,402.5 317.0,402.5 316.0,402.5 315.0,402.5 314.0,402.5 313.5,403.0 313.0,403.5 312.0,403.5 311.0,403.5 310.0,403.5 309.0,403.5 308.0,403.5 307.0,403.5 306.0,403.5 305.5,403.0 305.0,402.5 304.0,402.5 303.0,402.5 302.0,402.5 301.0,402.5 300.0,402.5 299.5,402.0 299.0,401.5 298.0,401.5 297.0,401.5 296.0,401.5 295.5,401.0 295.0,400.5 294.0,400.5 293.0,400.5 292.0,400.5 291.5,400.0 291.0,399.5 290.0,399.5 289.0,399.5 288.0,399.5 287.5,399.0 287.0,398.5 286.0,398.5 285.0,398.5 284.0,398.5 283.5,398.0 283.0,397.5 282.0,397.5 281.0,397.5 280.0,397.5 279.5,397.0 279.0,396.5 278.0,396.5 277.0,396.5 276.0,396.5 275.5,396.0 275.0,395.5 274.0,395.5 273.0,395.5 272.0,395.5 271.5,395.0 271.0,394.5 270.0,394.5 269.0,394.5 268.0,394.5 267.5,394.0 267.0,393.5 266.0,393.5 265.0,393.5 264.0,393.5 263.5,393.0 263.0,392.5 262.0,392.5 261.0,392.5 260.0,392.5 259.5,392.0 259.0,391.5 258.0,391.5 257.0,391.5 256.0,391.5 255.0,391.5 254.5,391.0 254.0,390.5 253.0,390.5 252.0,390.5 251.0,390.5 250.5,390.0 250.0,389.5 249.0,389.5 248.0,389.5 247.0,389.5 246.5,389.0 246.0,388.5 245.0,388.5 244.0,388.5 243.5,388.0 243.0,387.5 242.0,387.5 241.5,387.0 241.0,386.5 240.5,386.0 240.5,385.0 240.0,384.5 239.5,384.0 239.5,383.0 239.5,382.0 239.0,381.5 238.5,381.0 239.0,380.5 239.5,380.0 239.5,379.0 239.5,378.0 240.0,377.5 240.5,377.0 241.0,376.5 241.5,376.0 242.0,375.5 243.0,375.5 243.5,375.0 244.0,374.5 245.0,374.5 246.0,374.5 247.0,374.5 248.0,374.5 249.0,374.5 250.0,374.5 250.5,375.0 251.0,375.5 252.0,375.5 253.0,375.5 254.0,375.5 255.0,375.5 256.0,375.5 256.5,376.0 257.0,376.5 258.0,376.5 259.0,376.5 259.5,377.0 260.0,377.5 261.0,377.5 262.0,377.5 263.0,377.5 263.5,378.0 264.0,378.5 265.0,378.5 266.0,378.5 267.0,378.5 267.5,379.0 268.0,379.5 269.0,379.5 270.0,379.5 271.0,379.5 271.5,380.0 272.0,380.5 273.0,380.5 274.0,380.5 275.0,380.5 275.5,381.0 276.0,381.5 277.0,381.5 278.0,381.5 279.0,381.5 280.0,381.5 280.5,382.0 281.0,382.5 282.0,382.5 283.0,382.5 284.0,382.5 284.5,383.0 285.0,383.5 286.0,383.5 287.0,383.5 287.5,384.0 288.0,384.5 289.0,384.5 290.0,384.5 291.0,384.5 291.5,385.0 292.0,385.5 293.0,385.5 294.0,385.5 295.0,385.5 295.5,386.0 296.0,386.5 297.0,386.5 298.0,386.5 299.0,386.5 299.5,387.0 300.0,387.5 301.0,387.5 302.0,387.5 303.0,387.5 304.0,387.5 305.0,387.5 306.0,387.5 307.0,387.5 307.5,388.0 308.0,388.5 309.0,388.5 310.0,388.5 311.0,388.5 312.0,388.5 313.0,388.5 313.5,388.0 314.0,387.5 314.5,387.0 315.0,386.5 316.0,386.5 316.5,386.0 316.5,385.0 317.0,384.5 317.5,384.0 318.0,383.5 318.5,383.0 318.5,382.0 319.0,381.5 319.5,381.0 319.5,380.0 320.0,379.5 320.5,379.0 320.5,378.0 320.5,377.0 320.5,376.0 320.5,375.0 320.5,374.0 320.5,373.0 320.5,372.0 320.5,371.0 320.0,370.5 319.5,370.0 319.5,369.0 319.5,368.0 319.0,367.5 318.5,367.0 318.0,366.5 317.5,366.0 317.0,365.5 316.0,365.5 315.5,365.0 315.0,364.5 314.5,364.0 314.0,363.5 313.5,363.0 313.0,362.5 312.0,362.5 311.5,362.0 311.0,361.5 310.0,361.5 309.5,361.0 309.0,360.5 308.5,360.0 308.0,359.5 307.0,359.5 306.0,359.5 305.5,359.0 305.0,358.5 304.0,358.5 303.5,358.0 303.0,357.5 302.0,357.5 301.5,357.0 301.0,356.5 300.0,356.5 299.0,356.5 298.5,356.0 298.0,355.5 297.0,355.5 296.0,355.5 295.5,355.0 295.0,354.5 294.0,354.5 293.5,354.0 293.0,353.5 292.0,353.5 291.0,353.5 290.5,353.0 290.0,352.5 289.0,352.5 288.0,352.5 287.5,352.0 287.0,351.5 286.0,351.5 285.5,351.0 285.0,350.5 284.0,350.5 283.0,350.5 282.5,350.0 282.0,349.5 281.0,349.5 280.5,349.0 280.0,348.5 279.0,348.5 278.0,348.5 277.5,348.0 277.0,347.5 276.0,347.5 275.5,347.0 275.0,346.5 274.0,346.5 273.0,346.5 272.5,346.0 272.0,345.5 271.0,345.5 270.5,345.0 270.0,344.5 269.0,344.5 268.0,344.5 267.5,344.0 267.0,343.5 266.0,343.5 265.5,343.0 265.0,342.5 264.0,342.5 263.0,342.5 262.5,342.0 262.0,341.5 261.0,341.5 260.5,341.0 260.0,340.5 259.0,340.5 258.0,340.5 257.5,340.0 257.0,339.5 256.0,339.5 255.0,339.5 254.5,339.0 254.0,338.5 253.0,338.5 252.0,338.5 251.5,338.0 251.0,337.5 250.0,337.5 249.0,337.5 248.5,337.0 248.0,336.5 247.0,336.5 246.0,336.5 245.0,336.5 244.0,336.5 243.5,336.0 243.0,335.5 242.0,335.5 241.0,335.5 240.0,335.5 239.0,335.5 238.0,335.5 237.5,335.0 237.0,334.5 236.0,334.5 235.0,334.5 234.0,334.5 233.0,334.5 232.0,334.5 231.0,334.5 230.0,334.5 229.0,334.5 228.0,334.5 227.0,334.5 226.0,334.5 225.0,334.5 224.0,334.5 223.0,334.5 222.0,334.5 221.0,334.5 220.0,334.5 219.0,334.5 218.0,334.5 217.0,334.5 216.0,334.5 215.0,334.5 214.0,334.5 213.0,334.5 212.0,334.5 211.0,334.5 210.0,334.5 209.0,334.5 208.0,334.5 207.0,334.5 206.0,334.5 205.0,334.5 204.0,334.5 203.0,334.5 202.0,334.5 201.0,334.5 200.0,334.5 199.0,334.5 198.0,334.5 197.0,334.5 196.5,335.0 196.0,335.5 195.0,335.5 194.0,335.5 193.0,335.5 192.0,335.5 191.0,335.5 190.0,335.5 189.0,335.5 188.5,336.0 188.0,336.5 187.0,336.5 186.0,336.5 185.0,336.5 184.5,337.0 184.0,337.5 183.0,337.5 182.0,337.5 181.0,337.5 180.0,337.5 179.5,338.0 179.0,338.5 178.0,338.5 177.0,338.5 176.5,339.0 176.0,339.5 175.0,339.5 174.0,339.5 173.0,339.5 172.5,340.0 172.0,340.5 171.0,340.5 170.0,340.5 169.5,341.0 169.0,341.5 168.0,341.5 167.0,341.5 166.5,342.0 166.0,342.5 165.0,342.5 164.0,342.5 163.5,343.0 163.0,343.5 162.0,343.5 161.5,344.0 161.0,344.5 160.0,344.5 159.5,345.0 159.0,345.5 158.0,345.5 157.5,346.0 157.0,346.5 156.0,346.5 155.0,346.5 154.5,347.0 154.0,347.5 153.0,347.5 152.5,348.0 152.0,348.5 151.5,349.0 151.0,349.5 150.0,349.5 149.5,350.0 149.0,350.5 148.0,350.5 147.5,351.0 147.0,351.5 146.0,351.5 145.5,352.0 145.0,352.5 144.0,352.5 143.5,353.0 143.0,353.5 142.0,353.5 141.5,354.0 141.0,354.5 140.5,355.0 140.0,355.5 139.0,355.5 138.5,356.0 138.0,356.5 137.0,356.5 136.5,357.0 136.0,357.5 135.5,358.0 135.0,358.5 134.0,358.5 133.5,359.0 133.0,359.5 132.5,360.0 132.0,360.5 131.0,360.5 130.5,361.0 130.0,361.5 129.5,362.0 129.0,362.5 128.0,362.5 127.5,363.0 127.0,363.5 126.5,364.0 126.0,364.5 125.0,364.5 124.5,365.0 124.0,365.5 123.5,366.0 123.0,366.5 122.5,367.0 122.0,367.5 121.0,367.5 120.5,368.0 120.0,368.5 119.5,369.0 119.0,369.5 118.5,370.0 118.0,370.5 117.5,371.0 117.0,371.5 116.5,372.0 116.0,372.5 115.0,372.5 114.5,373.0 114.0,373.5 113.5,374.0 113.0,374.5 112.5,375.0 112.0,375.5 111.5,376.0 111.0,376.5 110.5,377.0 110.0,377.5 109.5,378.0 109.0,378.5 108.5,379.0 108.0,379.5 107.5,380.0 107.0,380.5 106.5,381.0 106.0,381.5 105.5,382.0 105.0,382.5 104.5,383.0 104.0,383.5 103.5,384.0 103.0,384.5 102.5,385.0 102.0,385.5 101.5,386.0 101.0,386.5 100.5,387.0 100.5,388.0 100.0,388.5 99.5,389.0 99.0,389.5 98.5,390.0 98.5,391.0 99.0,391.5 99.5,392.0 100.0,392.5 100.5,393.0 101.0,393.5 101.5,394.0 102.0,394.5 103.0,394.5 103.5,395.0 104.0,395.5 104.5,396.0 105.0,396.5 105.5,397.0 106.0,397.5 106.5,398.0 107.0,398.5 107.5,399.0 108.0,399.5 109.0,399.5 109.5,400.0 110.0,400.5 110.5,401.0 111.0,401.5 111.5,402.0 112.0,402.5 112.5,403.0 113.0,403.5 114.0,403.5 114.5,404.0 115.0,404.5 115.5,405.0 116.0,405.5 116.5,406.0 117.0,406.5 117.5,407.0 118.0,407.5 119.0,407.5 119.5,408.0 120.0,408.5 120.5,409.0 121.0,409.5 121.5,410.0 122.0,410.5 122.5,411.0 123.0,411.5 124.0,411.5 124.5,412.0 125.0,412.5 125.5,413.0 126.0,413.5 126.5,414.0 127.0,414.5 127.5,415.0 128.0,415.5 128.5,416.0 129.0,416.5 130.0,416.5 130.5,417.0 131.0,417.5 131.5,418.0 132.0,418.5 132.5,419.0 133.0,419.5 133.5,420.0 134.0,420.5 135.0,420.5 135.5,421.0 136.0,421.5 136.5,422.0 137.0,422.5 137.5,423.0 138.0,423.5 139.0,423.5 139.5,424.0 140.0,424.5 140.5,425.0 141.0,425.5 141.5,426.0 142.0,426.5 142.5,427.0 143.0,427.5 144.0,427.5 144.5,428.0 145.0,428.5 145.5,429.0 146.0,429.5 146.5,430.0 147.0,430.5 147.5,431.0 148.0,431.5 149.0,431.5 149.5,432.0 150.0,432.5 150.5,433.0 151.0,433.5 151.5,434.0 152.0,434.5 152.5,435.0 153.0,435.5 153.5,436.0 154.0,436.5 154.5,437.0 155.0,437.5 155.5,438.0 156.0,438.5 157.0,438.5 157.5,439.0 158.0,439.5 158.5,440.0 159.0,440.5 159.5,441.0 160.0,441.5 161.0,441.5 161.5,442.0 162.0,442.5 163.0,442.5 164.0,442.5 165.0,442.5 165.5,442.0 166.0,441.5 166.5,441.0 167.0,440.5 167.5,440.0 168.0,439.5 169.0,439.5 169.5,439.0 170.0,438.5 170.5,438.0 171.0,437.5 171.5,437.0 172.0,436.5 172.5,436.0 173.0,435.5 174.0,435.5 174.5,435.0 175.0,434.5 175.5,434.0 176.0,433.5 177.0,433.5 177.5,433.0 178.0,432.5 179.0,432.5 179.5,432.0 180.0,431.5 181.0,431.5 182.0,431.5 182.5,431.0 183.0,430.5 184.0,430.5 185.0,430.5 185.5,430.0 186.0,429.5 187.0,429.5 188.0,429.5 188.5,429.0 189.0,428.5 190.0,428.5 191.0,428.5 192.0,428.5 193.0,428.5 194.0,428.5 195.0,428.5 196.0,428.5 197.0,428.5 198.0,428.5 199.0,428.5 199.5,428.0 200.0,427.5 201.0,427.5 202.0,427.5 203.0,427.5 204.0,427.5 204.5,428.0 205.0,428.5 206.0,428.5 207.0,428.5 208.0,428.5 209.0,428.5 210.0,428.5 211.0,428.5 212.0,428.5 213.0,428.5 214.0,428.5 214.5,429.0 215.0,429.5 216.0,429.5 217.0,429.5 218.0,429.5 218.5,430.0 219.0,430.5 220.0,430.5 221.0,430.5 222.0,430.5 222.5,431.0 223.0,431.5 224.0,431.5 225.0,431.5 225.5,432.0 226.0,432.5 227.0,432.5 228.0,432.5 228.5,433.0 229.0,433.5 230.0,433.5 230.5,434.0 231.0,434.5 232.0,434.5 233.0,434.5 234.0,434.5 234.5,435.0 235.0,435.5 236.0,435.5 236.5,436.0 237.0,436.5 238.0,436.5 239.0,436.5 239.5,437.0 240.0,437.5 241.0,437.5 241.5,438.0 242.0,438.5 243.0,438.5 244.0,438.5 244.5,439.0 245.0,439.5 246.0,439.5 246.5,440.0 247.0,440.5 248.0,440.5 249.0,440.5 249.5,441.0 250.0,441.5 251.0,441.5 251.5,442.0 252.0,442.5 253.0,442.5 254.0,442.5 254.5,443.0 255.0,443.5 256.0,443.5 256.5,444.0 257.0,444.5 258.0,444.5 259.0,444.5 259.5,445.0 260.0,445.5 261.0,445.5 261.5,446.0 262.0,446.5 263.0,446.5 264.0,446.5 264.5,447.0 265.0,447.5 266.0,447.5 266.5,448.0 267.0,448.5 268.0,448.5 269.0,448.5 269.5,449.0 270.0,449.5 271.0,449.5 271.5,450.0 272.0,450.5 273.0,450.5 274.0,450.5 275.0,450.5 275.5,451.0 276.0,451.5 277.0,451.5 278.0,451.5 279.0,451.5 279.5,452.0 280.0,452.5 281.0,452.5 282.0,452.5 283.0,452.5 284.0,452.5 284.5,453.0 285.0,453.5 286.0,453.5 287.0,453.5 288.0,453.5 289.0,453.5 290.0,453.5 291.0,453.5 292.0,453.5 293.0,453.5 294.0,453.5 295.0,453.5 296.0,453.5 297.0,453.5 298.0,453.5 299.0,453.5 299.5,453.0" stroke="black" stroke-width="2" /></svg>
