<?xml version="1.0" encoding="UTF-8"?>
<svg version="1.1" xmlns="http://www.w3.org/2000/svg" width="512" height="512">
<path d="M0 0 C11.89051497 9.55061443 14.32342671 20.94418728 15.9453125 35.5625 C16.48196533 35.26593506 17.01861816 34.96937012 17.5715332 34.66381836 C39.36207023 22.71013911 62.12250856 13.6972447 86.9453125 10.5625 C87.77160156 10.45164062 88.59789062 10.34078125 89.44921875 10.2265625 C132.0100452 5.41816379 174.43361642 18.16652485 207.9453125 44.5625 C211.97883753 47.939919 215.80239046 51.52138625 219.55664062 55.20458984 C220.8315498 56.45125736 222.12958882 57.6741556 223.4296875 58.89453125 C245.15290953 79.68140751 255.09341687 108.48458754 259.9453125 137.5625 C260.15800781 138.82191406 260.37070312 140.08132812 260.58984375 141.37890625 C262.86110174 157.04895239 265.14539397 174.58357468 260.6640625 189.95703125 C258.06199171 199.38953786 260.97827488 207.09236155 265.48950195 215.40942383 C267.23670454 218.41672249 269.02154925 221.39827718 270.8203125 224.375 C290.68680109 257.92490915 290.68680109 257.92490915 287.5078125 274.8984375 C285.92450745 280.85562276 283.16396762 284.31790356 277.9453125 287.5625 C272.02061377 290.53111226 265.3278094 291.90821312 258.9453125 293.5625 C258.70879009 298.3655022 258.70879009 298.3655022 259.9453125 302.9375 C261.43051458 306.83615546 261.66342098 310.4496969 260.9453125 314.5625 C258.86049758 318.40819445 255.55387951 321.15678866 251.9453125 323.5625 C252.42677734 324.41521484 252.42677734 324.41521484 252.91796875 325.28515625 C254.59899086 329.01152846 254.63389794 332.56009713 253.9453125 336.5625 C251.37686059 340.06493442 249.33322317 341.39751202 245.3359375 343.09765625 C243.01591821 344.41071955 242.12047237 345.04521064 241.25610352 347.59790039 C240.94500565 350.1385764 240.82123097 352.62876377 240.7578125 355.1875 C240.64018106 357.00067454 240.51269126 358.81323837 240.375 360.625 C240.31022461 361.48609375 240.24544922 362.3471875 240.17871094 363.234375 C239.24031877 372.59473866 233.87093056 379.49720717 226.9453125 385.5625 C212.9748368 394.36470723 196.44454541 392.81254209 180.85400391 389.42944336 C176.0555688 388.28405276 171.59394321 386.68480732 167.02978516 384.82739258 C160.76874562 382.08764989 160.76874562 382.08764989 154.1328125 382.26953125 C151.70730296 383.82234901 149.90901214 385.4615078 147.9453125 387.5625 C147.336875 388.10003906 146.7284375 388.63757813 146.1015625 389.19140625 C136.24098036 398.16540096 128.91531791 411.1624496 123.90625 423.42578125 C123.567146 424.24691406 123.22804199 425.06804687 122.87866211 425.9140625 C122.22578518 427.52744801 121.59793497 429.15123819 120.99829102 430.78515625 C120.13270841 432.93257072 119.35760354 434.72643481 117.9453125 436.5625 C114.3203125 437.640625 114.3203125 437.640625 110.9453125 437.5625 C109.0078125 436.5 109.0078125 436.5 107.9453125 434.5625 C107.45602774 429.45135617 108.84491734 425.62573555 110.9453125 421.0625 C111.41626343 420.01799683 111.41626343 420.01799683 111.89672852 418.95239258 C119.24262055 402.98707901 128.79888888 386.38035336 142.9453125 375.5625 C143.2753125 374.9025 143.6053125 374.2425 143.9453125 373.5625 C142.70394531 373.20478516 142.70394531 373.20478516 141.4375 372.83984375 C137.33812287 371.34040715 133.80607371 369.35973572 130.0703125 367.125 C129.3285376 366.68325439 128.5867627 366.24150879 127.82250977 365.78637695 C99.51504382 348.72627477 62.49277674 322.95600053 52.9453125 289.5625 C52.6953125 285.8125 52.6953125 285.8125 52.9453125 282.5625 C54.9453125 280.5625 54.9453125 280.5625 57.8828125 280.25 C60.9453125 280.5625 60.9453125 280.5625 62.53125 281.8046875 C64.15108732 283.81829743 64.80948661 285.55411967 65.6328125 288 C77.92760464 319.89250593 112.8849379 343.49172038 141.54980469 359.24511719 C143.1512282 360.12580219 144.74824849 361.0145402 146.34082031 361.91113281 C165.02502967 372.42338279 190.68147599 384.30784389 212.609375 378.90625 C219.56959682 376.20596327 223.34558217 371.59647132 226.7578125 365.125 C228.35986054 360.40219941 228.39620607 355.40842406 228.47973633 350.46118164 C228.64640427 344.85277116 229.70879932 340.16011687 233.4453125 335.8203125 C235.94080005 333.93569951 237.95841084 332.55813389 240.9453125 331.5625 C239.83895829 328.24343737 238.23299518 326.99222633 235.3828125 325.1875 C232.54992682 323.27530217 232.03782628 322.83459935 230.8828125 319.4375 C230.9453125 316.5625 230.9453125 316.5625 232.9453125 313.5625 C235.52210479 312.85894885 237.95020347 312.31732468 240.5703125 311.875 C241.27671875 311.74544922 241.983125 311.61589844 242.7109375 311.48242188 C244.45370604 311.16448437 246.19928124 310.86200171 247.9453125 310.5625 C247.6153125 309.469375 247.2853125 308.37625 246.9453125 307.25 C245.38059601 300.85507172 244.47147463 293.69767573 247.5078125 287.625 C253.36604686 280.26465427 261.12997115 279.37166156 269.9453125 277.5625 C271.28079596 277.2378882 272.6152781 276.908762 273.9453125 276.5625 C277.55180654 263.4266518 271.31582983 251.52987186 265.1953125 240.125 C264.6681665 239.12581543 264.14102051 238.12663086 263.59790039 237.09716797 C260.70487759 231.66564003 257.68069091 226.38211738 254.3828125 221.1875 C246.71990011 209.07310324 246.23371656 198.4362135 248.9453125 184.5625 C249.21988281 183.61890625 249.21988281 183.61890625 249.5 182.65625 C253.9384285 161.78784934 248.95916424 127.09763848 238.9453125 108.5625 C223.76884396 119.15140486 211.92569173 131.07425403 201.39599609 146.22998047 C189.92916918 162.69958144 178.99540644 173.67733917 159.1953125 179.0625 C151.69638819 181.14146673 145.71577705 183.13677056 141.40234375 190.02734375 C138.2020896 196.13203023 136.91528829 201.00680304 136.6328125 207.875 C136.09057033 215.21170087 134.4962795 219.49429772 128.8828125 224.4375 C123.57780093 228.27516794 118.29293433 228.20170108 111.9453125 227.5625 C105.83747031 225.50794248 102.26625645 221.0726149 99.33984375 215.51171875 C98.55673828 213.89716797 98.55673828 213.89716797 97.7578125 212.25 C92.90804441 203.12830853 87.01079955 197.79061048 77.3046875 194.25390625 C66.7251656 191.15361589 56.21433729 192.14543706 46.203125 196.8515625 C35.654206 202.84745263 28.58249069 210.99875741 25.296875 222.9140625 C24.01725455 232.55386991 24.47748667 242.42781208 26.3828125 251.9375 C31.02039513 275.32514387 29.98535093 299.81353821 17.80859375 320.86328125 C13.34152806 327.33443931 7.86798058 334.13447621 0.9453125 338 C-3.4739585 341.77479398 -3.60918463 345.80069739 -4.61962891 351.36572266 C-9.85639605 377.80816415 -19.49294013 418.00075263 -39.0546875 437.5625 C-42.6171875 437.3125 -42.6171875 437.3125 -46.0546875 436.5625 C-47.47715782 433.71755935 -47.31598768 431.7283978 -47.0546875 428.5625 C-45.69140625 425.609375 -45.69140625 425.609375 -43.7421875 422.3125 C-29.53505664 397.09362497 -6.54645252 348.50386018 -14.6015625 318.52734375 C-16.97221863 313.2604615 -20.76786373 308.68752655 -24.14257812 304.02758789 C-49.11956193 269.48427386 -62.48374457 230.07614317 -64.0546875 187.5625 C-64.0959375 186.54929688 -64.1371875 185.53609375 -64.1796875 184.4921875 C-64.66818422 160.61691041 -60.34251112 136.55325764 -51.0546875 114.5625 C-52.93800781 114.63210937 -52.93800781 114.63210937 -54.859375 114.703125 C-72.47144101 115.16405411 -72.47144101 115.16405411 -80.0546875 110.5625 C-80.76753906 110.13839844 -81.48039062 109.71429688 -82.21484375 109.27734375 C-90.85033624 103.48268617 -95.27200851 94.69321595 -97.7421875 84.8125 C-99.941063 61.9441948 -92.25982275 41.57728886 -77.93359375 23.953125 C-59.71983633 3.04464055 -27.34098007 -18.59629414 0 0 Z M-57.0546875 19.5625 C-57.83714844 20.17996094 -58.61960937 20.79742187 -59.42578125 21.43359375 C-72.1870473 32.07166822 -83.78467691 49.76882944 -86.0546875 66.5625 C-86.86026968 75.76587475 -87.38815758 85.57727654 -82.0546875 93.5625 C-77.05783048 99.36637154 -71.37114663 102.83045744 -63.78515625 103.875 C-56.62818177 104.24498899 -49.28212782 103.19316984 -43.0546875 99.5625 C-40.55051843 96.31185419 -38.80590427 93.03114324 -37.0078125 89.36328125 C-29.34242308 73.7666737 -13.90609685 57.33022525 0.44921875 47.9140625 C2.71055652 45.87118294 2.85533456 43.5606966 3.12231445 40.59887695 C3.7688569 27.47080593 3.7688569 27.47080593 -1.0546875 15.5625 C-1.41691406 14.99402344 -1.77914062 14.42554688 -2.15234375 13.83984375 C-5.76382521 8.85722357 -10.55566909 6.34705896 -16.44140625 5.02734375 C-31.76881587 2.93396127 -45.45305821 10.20070261 -57.0546875 19.5625 Z M-11.51855469 73.11230469 C-42.81592666 107.30718694 -53.72654138 150.17676053 -52.0546875 195.5625 C-49.29139373 236.74608632 -32.89389129 272.1276697 -8.9921875 305.1875 C-4.41812341 311.68690006 -2.75576489 317.71043324 -2.0546875 325.5625 C9.12718381 318.01473687 13.8268381 304.48211324 16.5234375 291.85546875 C18.42654123 277.00068682 16.97645411 262.04340254 14.3684082 247.38183594 C11.57475391 231.5980003 13.12572774 216.37466908 21.9453125 202.5625 C29.48227606 191.90839719 40.8691661 184.57978387 53.6875 181.96484375 C69.2605406 180.04155456 84.09757334 181.71698167 96.9453125 191.5625 C103.05745006 197.05231083 106.73070164 203.40337187 110.3046875 210.7421875 C111.95046624 213.57135952 113.1130148 214.97107143 115.9453125 216.5625 C119.04180126 216.72698881 119.04180126 216.72698881 121.9453125 215.5625 C125.17242519 211.49386749 125.43068401 207.49959515 125.7578125 202.5 C126.71235865 191.96598238 130.53132721 182.00102503 138.8203125 174.97265625 C144.61508448 171.29766299 150.45668954 169.39794135 157.0078125 167.5625 C166.89713257 164.78975959 173.95791929 161.28540829 180.9453125 153.5625 C181.41839844 153.07007813 181.89148438 152.57765625 182.37890625 152.0703125 C186.60636052 147.50831149 190.10287067 142.53982419 193.6328125 137.4375 C205.13035161 120.92770454 217.47305138 107.94955287 234.9453125 97.5625 C233.36060814 86.68746631 225.22216709 78.22988346 217.9453125 70.5625 C216.79358959 69.21333888 215.64738332 67.85944096 214.5078125 66.5 C193.26381718 42.35909623 161.3946796 27.36675114 129.9453125 22.5625 C128.77226562 22.37945312 127.59921875 22.19640625 126.390625 22.0078125 C75.29313362 15.88418059 23.61666815 35.91444035 -11.51855469 73.11230469 Z " fill="#000000" transform="translate(161.0546875,40.4375)"/>
<path d="M0 0 C1.97057373 0.00737183 1.97057373 0.00737183 3.98095703 0.01489258 C41.56478021 0.46756988 73.42438698 16.89969981 99.875 42.8125 C100.98637555 43.9723015 102.09177304 45.13790323 103.1875 46.3125 C104.0125 47.158125 104.8375 48.00375 105.6875 48.875 C107.71931854 52.17670513 107.61787946 54.51081473 107.1875 58.3125 C105.1875 60.3125 105.1875 60.3125 102.375 60.75 C98.09258869 60.16221806 97.12652767 58.4578491 94.1875 55.3125 C70.19892399 29.90949432 40.67127597 13.70521018 5.24609375 12.03125 C-25.30984047 11.16933922 -56.17802407 20.01155152 -80.8125 38.3125 C-81.62332031 38.90160156 -82.43414062 39.49070313 -83.26953125 40.09765625 C-111.6504868 61.6928583 -129.21663149 93.1751096 -134.09814453 128.37207031 C-136.79359228 150.19603545 -134.64937214 172.84951367 -128.58203125 193.9375 C-127.76052331 197.5404587 -127.53719274 200.62970128 -127.8125 204.3125 C-129.8125 206.3125 -129.8125 206.3125 -133.25 206.75 C-136.8125 206.3125 -136.8125 206.3125 -138.375 204.43359375 C-140.38779642 200.06341892 -141.35562498 195.62598194 -142.375 190.9375 C-142.58318359 190.03644531 -142.79136719 189.13539063 -143.00585938 188.20703125 C-146.04859327 174.56718965 -147.22694946 161.17603998 -147.1875 147.25 C-147.18662384 146.48759003 -147.18574768 145.72518005 -147.18484497 144.93966675 C-147.03721366 105.79795794 -132.46606561 70.12761565 -104.8125 42.3125 C-104.11302246 41.60697998 -104.11302246 41.60697998 -103.39941406 40.88720703 C-76.21343733 13.85983071 -37.98541284 -0.16938048 0 0 Z " fill="#000000" transform="translate(268.8125,74.6875)"/>
<path d="M0 0 C4.52640842 6.12396433 4.26581387 11.7152257 3.70703125 19.0078125 C3.05838985 22.20313321 2.04085687 24.24887424 0.125 26.875 C-2.3125 27.875 -2.3125 27.875 -4.875 27.875 C-7.05078125 26.88671875 -7.05078125 26.88671875 -8.875 24.875 C-9.00617541 21.98019711 -8.93818053 19.53346596 -8.625 16.6875 C-8.55925781 15.93791016 -8.49351562 15.18832031 -8.42578125 14.41601562 C-8.26092263 12.56724399 -8.07041184 10.72079227 -7.875 8.875 C-22.15565438 12.3388183 -32.45446518 20.03063581 -40.6875 32.1875 C-45.72746756 40.54846707 -48.22851072 49.17766074 -48.875 58.875 C-48.21113281 58.6584375 -47.54726562 58.441875 -46.86328125 58.21875 C-45.98027344 57.9403125 -45.09726563 57.661875 -44.1875 57.375 C-43.31738281 57.0965625 -42.44726562 56.818125 -41.55078125 56.53125 C-38.09830496 55.68451129 -35.16953465 55.14143037 -32 56.9375 C-30.22717817 59.99069315 -31.18264694 62.53911708 -31.875 65.875 C-38.78626866 69.23318694 -45.15403035 71.24465396 -52.875 69.875 C-57.01900985 68.08008955 -58.65446297 65.43113686 -60.3125 61.25 C-62.63750917 48.45046498 -57.58312719 35.62347092 -50.97265625 24.88671875 C-41.81950008 11.74503643 -29.6683874 1.07334685 -13.875 -2.875 C-8.45044338 -3.32704639 -4.47997107 -3.31128297 0 0 Z " fill="#000000" transform="translate(147.875,61.125)"/>
<path d="M0 0 C1.73354474 0.65519801 3.4623916 1.32290118 5.1875 2 C11.4247502 4.15934689 17.3175469 4.54179298 23.85620117 4.671875 C31.15298654 4.85021433 31.15298654 4.85021433 34 7 C35 9.875 35 9.875 35 13 C33.4609375 15.16796875 33.4609375 15.16796875 31 17 C18.33244538 18.84917177 3.99587974 16.555236 -7 10 C-9 8 -9 8 -9.375 5.0625 C-9 2 -9 2 -7.3125 0.0625 C-4.34672255 -1.3001545 -3.12809091 -0.80710217 0 0 Z " fill="#000000" transform="translate(364,241)"/>
<path d="M0 0 C2 3 2 3 2 5.9375 C0.6664944 10.02136089 -1.37923448 10.85709796 -5 13 C-5.99 14.485 -5.99 14.485 -7 16 C-9.74469429 16.93897436 -11.42995959 17.1425101 -14.25 16.4375 C-16 15 -16 15 -17 12.25 C-17 7.88803235 -15.84711415 6.27418127 -13 3 C-8.80984175 -0.37034468 -5.26714087 -1.83737472 0 0 Z " fill="#000000" transform="translate(377,297)"/>
<path d="M0 0 C2.9375 0.8125 2.9375 0.8125 4.9375 2.8125 C4.85514607 7.17725845 4.40617506 9.25749006 1.5625 12.625 C-3.37397541 16.73872951 -3.37397541 16.73872951 -7.5625 17.1875 C-11.0625 16.8125 -11.0625 16.8125 -13.125 15.1875 C-14.0625 12.8125 -14.0625 12.8125 -13.625 9.8125 C-11.69653194 6.10984132 -9.61693866 4.91614737 -6.0625 2.8125 C-5.5675 2.214375 -5.0725 1.61625 -4.5625 1 C-3.0625 -0.1875 -3.0625 -0.1875 0 0 Z " fill="#000000" transform="translate(401.0625,302.1875)"/>
<path d="M0 0 C1.16402344 0.25716797 1.16402344 0.25716797 2.3515625 0.51953125 C4.375 1.1875 4.375 1.1875 6.375 3.1875 C6.92554733 8.36264488 6.92554733 8.36264488 5.26171875 10.85546875 C2.48459971 12.81612629 0.23588166 12.58520866 -3.125 12.5625 C-4.84203125 12.57410156 -4.84203125 12.57410156 -6.59375 12.5859375 C-9.625 12.1875 -9.625 12.1875 -11.50390625 10.8515625 C-13.27909422 8.2166145 -13.07421058 6.2678011 -12.625 3.1875 C-8.89588058 -0.67480225 -5.06166493 -1.17654085 0 0 Z " fill="#000000" transform="translate(371.625,263.8125)"/>
<path d="M0 0 C3.1875 2.1875 3.1875 2.1875 5 5 C4.91985673 8.44616056 4.4443896 9.5556104 2 12 C-1.15234375 12.3359375 -1.15234375 12.3359375 -4.9375 12.375 C-6.18402344 12.40335937 -7.43054688 12.43171875 -8.71484375 12.4609375 C-12 12 -12 12 -13.9453125 10.13671875 C-15 8 -15 8 -14.9375 5.4375 C-12.42044978 -1.10683057 -6.06229195 -1.04623426 0 0 Z " fill="#000000" transform="translate(358,338)"/>
<path d="M0 0 C3.5 0.3125 3.5 0.3125 7 1 C8.56935594 4.13871188 8.35201103 6.53855822 8 10 C5.54905772 12.98087575 3.20472002 14.86351998 0 17 C-3.6875 16.625 -3.6875 16.625 -7 16 C-8.1875 13.8125 -8.1875 13.8125 -9 11 C-7.23639136 6.85033261 -4.24038095 4.06983459 -1 1 C-0.67 0.67 -0.34 0.34 0 0 Z " fill="#000000" transform="translate(323,293)"/>
<path d="M0 0 C1.8871875 0.00773437 1.8871875 0.00773437 3.8125 0.015625 C5.070625 0.01046875 6.32875 0.0053125 7.625 0 C10.8125 0.265625 10.8125 0.265625 12.8125 2.265625 C13.1875 5.703125 13.1875 5.703125 12.8125 9.265625 C9.98763199 12.05188434 7.79447448 12.71731098 3.875 12.765625 C0.01768322 12.64579711 -1.06444076 12.35007742 -4.375 10.078125 C-6.1875 7.265625 -6.1875 7.265625 -6.125 4.578125 C-4.67677058 1.00582577 -3.89022881 0.32418573 0 0 Z " fill="#000000" transform="translate(261.1875,326.734375)"/>
<path d="M0 0 C1.24652344 -0.01675781 2.49304688 -0.03351563 3.77734375 -0.05078125 C7.0625 0.3125 7.0625 0.3125 9.00390625 1.64453125 C10.0625 3.3125 10.0625 3.3125 10.0625 6.3125 C9.0625 9.3125 9.0625 9.3125 6.9375 11.1875 C2.0149858 13.11370121 -1.54722907 12.91916368 -6.375 10.8125 C-7.220625 10.3175 -8.06625 9.8225 -8.9375 9.3125 C-9.0625 5.9375 -9.0625 5.9375 -8.9375 2.3125 C-6.07413629 -0.55086371 -3.98521654 0.01233813 0 0 Z " fill="#000000" transform="translate(327.9375,258.6875)"/>
<path d="M0 0 C2 2 2 2 2.125 5.625 C2.08375 6.73875 2.0425 7.8525 2 9 C1.01 9.33 0.02 9.66 -1 10 C-2.15521502 12.47130918 -2.15521502 12.47130918 -3 15 C-4 16 -4 16 -6.875 16.25 C-10 16 -10 16 -11.6953125 14.76171875 C-13.38208661 12.48406868 -13.30103768 11.35180225 -13 8.5625 C-12.48882921 5.22357588 -12.09737928 4.11742795 -9.875 1.4375 C-6.31777415 -0.34111292 -3.92925536 -0.44482136 0 0 Z " fill="#000000" transform="translate(280,286)"/>
<path d="M0 0 C2 2 2 2 2.3125 4.9375 C1.95706539 8.42075915 1.55266601 8.82550673 -1 11 C-1.6496875 12.3303125 -1.6496875 12.3303125 -2.3125 13.6875 C-4 16 -4 16 -7 16.5 C-10.29039324 15.95160113 -11.04732007 15.5977617 -13 13 C-13.3691737 9.86779192 -12.88225299 7.0170874 -12 4 C-8.47283109 -0.25335075 -5.37023673 -0.60795133 0 0 Z " fill="#000000" transform="translate(344,371)"/>
<path d="M0 0 C1.9375 1.0625 1.9375 1.0625 3 3 C2.8125 6.625 2.8125 6.625 2 10 C1.01 10.495 1.01 10.495 0 11 C-0.391875 11.845625 -0.78375 12.69125 -1.1875 13.5625 C-1.785625 14.366875 -2.38375 15.17125 -3 16 C-6.5625 16.4375 -6.5625 16.4375 -10 16 C-12 14 -12 14 -12.375 10.1875 C-12.28397523 6.01553142 -11.03050306 3.94137062 -8 1 C-5.20129973 -0.39935013 -3.09501208 -0.25265405 0 0 Z " fill="#000000" transform="translate(318,328)"/>
<path d="M0 0 C2 3 2 3 1.875 6.5 C1 10 1 10 -0.6875 11.875 C-4.53569295 13.74709387 -7.60192189 14.27961562 -11.8125 13.4375 C-14 12 -14 12 -15 9.125 C-15 6 -15 6 -13.875 3.75 C-9.75717549 -0.09330288 -5.50308545 -0.519159 0 0 Z " fill="#000000" transform="translate(367,391)"/>
<path d="M0 0 C2.875 0.9375 2.875 0.9375 4.875 3.9375 C4.5 7.125 4.5 7.125 3.875 9.9375 C-1.39808448 12.09467092 -1.39808448 12.09467092 -4.4375 11.4375 C-6.125 9.9375 -6.125 9.9375 -7.125 7.0625 C-7.125 3.9375 -7.125 3.9375 -5.5625 1.5 C-3.125 -0.0625 -3.125 -0.0625 0 0 Z " fill="#000000" transform="translate(350.125,284.0625)"/>
<path d="M0 0 C3.125 0.25 3.125 0.25 5 1.4375 C6.53159584 3.90507108 6.55322025 5.39519831 6.125 8.25 C5 10.0625 5 10.0625 3.125 11.25 C0.125 11.75 0.125 11.75 -2.875 11.25 C-4.875 9.0625 -4.875 9.0625 -5.875 6.25 C-4.27176113 0.37145749 -4.27176113 0.37145749 0 0 Z " fill="#000000" transform="translate(327.875,352.75)"/>
<path d="M0 0 C3.5 0.25 3.5 0.25 5.5 2.25 C5.82954432 5.34771665 5.95334601 7.42331023 4.4375 10.1875 C1.31857551 11.89787795 -1.15557801 11.05513863 -4.5 10.25 C-5.88125018 7.48749964 -5.69079306 5.30268901 -5.5 2.25 C-3.5 0.25 -3.5 0.25 0 0 Z " fill="#000000" transform="translate(374.5,323.75)"/>
<path d="M0 0 C1.38125018 2.76250036 1.19079306 4.94731099 1 8 C-1 10 -1 10 -4.5 10.25 C-8 10 -8 10 -10 8 C-10.32954432 4.90228335 -10.45334601 2.82668977 -8.9375 0.0625 C-5.81857551 -1.64787795 -3.34442199 -0.80513863 0 0 Z " fill="#000000" transform="translate(343,318)"/>
<path d="M0 0 C3.5 0.25 3.5 0.25 5.5 2.25 C5.82954432 5.34771665 5.95334601 7.42331023 4.4375 10.1875 C1.31857551 11.89787795 -1.15557801 11.05513863 -4.5 10.25 C-5.88125018 7.48749964 -5.69079306 5.30268901 -5.5 2.25 C-3.5 0.25 -3.5 0.25 0 0 Z " fill="#000000" transform="translate(420.5,290.75)"/>
<path d="M0 0 C2 2 2 2 2.3125 4.9375 C2 8 2 8 0.875 9.9375 C-1 11 -1 11 -4.0625 10.8125 C-7 10 -7 10 -9 8 C-9.375 5.0625 -9.375 5.0625 -9 2 C-6.12524616 -1.3006433 -4.03854228 -1.38160657 0 0 Z " fill="#000000" transform="translate(398,276)"/>
<path d="M0 0 C1 1 1 1 1.1875 4.4375 C1 8 1 8 -1 10 C-4.5 10.3125 -4.5 10.3125 -8 10 C-10.15502531 6.76746204 -10.46856135 5.74849077 -10 2 C-7.59027568 -2.25245468 -4.23782457 -0.94173879 0 0 Z " fill="#000000" transform="translate(372,364)"/>
<path d="M0 0 C3.625 0.375 3.625 0.375 7 1 C8.1875 3.75 8.1875 3.75 9 7 C8 9.375 8 9.375 6 11 C2.79301294 11.46768561 0.88988761 11.51670894 -1.9375 9.875 C-3 8 -3 8 -2.8125 4.9375 C-2 2 -2 2 0 0 Z " fill="#000000" transform="translate(279,350)"/>
<path d="M0 0 C3.0625 0.375 3.0625 0.375 5 2.0625 C6.34483625 4.98949654 6.09365662 6.36084989 5.0625 9.375 C3.0625 11.375 3.0625 11.375 0.125 11.75 C-2.9375 11.375 -2.9375 11.375 -4.875 9.6875 C-6.21983625 6.76050346 -5.96865662 5.38915011 -4.9375 2.375 C-2.9375 0.375 -2.9375 0.375 0 0 Z " fill="#000000" transform="translate(289.9375,310.625)"/>
<path d="M0 0 C1 1 1 1 1.1875 4.4375 C1 8 1 8 -1 10 C-4.09771665 10.32954432 -6.17331023 10.45334601 -8.9375 8.9375 C-10.64787795 5.81857551 -9.80513863 3.34442199 -9 0 C-5.90842747 -1.54578627 -3.31526981 -0.60277633 0 0 Z " fill="#000000" transform="translate(249,297)"/>
<path d="M0 0 C2.8125 0.8125 2.8125 0.8125 3.8125 1.8125 C4.39248725 8.07636233 4.39248725 8.07636233 2.1875 10.875 C-1.15560888 12.19464824 -2.97696147 11.19886891 -6.1875 9.8125 C-6.9375 7.0625 -6.9375 7.0625 -7.1875 3.8125 C-5.00620137 0.40967413 -4.07622126 -0.23977772 0 0 Z " fill="#000000" transform="translate(305.1875,276.1875)"/>
</svg>
