<?xml version="1.0" standalone="no"?>
<!DOCTYPE svg PUBLIC "-//W3C//DTD SVG 20010904//EN"
 "http://www.w3.org/TR/2001/REC-SVG-20010904/DTD/svg10.dtd">
<svg version="1.0" xmlns="http://www.w3.org/2000/svg"
 width="512.000000pt" height="512.000000pt" viewBox="0 0 512.000000 512.000000"
 preserveAspectRatio="xMidYMid meet">

<g transform="translate(0.000000,512.000000) scale(0.100000,-0.100000)"
fill="#000000" stroke="none">
<path d="M1431 5106 c-46 -26 -50 -47 -51 -263 l0 -203 -170 0 c-110 0 -178
-4 -195 -12 -57 -26 -55 0 -55 -848 l0 -780 -440 0 c-319 0 -446 -3 -465 -12
-58 -26 -55 57 -55 -1487 0 -1080 3 -1426 12 -1446 27 -59 -152 -55 2547 -55
1902 0 2486 3 2506 12 58 26 55 -57 55 1488 0 1545 3 1462 -55 1488 -19 9
-146 12 -465 12 l-440 0 0 780 c0 583 -3 786 -12 805 -22 48 -51 55 -238 55
l-170 0 0 200 c0 216 -5 242 -51 266 -40 20 -2221 21 -2258 0z m2109 -326 l0
-140 -276 0 c-239 0 -280 -2 -304 -17 -48 -28 -62 -80 -36 -132 27 -51 31 -51
551 -51 l485 0 0 -2120 0 -2120 -180 0 -180 0 0 680 c0 505 -3 686 -12 705
-26 57 16 55 -1027 55 -723 0 -967 -3 -986 -12 -56 -25 -55 -9 -55 -748 l0
-680 -180 0 -180 0 0 2120 0 2120 485 0 c354 0 491 3 510 12 47 21 67 82 43
133 -23 52 -43 55 -343 55 l-275 0 0 140 0 140 980 0 980 0 0 -140z m-2580
-3280 l0 -1300 -380 0 -380 0 0 1300 0 1300 380 0 380 0 0 -1300z m3960 0 l0
-1300 -380 0 -380 0 0 1300 0 1300 380 0 380 0 0 -1300z m-2460 -680 l0 -620
-370 0 -370 0 0 620 0 620 370 0 370 0 0 -620z m940 0 l0 -620 -370 0 -370 0
0 620 0 620 370 0 370 0 0 -620z"/>
<path d="M2508 4623 c-65 -40 -61 -140 7 -171 51 -23 107 -7 131 39 48 93 -50
186 -138 132z"/>
<path d="M2288 4143 c-40 -25 -48 -54 -48 -173 l0 -110 -111 0 c-121 0 -157
-12 -178 -57 -16 -34 -15 -494 1 -528 20 -44 55 -55 178 -55 l110 0 0 -110 c0
-63 5 -120 12 -135 23 -51 46 -55 308 -55 262 0 285 4 308 55 7 15 12 72 12
135 l0 110 110 0 c123 0 158 11 178 55 17 36 17 494 0 530 -20 44 -55 55 -178
55 l-110 0 0 110 c0 63 -5 120 -12 135 -23 51 -46 55 -310 55 -209 0 -247 -3
-270 -17z m392 -293 c0 -174 15 -190 190 -190 l110 0 0 -120 0 -120 -111 0
c-173 0 -189 -16 -189 -190 l0 -110 -120 0 -120 0 0 110 c0 175 -16 190 -190
190 l-110 0 0 120 0 120 110 0 c175 0 190 16 190 190 l0 110 120 0 120 0 0
-110z"/>
<path d="M1568 2623 c-46 -29 -60 -81 -34 -132 24 -45 51 -51 246 -51 l180 0
32 29 c27 24 33 36 33 71 0 35 -6 47 -33 71 l-32 29 -183 0 c-152 0 -186 -3
-209 -17z"/>
<path d="M2358 2624 c-54 -29 -66 -102 -24 -151 l24 -28 202 0 202 0 24 28
c26 30 32 83 14 118 -23 42 -59 49 -242 49 -133 -1 -179 -4 -200 -16z"/>
<path d="M3128 2611 c-27 -24 -33 -36 -33 -71 0 -35 6 -47 33 -71 l32 -29 180
0 c195 0 222 6 246 51 27 52 8 115 -41 137 -17 8 -88 12 -205 12 l-180 0 -32
-29z"/>
<path d="M1571 2106 c-47 -26 -63 -84 -37 -135 24 -45 51 -51 246 -51 l180 0
32 29 c27 24 33 36 33 71 0 35 -6 47 -33 71 l-32 29 -183 0 c-132 -1 -189 -4
-206 -14z"/>
<path d="M2364 2110 c-56 -23 -72 -108 -30 -157 l24 -28 202 0 202 0 24 28
c33 38 33 96 0 134 l-24 28 -189 2 c-103 1 -198 -2 -209 -7z"/>
<path d="M3128 2091 c-27 -24 -33 -36 -33 -71 0 -35 6 -47 33 -71 l32 -29 180
0 c195 0 222 6 246 51 27 52 8 115 -41 137 -17 8 -88 12 -205 12 l-180 0 -32
-29z"/>
</g>
</svg>
