<?xml version="1.0" encoding="UTF-8"?>
<svg version="1.1" xmlns="http://www.w3.org/2000/svg" width="512" height="512">
<path d="M0 0 C20.52124883 14.41169506 35.86050708 33.55649526 48.75488281 54.85742188 C49.13789551 55.49010986 49.5209082 56.12279785 49.91552734 56.7746582 C52.50488281 61.16200875 52.50488281 61.16200875 52.50488281 63.41992188 C53.16488281 63.41992188 53.82488281 63.41992188 54.50488281 63.41992188 C54.75109375 62.8553125 54.99730469 62.29070312 55.25097656 61.70898438 C56.72342535 59.0209626 58.48792561 57.04675031 60.56738281 54.79492188 C64.15609329 50.8938304 64.15609329 50.8938304 67.67675781 46.93164062 C86.49526716 25.40024398 86.49526716 25.40024398 97.19238281 21.41992188 C100.10517164 21.41992188 101.94689179 22.03722402 104.50488281 23.41992188 C107.00519936 27.17039669 107.04091835 28.97848453 106.50488281 33.41992188 C104.34082031 35.81054687 104.34082031 35.81054687 101.50488281 38.41992188 C100.10302734 39.73089844 100.10302734 39.73089844 98.67285156 41.06835938 C97.68052018 41.97847798 96.68699687 42.88729843 95.69238281 43.79492188 C94.90190552 44.51989868 94.90190552 44.51989868 94.09545898 45.25952148 C91.21537329 47.8923782 88.29773285 50.46288901 85.31738281 52.98242188 C50.81174225 83.17485736 32.31474104 129.58950918 23.50488281 173.41992188 C24.15972656 173.16597656 24.81457031 172.91203125 25.48925781 172.65039062 C52.16919095 162.58889041 81.22838747 162.15311512 107.59082031 173.54882812 C124.97270168 181.45935781 139.15562018 194.2369488 152.63769531 207.52148438 C161.94784459 216.36417846 174.8778472 221.02863156 187.64160156 220.72851562 C198.7623022 219.52996808 206.74616174 213.46441971 214.19238281 205.54492188 C223.52561385 195.96902683 235.61851544 189.43960908 249.00878906 188.41601562 C253.61978085 188.42323157 258.51759685 188.81727191 262.20019531 191.78710938 C264.39652189 194.53580551 264.44547526 196.97428395 264.50488281 200.41992188 C263.31738281 203.35742188 263.31738281 203.35742188 260.50488281 205.41992188 C257.51319698 205.64696946 254.61485521 205.53601956 251.61816406 205.40429688 C245.68508701 205.43407392 240.70197888 207.75176987 235.50488281 210.41992188 C236.50068359 210.98259766 236.50068359 210.98259766 237.51660156 211.55664062 C242.44596846 214.41351458 246.76708989 217.04136445 250.50488281 221.41992188 C251.14876953 222.17015625 251.14876953 222.17015625 251.80566406 222.93554688 C257.88632095 230.6126004 258.8283055 238.98264389 259.00097656 248.53710938 C258.3880653 252.0987512 257.36760037 253.27160798 254.50488281 255.41992188 C250.97249301 255.8614706 248.58990583 255.96642244 245.37988281 254.34960938 C242.64992459 251.54002737 242.58094268 248.93897799 242.00488281 245.10742188 C240.97625886 238.30632272 239.16606244 233.94103942 234.12988281 229.16992188 C229.18550768 225.87367179 224.40696037 224.53461024 218.50488281 225.41992188 C215.9544266 227.01395701 213.59716034 228.78887593 211.19628906 230.59960938 C203.04440349 236.11307625 193.82816604 237.59436574 184.19238281 237.48242188 C183.45181641 237.47791016 182.71125 237.47339844 181.94824219 237.46875 C180.13375383 237.45704362 178.31930747 237.43911085 176.50488281 237.41992188 C177.08753906 238.2475 177.67019531 239.07507813 178.27050781 239.92773438 C192.79753097 260.91856129 203.61467631 283.56676366 211.25488281 307.91992188 C214.22700863 317.1595832 218.74977896 324.51370965 227.30175781 329.45898438 C230.98530242 331.06563681 234.90793418 331.70297076 238.82519531 332.54101562 C241.50488281 333.41992188 241.50488281 333.41992188 243.50488281 336.41992188 C244.17139834 342.52964756 244.17139834 342.52964756 241.86425781 345.61132812 C237.38115262 349.04788061 231.88187049 348.04960356 226.50488281 347.41992188 C222.97737099 346.4147454 219.77476907 345.06991973 216.50488281 343.41992188 C215.75335938 343.04609375 215.00183594 342.67226563 214.22753906 342.28710938 C213.6590625 342.0009375 213.09058594 341.71476562 212.50488281 341.41992188 C210.57906667 349.35804208 209.61456733 360.7338292 213.31738281 368.29492188 C215.23943429 371.29019929 215.23943429 371.29019929 217.11425781 372.86914062 C219.17921626 375.17191732 218.98030623 377.49940444 218.84863281 380.47851562 C218.50488281 382.41992188 218.50488281 382.41992188 216.94238281 384.91992188 C213.4972017 387.04003333 211.48851138 387.03807114 207.50488281 386.41992188 C200.71031364 382.53731092 197.11322802 374.8794616 194.94482422 367.51879883 C192.14484672 354.16063759 194.45154637 338.9788633 199.28613281 326.38476562 C199.63895791 323.21564021 198.32070356 320.94220881 197.06738281 318.04492188 C194.73048461 312.52443328 192.60769393 306.9697991 190.6237793 301.3125 C186.97085857 290.91096302 182.7321142 281.12366525 177.50488281 271.41992188 C171.52789861 273.98148653 168.47413278 279.06000891 166.06738281 284.91992188 C165.28835536 288.86368876 165.64798899 292.61567498 165.95019531 296.60742188 C166.50743874 304.64024764 166.7565708 312.65023972 166.80004883 320.70166016 C166.81160558 322.18059834 166.83211564 323.65949363 166.86157227 325.13818359 C167.13778678 339.14025331 166.27442567 354.43865277 156.50488281 365.41992188 C153.87988281 367.85742188 153.87988281 367.85742188 151.50488281 369.41992188 C150.88613281 369.85304688 150.26738281 370.28617187 149.62988281 370.73242188 C146.30809625 371.80711753 143.84503681 371.27014289 140.50488281 370.41992188 C137.77260181 368.12833135 137.53130036 366.56257661 136.87988281 363.04492188 C137.66946044 358.46537166 139.21104386 357.58808479 142.75488281 354.87304688 C148.23156751 350.32544262 149.08813058 342.0854472 149.84863281 335.39648438 C150.0945861 332.73882248 150.31578806 330.08217695 150.50488281 327.41992188 C149.90160156 327.69707031 149.29832031 327.97421875 148.67675781 328.25976562 C147.87753906 328.62199219 147.07832031 328.98421875 146.25488281 329.35742188 C145.46597656 329.71707031 144.67707031 330.07671875 143.86425781 330.44726562 C134.76764569 334.19735903 125.25404711 332.96776002 116.21582031 329.63476562 C112.06954214 327.77670725 107.61025441 325.63066507 105.50488281 321.41992188 C105.12988281 318.04492188 105.12988281 318.04492188 105.50488281 314.41992188 C107.98808726 311.5715403 109.60085482 310.58063796 113.31738281 309.91992188 C116.90585845 310.48282001 119.43117279 311.68585542 122.57519531 313.44726562 C126.79867871 315.57610644 130.81496354 315.81074848 135.50488281 315.41992188 C141.05317232 313.57400807 145.5797011 310.63707289 148.50488281 305.41992188 C148.81843513 302.45436165 148.89127575 300.08973538 148.69238281 297.16992188 C148.64532437 295.6505832 148.60491858 294.13102335 148.57128906 292.61132812 C148.55340332 291.88574707 148.53551758 291.16016602 148.51708984 290.41259766 C148.44912058 279.31729523 153.57651593 269.02206944 161.25488281 261.23242188 C165.05660695 257.64405981 165.05660695 257.64405981 167.50488281 256.41992188 C165.97338678 251.85139135 163.42205998 248.24197622 160.56738281 244.41992188 C160.08084229 243.7634668 159.59430176 243.10701172 159.09301758 242.43066406 C154.16851471 235.85621115 148.92823639 229.58587594 143.50488281 223.41992188 C142.20164062 221.93105469 142.20164062 221.93105469 140.87207031 220.41210938 C122.78564177 200.11327367 98.65821434 183.82228694 70.82519531 182.07617188 C60.13077028 181.23967092 60.13077028 181.23967092 50.62988281 185.16992188 C43.15417875 193.94727794 40.37878766 204.30799489 38.50488281 215.41992188 C39.72175781 215.48179687 40.93863281 215.54367188 42.19238281 215.60742188 C54.30662574 217.01472796 65.83703779 222.8742288 73.82519531 232.09960938 C80.80966593 241.40364588 86.68509668 251.42108088 85.50488281 263.41992188 C84.00488281 265.91992188 84.00488281 265.91992188 81.50488281 267.41992188 C78.69308777 268.02491876 76.31397679 268.05254841 73.50488281 267.41992188 C69.82023019 264.55408094 68.96946052 260.9147632 67.62988281 256.60742188 C65.82907009 250.89667337 63.56943001 246.79863697 59.50488281 242.41992188 C58.99183594 241.865625 58.47878906 241.31132812 57.95019531 240.74023438 C53.20951733 236.18101776 47.71153995 234.32793582 41.50488281 232.41992188 C43.34728563 240.46358295 45.69421101 248.19673145 48.41894531 255.97460938 C51.78387716 266.65040035 52.13946475 279.0839297 47.50488281 289.41992188 C43.51663061 297.06096582 38.29508762 302.31223176 30.37988281 305.79492188 C27.16400485 306.49402578 24.7765723 306.90719478 21.50488281 306.41992188 C18.18213877 303.96398063 16.72870273 302.49425748 15.87988281 298.41992188 C16.7367518 294.30695075 18.22280916 293.01823018 21.50488281 290.41992188 C22.86631264 289.72596348 24.24228624 289.05995719 25.62988281 288.41992188 C29.26459669 286.72235306 30.89334382 285.21177832 32.50488281 281.41992188 C35.41659499 271.5824943 32.68279833 262.80039276 29.50488281 253.41992188 C22.85041291 232.60903257 18.65925797 211.32776241 27.50488281 190.41992188 C5.25136493 200.51430112 -9.79738671 218.80582264 -18.49511719 241.41992188 C-27.26806003 267.15507871 -28.05667932 296.35033268 -16.49511719 321.41992188 C-14.77788811 324.59702693 -12.8924746 327.63755158 -10.93261719 330.66992188 C-10.40667969 331.49129639 -9.88074219 332.3126709 -9.33886719 333.15893555 C-4.49280809 340.61759575 0.79209943 347.60913285 6.50488281 354.41992188 C7.00020508 355.01144043 7.49552734 355.60295898 8.00585938 356.21240234 C14.34957091 363.7543705 20.86314145 371.13911262 27.50488281 378.41992188 C28.37886719 379.38671875 29.25285156 380.35351562 30.15332031 381.34960938 C37.86643235 389.85795767 45.72445989 398.18799671 54.46582031 405.65820312 C56.73180511 407.61597926 58.92631775 409.64221135 61.12988281 411.66992188 C80.85295833 429.41469498 103.07449547 443.92972388 126.12988281 456.91992188 C126.85175781 457.32944092 127.57363281 457.73895996 128.31738281 458.16088867 C132.9293185 460.71813415 137.52709151 462.67489841 142.50488281 464.41992188 C142.00859375 463.59492188 141.51230469 462.76992188 141.00097656 461.91992188 C124.23131626 433.58010961 124.23131626 433.58010961 125.50488281 420.41992188 C127.06738281 417.91992188 127.06738281 417.91992188 129.50488281 416.41992188 C132.9557664 415.98856143 135.36441643 415.86402724 138.52441406 417.40429688 C141.53593447 420.46927622 142.38383712 424.07624413 143.69238281 428.10742188 C151.0762784 449.3406734 163.17138537 467.96148003 183.9296875 478.11254883 C199.66444485 485.22915958 222.43185315 486.82055842 238.71191406 480.75585938 C243.62827355 478.40425805 248.09417553 475.61111241 252.50488281 472.41992188 C253.55675781 471.67742187 254.60863281 470.93492187 255.69238281 470.16992188 C277.91132588 448.4447331 283.12300713 415.06057571 283.71582031 385.42382812 C283.73739197 384.39094162 283.73739197 384.39094162 283.75939941 383.33718872 C283.81665587 380.49478497 283.87174943 377.65259719 283.90625 374.80981445 C283.93387484 372.7015154 283.97964938 370.5942325 284.02832031 368.48632812 C284.04813965 367.24826416 284.06795898 366.0102002 284.08837891 364.73461914 C284.53834749 361.15359722 285.33632961 359.27608849 287.50488281 356.41992188 C290.50488281 354.41992188 290.50488281 354.41992188 294.00488281 354.60742188 C298.62165312 355.67917212 298.62165312 355.67917212 300.50488281 358.41992188 C300.87719727 361.62426758 300.87719727 361.62426758 300.86816406 365.59570312 C300.86956894 366.30889206 300.87097382 367.02208099 300.87242126 367.75688171 C300.87105209 370.0824834 300.84582865 372.40700411 300.81738281 374.73242188 C300.80898376 375.92049438 300.80898376 375.92049438 300.80041504 377.13256836 C300.55333971 411.73362838 296.65695545 447.92004217 273.50488281 475.41992188 C273.05886719 476.0103125 272.61285156 476.60070312 272.15332031 477.20898438 C262.03130017 490.17227333 246.33519924 497.42208266 230.50488281 500.41992188 C226.28585226 500.85575001 222.11950992 500.94506981 217.87988281 500.91992188 C216.71400635 500.91347656 215.54812988 500.90703125 214.34692383 500.90039062 C162.14537678 499.83225639 110.12672453 472.48788447 70.07421875 440.66064453 C68.24286209 439.21276735 66.38274178 437.80686847 64.50488281 436.41992188 C64.26253906 437.32871094 64.02019531 438.2375 63.77050781 439.17382812 C63.2518623 441.1187488 62.7329518 443.06360579 62.20800781 445.00683594 C61.25524443 448.54496246 60.33629587 452.0853569 59.48925781 455.65039062 C59.32393555 456.32448975 59.15861328 456.99858887 58.98828125 457.69311523 C58.52586902 459.58410099 58.07753638 461.47851303 57.62988281 463.37304688 C56.32854254 466.89751011 55.76525621 467.65184102 52.50488281 469.41992188 C49.57776879 469.72482959 46.8689839 469.86428171 43.94238281 469.85351562 C43.11407959 469.85875748 42.28577637 469.86399933 41.43237305 469.86940002 C39.68409342 469.87581299 37.9357706 469.87449259 36.1875 469.8659668 C33.5138673 469.85745049 30.84236735 469.88623601 28.16894531 469.91796875 C26.46842512 469.91958076 24.76790115 469.91900323 23.06738281 469.91601562 C22.26937256 469.9272496 21.4713623 469.93848358 20.64916992 469.95005798 C17.06857821 469.90512694 14.94374194 469.74711631 12.03222656 467.57641602 C9.16955984 463.53454659 9.40204249 459.78991327 9.48999023 455.04956055 C9.50942818 453.4978237 9.52838205 451.94608074 9.54692078 450.39433289 C9.55808111 449.5712583 9.56924145 448.74818371 9.58073997 447.90016747 C9.64199651 442.59966799 9.64204271 437.2987336 9.65334606 431.9979353 C9.66672923 427.35229238 9.70123522 422.70870842 9.7824707 418.0637207 C9.86003241 413.5595545 9.87766558 409.05850987 9.85665321 404.55376625 C9.85908718 402.8486537 9.88240433 401.14342199 9.92827415 399.43892479 C10.17998521 389.58749486 9.38951362 383.04656227 2.63549805 375.51855469 C1.08505545 373.89637736 -0.49189296 372.31854764 -2.11299515 370.76714516 C-3.86778759 369.05666145 -5.41231927 367.21230833 -6.94042969 365.29882812 C-7.3917627 364.74469238 -7.8430957 364.19055664 -8.30810547 363.61962891 C-43.59130666 319.5911311 -71.23537491 261.21499988 -71.74511719 204.10742188 C-71.75454346 203.31247314 -71.76396973 202.51752441 -71.77368164 201.69848633 C-71.74984681 197.52289326 -71.53305276 194.17736559 -69.49511719 190.41992188 C-66.59163147 188.00035045 -65.16860788 187.39298225 -61.37011719 187.54492188 C-58.3145728 188.47487017 -57.3584815 188.89984754 -55.49511719 191.41992188 C-55.05029297 194.20947266 -55.05029297 194.20947266 -54.94042969 197.61523438 C-54.85873535 199.50677246 -54.85873535 199.50677246 -54.77539062 201.43652344 C-54.75085815 202.10623169 -54.72632568 202.77593994 -54.7010498 203.46594238 C-53.85174682 225.28265289 -49.65100931 245.78832914 -42.49511719 266.41992188 C-42.31662231 265.60309937 -42.31662231 265.60309937 -42.13452148 264.76977539 C-38.8879237 250.0221168 -35.28764186 235.97665428 -28.49511719 222.41992188 C-28.19234863 221.8130957 -27.88958008 221.20626953 -27.57763672 220.58105469 C-21.61462314 208.88231021 -11.525172 192.95290992 0.22338867 186.47192383 C3.20977915 184.73897503 5.11519756 183.46775227 6.34619141 180.15771484 C6.8937785 177.31100123 7.2565785 174.48961389 7.56738281 171.60742188 C7.85959658 169.4551996 8.16065822 167.30416347 8.46972656 165.15429688 C8.62812012 164.04763672 8.78651367 162.94097656 8.94970703 161.80078125 C9.86268912 156.2409853 11.22363174 150.81008525 12.62988281 145.35742188 C12.88390869 144.36572998 13.13793457 143.37403809 13.3996582 142.35229492 C13.64321045 141.41426025 13.8867627 140.47622559 14.13769531 139.50976562 C14.36440918 138.62603271 14.59112305 137.7422998 14.82470703 136.83178711 C15.50488281 134.41992187 15.50488281 134.41992187 16.95800781 130.70117188 C17.64177878 126.59854609 16.74533799 125.17090403 14.48144531 121.828125 C14.03542969 121.21904297 13.58941406 120.60996094 13.12988281 119.98242188 C12.69160156 119.34626953 12.25332031 118.71011719 11.80175781 118.0546875 C10.72319388 116.49545921 9.61671091 114.95560781 8.50488281 113.41992188 C-7.13746418 115.55031615 -24.67083056 131.99563727 -34.49511719 143.41992188 C-39.79877129 150.51907309 -44.14374089 158.25211944 -48.01074219 166.21289062 C-49.83332957 168.92279029 -51.56037709 170.02978183 -54.49511719 171.41992188 C-57.94664157 171.35089139 -59.74577121 171.06935506 -62.37011719 168.79492188 C-63.93390163 165.49359915 -63.7367316 163.05546378 -63.49511719 159.41992188 C-54.09966075 133.50463972 -31.64277917 113.99094184 -8.09667969 101.12695312 C-6.49511719 100.41992188 -6.49511719 100.41992188 -4.49511719 100.41992188 C-7.51744971 96.21558801 -10.9580271 93.36231169 -15.24511719 90.54492188 C-16.22822876 89.89801392 -16.22822876 89.89801392 -17.23120117 89.23803711 C-30.23310018 80.93071101 -44.0489682 75.87426139 -59.55761719 75.04492188 C-63.22077341 74.76024844 -64.32115074 74.54206853 -67.43261719 72.35742188 C-73.59181726 63.58522784 -75.88339983 54.81521747 -75.80761719 44.16992188 C-75.80197754 43.33581787 -75.79633789 42.50171387 -75.79052734 41.64233398 C-75.46815718 25.14879096 -69.21919341 11.95249776 -57.49511719 0.41992188 C-56.98078125 -0.093125 -56.46644531 -0.60617187 -55.93652344 -1.13476562 C-37.79155468 -17.68626687 -18.0631688 -12.21310921 0 0 Z M-51.55761719 17.76367188 C-53.61559798 20.58509715 -54.88544609 23.24563216 -56.18261719 26.48242188 C-56.59898438 27.50464844 -57.01535156 28.526875 -57.44433594 29.58007812 C-59.25032962 34.46096069 -59.68185127 38.48662281 -59.74511719 43.73242188 C-59.77089844 45.00730469 -59.79667969 46.2821875 -59.82324219 47.59570312 C-59.44515227 52.00225106 -58.92835695 54.69849636 -56.49511719 58.41992188 C-53.52467699 59.73626969 -50.5135106 60.07818239 -47.30761719 60.48242188 C-20.42687985 64.88751299 3.30938545 79.63670878 19.81347656 101.47460938 C20.98410462 103.19282852 22.1296603 104.92874476 23.23535156 106.68945312 C23.65429688 107.26050781 24.07324219 107.8315625 24.50488281 108.41992188 C25.16488281 108.41992188 25.82488281 108.41992188 26.50488281 108.41992188 C26.84745117 107.75984131 27.19001953 107.09976074 27.54296875 106.41967773 C29.1121349 103.39815879 30.68349069 100.37778372 32.25488281 97.35742188 C32.79371094 96.31908203 33.33253906 95.28074219 33.88769531 94.2109375 C34.41621094 93.19580078 34.94472656 92.18066406 35.48925781 91.13476562 C35.99900146 90.13952881 36.50874512 89.14429199 37.03393555 88.11889648 C38.27979455 85.83292614 39.63462781 83.83782605 41.14941406 81.73242188 C42.76657004 78.67778334 42.76657004 78.67778334 42.05029297 76.36547852 C41.00952519 73.94437718 39.79162809 71.74610658 38.44238281 69.48242188 C37.97501709 68.65339355 37.50765137 67.82436523 37.02612305 66.97021484 C29.45745985 53.78836793 20.67522026 41.70335473 10.50488281 30.41992188 C9.77914062 29.61039063 9.05339844 28.80085938 8.30566406 27.96679688 C-0.39192373 18.77082605 -16.12911062 5.14116533 -29.09667969 4.14257812 C-38.59118234 4.91741685 -45.46842641 10.8441369 -51.55761719 17.76367188 Z M25.50488281 401.41992188 C25.50488281 418.57992188 25.50488281 435.73992187 25.50488281 453.41992188 C31.11488281 453.41992188 36.72488281 453.41992188 42.50488281 453.41992188 C44.81989091 446.80076384 46.61903033 440.18795818 48.19238281 433.35742188 C48.41732422 432.39642578 48.64226562 431.43542969 48.87402344 430.4453125 C49.4214092 428.10436486 49.96495522 425.76259879 50.50488281 423.41992188 C50.00569336 422.98711914 49.50650391 422.55431641 48.9921875 422.10839844 C43.93081644 417.70273218 38.98359602 413.19447757 34.08691406 408.60742188 C31.31090735 406.02447079 28.54724183 403.70169114 25.50488281 401.41992188 Z " fill="#000000" transform="translate(140.4951171875,11.580078125)"/>
<path d="M0 0 C3.16619567 -0.01206686 6.33054088 -0.06159241 9.49633789 -0.11157227 C11.53474003 -0.12102195 13.57315386 -0.12826392 15.61157227 -0.13305664 C16.54501968 -0.15258896 17.4784671 -0.17212128 18.44020081 -0.19224548 C24.88340804 -0.14802183 29.06442405 1.33661872 34.07641602 5.42553711 C43.45659918 15.70621786 46.56938219 29.36547557 46.32250977 42.87084961 C45.46190766 55.30176884 40.82682309 66.40695379 31.78735352 75.08569336 C26.0571851 79.57301703 20.08434456 78.93034552 13.07641602 78.42553711 C10.63017103 77.99322657 8.19201796 77.51275406 5.76391602 76.98803711 C-11.02143153 73.37643569 -27.39253504 74.01353418 -43.92358398 78.42553711 C-42.84596802 78.5680188 -42.84596802 78.5680188 -41.74658203 78.71337891 C-26.86406005 80.71330311 -12.26617981 82.89157618 2.07641602 87.42553711 C2.75671875 87.63903809 3.43702148 87.85253906 4.13793945 88.07250977 C19.43847123 93.01399844 34.06218501 100.68460922 46.07641602 111.42553711 C46.96458008 112.1719043 47.85274414 112.91827148 48.76782227 113.68725586 C73.09438106 134.69809454 84.83039088 165.99295374 87.86296082 197.41496277 C88.29193645 203.4652395 88.26270118 209.52304828 88.25219727 215.58569336 C88.25174125 216.71847056 88.25174125 216.71847056 88.25127602 217.87413216 C88.21950984 240.12135159 87.36351592 262.35317268 86.53222656 284.58203125 C86.30295284 290.72987927 86.09307314 296.87823828 85.88741589 303.02691555 C85.72450257 307.80813483 85.54895384 312.58882811 85.36977577 317.36946297 C85.28670641 319.63990226 85.20818556 321.91051288 85.13438988 324.18127251 C85.0309355 327.32381925 84.90981991 330.46520654 84.78417969 333.60693359 C84.75756256 334.53292862 84.73094543 335.45892365 84.70352173 336.41297913 C84.4937839 341.16038365 84.22736697 344.61811967 81.07641602 348.42553711 C77.72932699 350.09908162 75.9786612 350.65109841 72.32641602 349.73803711 C70.07641602 348.42553711 70.07641602 348.42553711 68.07641602 345.42553711 C67.82556152 343.24914551 67.82556152 343.24914551 67.82836914 340.65014648 C67.82695923 339.65164673 67.82554932 338.65314697 67.82409668 337.62438965 C67.83517456 336.51720581 67.84625244 335.41002197 67.85766602 334.26928711 C67.86390991 333.08894897 67.87015381 331.90861084 67.87658691 330.69250488 C68.04905221 312.20811021 68.92636047 293.73448153 69.68572998 275.26708984 C70.48395385 255.8503502 71.21731876 236.45099839 71.24047852 217.01538086 C71.24390007 215.93456238 71.24390007 215.93456238 71.24739075 214.83190918 C71.2712476 203.48227917 70.70322119 192.49428499 68.07641602 181.42553711 C67.88305664 180.60633789 67.68969727 179.78713867 67.49047852 178.94311523 C63.3637722 162.21976525 56.52664807 147.40575707 45.07641602 134.42553711 C44.62266602 133.82999023 44.16891602 133.23444336 43.70141602 132.62084961 C26.83261724 110.83198453 -4.01360739 101.90145619 -29.92358398 97.42553711 C-30.9404126 97.24764648 -30.9404126 97.24764648 -31.9777832 97.06616211 C-41.58850222 95.46794306 -51.32206988 95.07331595 -61.04858398 94.80053711 C-62.79268555 94.7111084 -62.79268555 94.7111084 -64.57202148 94.61987305 C-70.73256596 94.46859479 -70.73256596 94.46859479 -76.14355469 97.03320312 C-77.97372082 99.06847618 -79.46307282 101.11341286 -80.92358398 103.42553711 C-81.63385742 104.4503418 -82.34413086 105.47514648 -83.07592773 106.53100586 C-91.90706049 121.77775366 -97.48918021 138.18573397 -100.92358398 155.42553711 C-99.8265918 155.8728418 -98.72959961 156.32014648 -97.59936523 156.78100586 C-96.14466837 157.39104003 -94.69025615 158.00175325 -93.23608398 158.61303711 C-92.51485352 158.90500977 -91.79362305 159.19698242 -91.05053711 159.49780273 C-86.44201125 161.45484796 -83.17512976 163.47453091 -79.92358398 167.42553711 C-79.21398186 171.21008179 -79.64557222 172.89268124 -81.42358398 176.30053711 C-84.18196002 178.64515674 -85.86416931 179.20417767 -89.47827148 178.98413086 C-93.72399325 178.01426151 -97.45954678 175.93483069 -101.34936523 174.01928711 C-108.91648955 170.64509397 -117.05476279 168.95440604 -125.17358398 167.42553711 C-128.92358398 166.42553711 -128.92358398 166.42553711 -130.98608398 164.67553711 C-132.26488147 161.60642313 -132.46203477 159.72354817 -131.92358398 156.42553711 C-129.98608398 153.55053711 -129.98608398 153.55053711 -126.92358398 151.42553711 C-124.65576172 151.21801758 -124.65576172 151.21801758 -122.23217773 151.29272461 C-121.42449951 151.31189941 -120.61682129 151.33107422 -119.78466797 151.35083008 C-119.17051025 151.3754834 -118.55635254 151.40013672 -117.92358398 151.42553711 C-117.77324707 150.84288086 -117.62291016 150.26022461 -117.46801758 149.65991211 C-111.61301588 127.14271735 -105.0468044 103.97317738 -88.92358398 86.42553711 C-88.17592773 85.58635742 -87.42827148 84.74717773 -86.65795898 83.88256836 C-71.26558079 67.4723071 -48.45637272 58.99320356 -26.21112061 58.1373291 C-12.98762932 57.75444969 0.29406564 57.60901652 13.21313477 60.76928711 C16.00753022 61.40974882 18.22953289 61.76853508 21.07641602 61.42553711 C27.31726254 54.59032425 29.68232107 46.11128806 29.36547852 36.93725586 C28.68935347 31.06227745 26.96473533 25.87152143 24.01098633 20.76806641 C23.37257813 19.66503174 22.73416992 18.56199707 22.07641602 17.42553711 C-13.17680838 16.929407 -47.61723682 17.40531975 -80.73730469 31.2409668 C-85.71521709 33.26297596 -89.53711469 33.86039739 -94.92358398 33.42553711 C-97.42358398 31.86303711 -97.42358398 31.86303711 -98.92358398 29.42553711 C-99.35427648 25.97999714 -99.48874958 23.57150529 -97.93530273 20.42163086 C-94.88174535 17.39179043 -91.3168198 16.37137721 -87.29858398 14.98803711 C-86.44756104 14.68728271 -85.59653809 14.38652832 -84.71972656 14.07666016 C-82.12747549 13.17244253 -79.52805685 12.29386262 -76.92358398 11.42553711 C-76.1973584 11.18125977 -75.47113281 10.93698242 -74.72290039 10.68530273 C-62.71880272 6.71521973 -50.42009985 4.27238563 -37.92358398 2.42553711 C-36.12836304 2.15737183 -36.12836304 2.15737183 -34.296875 1.88378906 C-22.88310863 0.300472 -11.512306 0.02076567 0 0 Z " fill="#000000" transform="translate(358.923583984375,-0.425537109375)"/>
</svg>
