<?xml version="1.0" encoding="UTF-8"?>
<svg version="1.1" xmlns="http://www.w3.org/2000/svg" width="512" height="512">
<path d="M0 0 C168.96 0 337.92 0 512 0 C512 168.96 512 337.92 512 512 C343.04 512 174.08 512 0 512 C0 343.04 0 174.08 0 0 Z " fill="#F6F6F6" transform="translate(0,0)"/>
<path d="M0 0 C1.77014221 -0.00015538 3.54028474 -0.00165076 5.3104248 -0.00440979 C9.00186392 -0.00578631 12.69291098 0.00663803 16.38427734 0.02954102 C21.08443682 0.05792325 25.78394616 0.05517817 30.48415375 0.0424509 C34.13390527 0.03545176 37.78351004 0.04333102 41.4332428 0.05570793 C43.16495702 0.06018141 44.89668722 0.06059571 46.62840271 0.05664253 C62.38670189 0.03750088 76.5870308 1.66572669 88.82421875 12.61328125 C92.18948638 16.32508674 97.53125 22.30533004 97.53125 27.49609375 C99.03945313 27.44582031 99.03945313 27.44582031 100.578125 27.39453125 C115.35268039 27.77411469 128.43191201 34.63884956 138.953125 44.6640625 C152.7053837 59.77071032 154.20619717 75.0472315 153.53125 94.49609375 C154.24539063 94.75132813 154.95953125 95.0065625 155.6953125 95.26953125 C169.51118987 101.24499336 178.27175139 113.31343884 184.53125 126.49609375 C185.6873188 129.98932329 185.82983923 131.73386946 185.53125 135.49609375 C183.25994554 138.76944429 181.88029291 140.19996238 177.96875 141.05859375 C174.73535671 140.31242607 173.69957205 138.98798324 171.53125 136.49609375 C170.57178674 134.6528432 169.67955289 132.77361205 168.84375 130.87109375 C162.29629252 117.38135723 151.85862044 109.61148939 138.0390625 104.53125 C132.28973428 102.83462196 126.49370076 102.09502059 120.53125 101.49609375 C120.86125 102.48609375 121.19125 103.47609375 121.53125 104.49609375 C121.70235482 106.80460628 121.79760801 109.11920876 121.84375 111.43359375 C121.88113281 112.65949219 121.91851562 113.88539062 121.95703125 115.1484375 C121.53125 118.49609375 121.53125 118.49609375 119.73046875 120.90234375 C117.53125 122.49609375 117.53125 122.49609375 114.03125 123.05859375 C110.53125 122.49609375 110.53125 122.49609375 108.15625 120.68359375 C106.15196409 116.75210985 106.05949283 113.49889489 105.78515625 109.14453125 C105.2814465 103.89045112 103.05578416 100.77845699 99.28125 97.30859375 C95.90458505 94.56281312 92.56439259 93.07771829 88.53125 91.49609375 C86.53125 89.49609375 86.53125 89.49609375 86.21875 85.55859375 C86.30337969 83.10433286 86.42532309 81.70794758 87.53125 79.49609375 C90.88147023 77.82098363 93.93828603 77.83677881 97.53125 78.49609375 C101.89889263 80.22854774 106.00074002 82.36415407 109.78125 85.16015625 C113.682853 87.05553725 117.07558588 86.74539201 121.34375 86.55859375 C127.51082849 86.31563257 132.5842954 86.75337159 138.53125 88.49609375 C138.3105106 74.93065418 135.31003145 63.35310545 125.53125 53.49609375 C117.67722848 47.1460338 109.38534947 44.18140251 99.53125 42.49609375 C99.50546875 43.12515625 99.4796875 43.75421875 99.453125 44.40234375 C98.98914765 51.40418373 97.62023721 57.40710654 92.53125 62.49609375 C89.15625 62.93359375 89.15625 62.93359375 85.53125 62.49609375 C83.03125 60.49609375 83.03125 60.49609375 81.53125 57.49609375 C81.43384531 53.64486209 82.31573222 50.14264708 83.53125 46.49609375 C84.21409922 39.36519685 84.51815556 33.10738433 80.07421875 27.20703125 C74.37339478 20.88561125 68.86725254 17.28535358 60.2734375 16.21484375 C53.09485945 15.91469415 46.52448174 17.6703669 40.78125 22.05859375 C32.18054618 30.62634494 31.88705084 39.69137167 31.85360718 51.23641968 C31.86332689 53.3582177 31.87356762 55.48001339 31.88427734 57.60180664 C31.87749613 59.85466721 31.86859017 62.10752224 31.85772705 64.36036682 C31.8349888 70.45949701 31.8437474 76.55820295 31.85962248 82.65734029 C31.87230813 89.04862539 31.8605341 95.43987492 31.85269165 101.8311615 C31.84302195 113.24845988 31.85852878 124.66552388 31.88398834 136.08278262 C31.90633035 146.4219015 31.90243963 156.76073968 31.87939453 167.09985352 C31.85260123 179.1260997 31.84269534 191.15213407 31.85745585 203.17842096 C31.86524142 209.53738704 31.86631613 215.89616001 31.84977341 222.2551136 C31.83530686 228.2331799 31.84539116 234.21071714 31.87424469 240.18872643 C31.8808434 242.3796361 31.87897872 244.57059048 31.86793137 246.76148224 C31.85421699 249.75805301 31.87146372 252.75294067 31.89633179 255.74940491 C31.88517818 256.61128624 31.87402457 257.47316758 31.86253297 258.36116654 C31.98144929 265.7753086 34.74894806 271.22825285 39.5234375 276.8359375 C46.62635887 282.86310522 52.99735641 284.04783362 62.2421875 283.8671875 C68.33284839 283.17999892 73.12994007 280.97228861 77.41015625 276.55859375 C81.80688046 270.96468921 83.81485315 266.18716836 83.78125 258.99609375 C83.78640625 257.89265625 83.7915625 256.78921875 83.796875 255.65234375 C83.5323454 252.50910965 82.74297005 250.37514059 81.53125 247.49609375 C81.65975683 243.7693957 81.77648443 241.42503599 84.15625 238.49609375 C87.72692003 236.99265374 89.85380644 237.37972696 93.53125 238.49609375 C98.58085481 244.3645534 99.63804999 249.95779412 99.53125 257.49609375 C111.87484455 255.03043777 122.03577509 251.77540323 130.21875 241.5234375 C134.96350529 234.19448512 137.68827801 226.94267027 137.59375 218.24609375 C137.58021484 216.62960938 137.58021484 216.62960938 137.56640625 214.98046875 C137.55480469 214.160625 137.54320312 213.34078125 137.53125 212.49609375 C136.40589844 212.65722656 135.28054688 212.81835938 134.12109375 212.984375 C131.03618307 213.37329773 128.01880695 213.56695664 124.91015625 213.6015625 C115.3051398 213.73445962 109.12326508 214.14923832 101.53125 220.49609375 C97.8083005 222.07118777 94.57179837 223.13407507 90.53125 222.49609375 C88.21875 220.93359375 88.21875 220.93359375 86.53125 218.49609375 C85.99305682 214.72874152 85.85049508 212.53202516 87.96875 209.30859375 C90.33301253 207.63631049 92.30201091 206.74140025 94.96875 205.68359375 C99.97143339 203.60669719 101.82798354 201.14233297 104.53125 196.49609375 C105.53191011 193.49411343 105.66084104 191.26032743 105.78125 188.12109375 C106.12591245 184.18358642 106.43602366 182.64173404 108.65625 179.24609375 C111.53125 177.49609375 111.53125 177.49609375 115.15625 177.49609375 C119.63597872 178.82342078 119.63597872 178.82342078 121.53125 181.49609375 C121.859375 184.4921875 121.859375 184.4921875 121.78125 187.93359375 C121.76578125 189.06667969 121.7503125 190.19976562 121.734375 191.3671875 C121.56757209 193.93659392 121.19582396 196.03523896 120.53125 198.49609375 C136.75309971 196.27910762 151.46006805 193.32127378 162.53125 180.109375 C166.11016753 175.19607658 168.93427997 170.0363158 171.48828125 164.52734375 C172.53125 162.49609375 172.53125 162.49609375 174.53125 160.49609375 C178.33936922 160.07296939 180.67524717 160.00389212 184.03125 161.93359375 C185.85508107 165.04930515 185.91145152 167.27356875 185.32421875 170.80859375 C180.77044017 186.24208964 169.34835461 196.71807671 156.53125 205.49609375 C155.87125 205.82609375 155.21125 206.15609375 154.53125 206.49609375 C154.50546875 207.78902344 154.4796875 209.08195313 154.453125 210.4140625 C153.93854303 228.33118508 150.52575636 243.33268972 137.84375 256.80859375 C127.89233753 266.15961934 115.04955837 272.68066216 101.15625 272.74609375 C99.96 272.66359375 98.76375 272.58109375 97.53125 272.49609375 C97.345625 273.30046875 97.16 274.10484375 96.96875 274.93359375 C92.50822125 285.9879476 83.68955498 292.87952198 73.08203125 297.515625 C63.76028594 301.09871546 51.36625069 301.09568385 42.03125 297.55859375 C36.80968276 295.03483625 32.78696764 291.54968041 28.6875 287.484375 C26.68903937 285.64159155 25.01465806 284.55154218 22.53125 283.49609375 C21.99757813 284.08777344 21.46390625 284.67945313 20.9140625 285.2890625 C15.63830699 290.88428417 10.69017568 294.66211522 3.53125 297.49609375 C2.16419922 298.04136719 2.16419922 298.04136719 0.76953125 298.59765625 C-9.1604549 301.35265844 -20.64742001 300.58142152 -29.859375 296.0390625 C-39.02111207 290.62156827 -46.75948787 283.71000395 -50.46875 273.49609375 C-51.88414062 273.36654297 -51.88414062 273.36654297 -53.328125 273.234375 C-70.12852795 271.39577669 -84.51041678 264.77823152 -95.46875 251.49609375 C-101.9508674 242.38931532 -106.67255683 232.04638421 -106.47265625 220.69921875 C-105.90476893 212.39355797 -105.90476893 212.39355797 -108.66162109 204.88720703 C-112.16636628 201.73236833 -116.3325404 199.70141877 -120.46875 197.49609375 C-131.2659153 189.06809062 -139.20860797 174.07422057 -141.18359375 160.6328125 C-143.017885 140.45560877 -138.84092047 123.71497198 -125.68359375 107.85546875 C-120.68381089 102.5294214 -114.87256418 98.01550087 -108.46875 94.49609375 C-107.80875 94.49609375 -107.14875 94.49609375 -106.46875 94.49609375 C-106.49493408 93.90296387 -106.52111816 93.30983398 -106.5480957 92.69873047 C-107.29099761 73.26291186 -104.62208262 59.13119767 -91.29296875 44.03125 C-82.10211565 34.99486502 -70.98204277 29.63295856 -58.28125 28.05859375 C-52.89056499 27.46159504 -52.89056499 27.46159504 -48.46484375 24.53515625 C-47.24250152 22.22841636 -46.34381898 19.95220523 -45.46875 17.49609375 C-34.4852751 1.80541533 -17.66425212 -0.12751143 0 0 Z " fill="#F4F4F4" transform="translate(263.46875,-0.49609375)"/>
<path d="M0 0 C1.90871396 -0.02146799 3.81733251 -0.05543588 5.72558594 -0.10253906 C20.28915791 -0.45639671 32.71490502 1.54115537 46.44946289 6.4050293 C47.13217255 6.6464566 47.8148822 6.88788391 48.51828003 7.1366272 C52.71238134 8.6504957 56.8340076 10.31561948 60.94946289 12.0300293 C62.20787414 12.54735253 63.46659049 13.06393413 64.72558594 13.57983398 C66.67172734 14.37830753 68.61714136 15.17834651 70.56047058 15.98364258 C74.52327474 17.62469453 78.50029752 19.2221915 82.49502563 20.78390503 C85.12596646 21.81410693 87.75070603 22.85955465 90.37475586 23.90716553 C92.20228867 24.63138155 94.03672815 25.33809304 95.87133789 26.04418945 C105.34688901 29.86887139 113.36995866 34.80758036 117.79321289 44.3503418 C118.63853724 46.99701208 119.01146175 49.66472644 119.44946289 52.4050293 C139.96513068 46.45702174 160.46934803 40.47450668 180.94946289 34.4050293 C184.40079096 33.3825462 187.85212434 32.36008103 191.3034668 31.33764648 C194.09600027 30.50981179 196.88802686 29.68029346 199.67993164 28.8503418 C201.16558246 28.41014896 202.65125729 27.97003717 204.13696289 27.5300293 C205.37833008 27.16135742 206.61969727 26.79268555 207.89868164 26.4128418 C220.02184997 22.97194254 230.73609098 21.35883579 242.44946289 27.4050293 C249.63170379 31.87370258 253.91869121 38.39707657 256.44946289 46.4050293 C257.61030247 55.07560797 257.23167154 62.94706105 252.44946289 70.4050293 C251.73790039 71.54198242 251.73790039 71.54198242 251.01196289 72.7019043 C243.26436292 83.80183118 230.32128407 88.52444396 218.32446289 93.7175293 C216.75174099 94.40653422 215.17940309 95.09641623 213.60742188 95.78710938 C210.28040484 97.24711867 206.95113276 98.70179715 203.61987305 100.15209961 C198.4065056 102.42213223 193.19881017 104.70495753 187.99243164 106.9909668 C187.12695206 107.37097839 186.26147247 107.75098999 185.36976624 108.14251709 C183.6231938 108.90942846 181.87663718 109.67637584 180.13009644 110.44335938 C177.5092233 111.59373178 174.88773768 112.74269826 172.26611328 113.89135742 C162.24257211 118.28513165 152.24091075 122.7234837 142.26196289 127.2175293 C137.65966476 129.28422043 133.0553562 131.34636333 128.44946289 133.4050293 C127.80948364 133.69138245 127.16950439 133.9777356 126.51013184 134.27276611 C122.46162358 136.08282519 118.40811221 137.88095416 114.34823608 139.66537476 C113.06811901 140.22973216 111.78941882 140.7973176 110.51235962 141.36856079 C99.10271544 146.46721982 88.52319742 149.95227224 75.94946289 149.7800293 C75.10254883 149.79163086 74.25563477 149.80323242 73.38305664 149.81518555 C62.32863151 149.76516552 52.22818808 146.18673443 42.09399414 142.0612793 C41.06690842 141.65091431 40.03982269 141.24054932 38.98161316 140.81774902 C35.73876798 139.52075277 32.50020056 138.21348144 29.26196289 136.9050293 C26.01231539 135.59840775 22.76178866 134.29403701 19.51017761 132.99230957 C17.49871236 132.18639043 15.48846741 131.37741618 13.47969055 130.56481934 C2.8440872 125.92145387 2.8440872 125.92145387 -8.45288086 123.97143555 C-9.68723877 123.95439575 -9.68723877 123.95439575 -10.9465332 123.93701172 C-12.20457764 123.95211792 -12.20457764 123.95211792 -13.48803711 123.9675293 C-14.80408936 123.97780151 -14.80408936 123.97780151 -16.14672852 123.98828125 C-25.79132925 124.22764808 -32.53346774 126.75727937 -39.55053711 133.4050293 C-39.05553711 134.3331543 -38.56053711 135.2612793 -38.05053711 136.2175293 C-35.66130183 141.9424602 -35.21325669 148.01290334 -37.51147461 153.8425293 C-41.57525675 160.98351062 -47.06114812 167.36272335 -52.21508789 173.74047852 C-53.43615921 175.26246467 -54.63332397 176.8035516 -55.82788086 178.34643555 C-65.30444572 190.55137801 -65.30444572 190.55137801 -72.55053711 192.4050293 C-81.26080748 193.34305841 -87.40582451 191.28264179 -94.23803711 185.9050293 C-96.01817666 184.41608542 -97.78814783 182.91494146 -99.55053711 181.4050293 C-100.64342698 180.48473606 -101.73721662 179.56551053 -102.83178711 178.6472168 C-105.08095021 176.75855236 -107.31743445 174.85626327 -109.54663086 172.9440918 C-111.29880078 171.46306391 -113.07342048 170.00655911 -114.89819336 168.6159668 C-118.0415037 166.20200772 -119.47254523 164.62730617 -120.80053711 160.8425293 C-120.55053711 157.4050293 -120.55053711 157.4050293 -118.55053711 154.4050293 C-115.55053711 152.4050293 -115.55053711 152.4050293 -112.30834961 152.40893555 C-107.46995557 153.69146203 -105.00350816 155.96534332 -101.42553711 159.3425293 C-100.11253002 160.52325092 -98.79738719 161.70160141 -97.48022461 162.87768555 C-96.49747559 163.76351318 -96.49747559 163.76351318 -95.49487305 164.66723633 C-92.57136394 167.28018683 -89.59829538 169.81346097 -86.55053711 172.2800293 C-85.56053711 173.10245117 -84.57053711 173.92487305 -83.55053711 174.7722168 C-80.59077652 176.68616911 -80.59077652 176.68616911 -76.93725586 176.44799805 C-72.97350562 175.22732756 -71.81985566 174.13299885 -69.36303711 170.8425293 C-68.61666992 169.85897461 -67.87030273 168.87541992 -67.10131836 167.86206055 C-66.69993652 167.31501465 -66.29855469 166.76796875 -65.88500977 166.2043457 C-64.40362449 164.20694184 -62.87669537 162.24963877 -61.34350586 160.29174805 C-60.24470937 158.87205691 -59.14704495 157.45148883 -58.05053711 156.0300293 C-57.25740112 155.01380493 -57.25740112 155.01380493 -56.44824219 153.97705078 C-53.82845325 150.51587604 -51.89597583 147.87846079 -51.55053711 143.4050293 C-52.14044434 143.12973389 -52.73035156 142.85443848 -53.33813477 142.57080078 C-55.45234951 141.45676686 -57.11370053 140.27310746 -58.94897461 138.75268555 C-59.58577148 138.22932617 -60.22256836 137.7059668 -60.87866211 137.16674805 C-61.55413086 136.60600586 -62.22959961 136.04526367 -62.92553711 135.4675293 C-64.37007186 134.28038437 -65.81539804 133.09420188 -67.26147461 131.90893555 C-68.3457373 131.01972412 -68.3457373 131.01972412 -69.4519043 130.11254883 C-72.45388581 127.67003386 -75.49797092 125.28380703 -78.55053711 122.9050293 C-84.29111133 118.42364076 -89.94748431 113.84545169 -95.58959961 109.2409668 C-100.43103491 105.29678591 -105.32258187 101.4232527 -110.24609375 97.58227539 C-115.54735916 93.43516559 -120.76337181 89.18582401 -125.95874023 84.90698242 C-127.81042276 83.39023939 -129.67594714 81.8933371 -131.55053711 80.4050293 C-132.17331543 79.90068359 -132.79609375 79.39633789 -133.43774414 78.87670898 C-136.64060664 76.18809766 -136.64060664 76.18809766 -140.58227539 75.5715332 C-142.96514534 76.58060267 -143.81551781 77.59482373 -145.32006836 79.6862793 C-145.81345703 80.35916992 -146.3068457 81.03206055 -146.81518555 81.7253418 C-147.58137207 82.80428711 -147.58137207 82.80428711 -148.36303711 83.9050293 C-149.42564911 85.37464052 -150.48944484 86.84339661 -151.55444336 88.3112793 C-152.0663623 89.02026367 -152.57828125 89.72924805 -153.10571289 90.4597168 C-154.89629831 92.87056246 -156.84182503 95.12987908 -158.80053711 97.4050293 C-161.26484102 100.63369547 -162.8285478 103.22837131 -162.41772461 107.37768555 C-160.34549972 112.22221129 -155.58525248 115.24181245 -151.55053711 118.4050293 C-149.65350556 119.96607433 -147.75765273 121.52855297 -145.86303711 123.0925293 C-143.38119722 125.12376563 -140.90628284 127.13963169 -138.33569336 129.05737305 C-135.02497758 131.60980628 -133.72313235 132.91313287 -132.30053711 136.9675293 C-132.55053711 140.4050293 -132.55053711 140.4050293 -134.55053711 143.4050293 C-137.55053711 145.4050293 -137.55053711 145.4050293 -140.81616211 145.3737793 C-145.48222616 144.1633359 -147.8412225 142.13677686 -151.30053711 138.9050293 C-152.52214452 137.80880729 -153.7448137 136.71376741 -154.96850586 135.61987305 C-155.56969238 135.07572754 -156.17087891 134.53158203 -156.7902832 133.97094727 C-160.13521614 130.99530235 -163.65239633 128.23574589 -167.14819336 125.44018555 C-174.01940486 119.619208 -177.84938309 114.24797944 -178.92553711 105.2800293 C-177.95912496 95.29377042 -170.95352475 87.6782276 -164.89868164 80.11352539 C-163.5334364 78.38335766 -162.20750528 76.62907697 -160.89038086 74.86206055 C-160.4562085 74.28302979 -160.02203613 73.70399902 -159.57470703 73.10742188 C-158.37163184 71.50001753 -157.17191542 69.89010086 -155.97241211 68.2800293 C-148.96442457 59.9608699 -148.96442457 59.9608699 -143.55053711 59.4050293 C-142.07351325 59.31519243 -140.59278162 59.2749002 -139.11303711 59.2800293 C-138.0012207 59.27616211 -138.0012207 59.27616211 -136.86694336 59.2722168 C-134.55053711 59.4050293 -134.55053711 59.4050293 -132.19897461 60.3347168 C-129.58284059 60.6735407 -129.58284059 60.6735407 -127.97509766 59.25805664 C-126.11170269 57.451598 -124.35934148 55.57491895 -122.61303711 53.6550293 C-115.74561591 46.45327089 -108.58177443 40.2614816 -100.55053711 34.4050293 C-99.50510742 33.63803711 -98.45967773 32.87104492 -97.38256836 32.08081055 C-66.90784042 10.38886135 -37.27775802 0.31278058 0 0 Z " fill="#F5F5F5" transform="translate(216.550537109375,319.594970703125)"/>
<path d="M0 0 C1.77014221 -0.00015538 3.54028474 -0.00165076 5.3104248 -0.00440979 C9.00186392 -0.00578631 12.69291098 0.00663803 16.38427734 0.02954102 C21.08443682 0.05792325 25.78394616 0.05517817 30.48415375 0.0424509 C34.13390527 0.03545176 37.78351004 0.04333102 41.4332428 0.05570793 C43.16495702 0.06018141 44.89668722 0.06059571 46.62840271 0.05664253 C62.38670189 0.03750088 76.5870308 1.66572669 88.82421875 12.61328125 C92.18948638 16.32508674 97.53125 22.30533004 97.53125 27.49609375 C99.03945313 27.44582031 99.03945313 27.44582031 100.578125 27.39453125 C115.35268039 27.77411469 128.43191201 34.63884956 138.953125 44.6640625 C152.7053837 59.77071032 154.20619717 75.0472315 153.53125 94.49609375 C154.24539063 94.75132813 154.95953125 95.0065625 155.6953125 95.26953125 C169.51118987 101.24499336 178.27175139 113.31343884 184.53125 126.49609375 C185.6873188 129.98932329 185.82983923 131.73386946 185.53125 135.49609375 C183.25994554 138.76944429 181.88029291 140.19996238 177.96875 141.05859375 C174.73535671 140.31242607 173.69957205 138.98798324 171.53125 136.49609375 C170.57178674 134.6528432 169.67955289 132.77361205 168.84375 130.87109375 C162.29629252 117.38135723 151.85862044 109.61148939 138.0390625 104.53125 C132.28973428 102.83462196 126.49370076 102.09502059 120.53125 101.49609375 C120.86125 102.48609375 121.19125 103.47609375 121.53125 104.49609375 C121.70235482 106.80460628 121.79760801 109.11920876 121.84375 111.43359375 C121.88113281 112.65949219 121.91851562 113.88539062 121.95703125 115.1484375 C121.53125 118.49609375 121.53125 118.49609375 119.73046875 120.90234375 C117.53125 122.49609375 117.53125 122.49609375 114.03125 123.05859375 C110.53125 122.49609375 110.53125 122.49609375 108.15625 120.68359375 C106.15196409 116.75210985 106.05949283 113.49889489 105.78515625 109.14453125 C105.2814465 103.89045112 103.05578416 100.77845699 99.28125 97.30859375 C95.90458505 94.56281312 92.56439259 93.07771829 88.53125 91.49609375 C86.53125 89.49609375 86.53125 89.49609375 86.21875 85.55859375 C86.30337969 83.10433286 86.42532309 81.70794758 87.53125 79.49609375 C90.88147023 77.82098363 93.93828603 77.83677881 97.53125 78.49609375 C101.89889263 80.22854774 106.00074002 82.36415407 109.78125 85.16015625 C113.682853 87.05553725 117.07558588 86.74539201 121.34375 86.55859375 C127.51082849 86.31563257 132.5842954 86.75337159 138.53125 88.49609375 C138.3105106 74.93065418 135.31003145 63.35310545 125.53125 53.49609375 C117.67722848 47.1460338 109.38534947 44.18140251 99.53125 42.49609375 C99.50546875 43.12515625 99.4796875 43.75421875 99.453125 44.40234375 C98.98914765 51.40418373 97.62023721 57.40710654 92.53125 62.49609375 C89.15625 62.93359375 89.15625 62.93359375 85.53125 62.49609375 C83.03125 60.49609375 83.03125 60.49609375 81.53125 57.49609375 C81.43384531 53.64486209 82.31573222 50.14264708 83.53125 46.49609375 C84.21409922 39.36519685 84.51815556 33.10738433 80.07421875 27.20703125 C74.37339478 20.88561125 68.86725254 17.28535358 60.2734375 16.21484375 C53.09485945 15.91469415 46.52448174 17.6703669 40.78125 22.05859375 C32.18054618 30.62634494 31.88705084 39.69137167 31.85360718 51.23641968 C31.86332689 53.3582177 31.87356762 55.48001339 31.88427734 57.60180664 C31.87749613 59.85466721 31.86859017 62.10752224 31.85772705 64.36036682 C31.8349888 70.45949701 31.8437474 76.55820295 31.85962248 82.65734029 C31.87230813 89.04862539 31.8605341 95.43987492 31.85269165 101.8311615 C31.84302195 113.24845988 31.85852878 124.66552388 31.88398834 136.08278262 C31.90633035 146.4219015 31.90243963 156.76073968 31.87939453 167.09985352 C31.85260123 179.1260997 31.84269534 191.15213407 31.85745585 203.17842096 C31.86524142 209.53738704 31.86631613 215.89616001 31.84977341 222.2551136 C31.83530686 228.2331799 31.84539116 234.21071714 31.87424469 240.18872643 C31.8808434 242.3796361 31.87897872 244.57059048 31.86793137 246.76148224 C31.85421699 249.75805301 31.87146372 252.75294067 31.89633179 255.74940491 C31.88517818 256.61128624 31.87402457 257.47316758 31.86253297 258.36116654 C31.98144929 265.7753086 34.74894806 271.22825285 39.5234375 276.8359375 C46.62635887 282.86310522 52.99735641 284.04783362 62.2421875 283.8671875 C68.33284839 283.17999892 73.12994007 280.97228861 77.41015625 276.55859375 C81.80688046 270.96468921 83.81485315 266.18716836 83.78125 258.99609375 C83.78640625 257.89265625 83.7915625 256.78921875 83.796875 255.65234375 C83.5323454 252.50910965 82.74297005 250.37514059 81.53125 247.49609375 C81.65975683 243.7693957 81.77648443 241.42503599 84.15625 238.49609375 C87.72692003 236.99265374 89.85380644 237.37972696 93.53125 238.49609375 C98.58085481 244.3645534 99.63804999 249.95779412 99.53125 257.49609375 C111.87484455 255.03043777 122.03577509 251.77540323 130.21875 241.5234375 C134.96350529 234.19448512 137.68827801 226.94267027 137.59375 218.24609375 C137.58021484 216.62960938 137.58021484 216.62960938 137.56640625 214.98046875 C137.55480469 214.160625 137.54320312 213.34078125 137.53125 212.49609375 C136.40589844 212.65722656 135.28054688 212.81835938 134.12109375 212.984375 C131.03618307 213.37329773 128.01880695 213.56695664 124.91015625 213.6015625 C115.3051398 213.73445962 109.12326508 214.14923832 101.53125 220.49609375 C97.8083005 222.07118777 94.57179837 223.13407507 90.53125 222.49609375 C88.21875 220.93359375 88.21875 220.93359375 86.53125 218.49609375 C85.99305682 214.72874152 85.85049508 212.53202516 87.96875 209.30859375 C90.33301253 207.63631049 92.30201091 206.74140025 94.96875 205.68359375 C99.97143339 203.60669719 101.82798354 201.14233297 104.53125 196.49609375 C105.53191011 193.49411343 105.66084104 191.26032743 105.78125 188.12109375 C106.12591245 184.18358642 106.43602366 182.64173404 108.65625 179.24609375 C111.53125 177.49609375 111.53125 177.49609375 115.15625 177.49609375 C119.63597872 178.82342078 119.63597872 178.82342078 121.53125 181.49609375 C121.859375 184.4921875 121.859375 184.4921875 121.78125 187.93359375 C121.76578125 189.06667969 121.7503125 190.19976562 121.734375 191.3671875 C121.56757209 193.93659392 121.19582396 196.03523896 120.53125 198.49609375 C136.75309971 196.27910762 151.46006805 193.32127378 162.53125 180.109375 C166.11016753 175.19607658 168.93427997 170.0363158 171.48828125 164.52734375 C172.53125 162.49609375 172.53125 162.49609375 174.53125 160.49609375 C178.33936922 160.07296939 180.67524717 160.00389212 184.03125 161.93359375 C185.85508107 165.04930515 185.91145152 167.27356875 185.32421875 170.80859375 C180.77044017 186.24208964 169.34835461 196.71807671 156.53125 205.49609375 C155.87125 205.82609375 155.21125 206.15609375 154.53125 206.49609375 C154.50546875 207.78902344 154.4796875 209.08195313 154.453125 210.4140625 C153.93854303 228.33118508 150.52575636 243.33268972 137.84375 256.80859375 C127.89233753 266.15961934 115.04955837 272.68066216 101.15625 272.74609375 C99.96 272.66359375 98.76375 272.58109375 97.53125 272.49609375 C97.345625 273.30046875 97.16 274.10484375 96.96875 274.93359375 C92.50822125 285.9879476 83.68955498 292.87952198 73.08203125 297.515625 C63.76028594 301.09871546 51.36625069 301.09568385 42.03125 297.55859375 C36.80968276 295.03483625 32.78696764 291.54968041 28.6875 287.484375 C26.68903937 285.64159155 25.01465806 284.55154218 22.53125 283.49609375 C21.99757813 284.08777344 21.46390625 284.67945313 20.9140625 285.2890625 C15.63830699 290.88428417 10.69017568 294.66211522 3.53125 297.49609375 C2.16419922 298.04136719 2.16419922 298.04136719 0.76953125 298.59765625 C-9.1604549 301.35265844 -20.64742001 300.58142152 -29.859375 296.0390625 C-39.02111207 290.62156827 -46.75948787 283.71000395 -50.46875 273.49609375 C-51.88414062 273.36654297 -51.88414062 273.36654297 -53.328125 273.234375 C-70.12852795 271.39577669 -84.51041678 264.77823152 -95.46875 251.49609375 C-101.9508674 242.38931532 -106.67255683 232.04638421 -106.47265625 220.69921875 C-105.90476893 212.39355797 -105.90476893 212.39355797 -108.66162109 204.88720703 C-112.16636628 201.73236833 -116.3325404 199.70141877 -120.46875 197.49609375 C-131.2659153 189.06809062 -139.20860797 174.07422057 -141.18359375 160.6328125 C-143.017885 140.45560877 -138.84092047 123.71497198 -125.68359375 107.85546875 C-120.68381089 102.5294214 -114.87256418 98.01550087 -108.46875 94.49609375 C-107.80875 94.49609375 -107.14875 94.49609375 -106.46875 94.49609375 C-106.49493408 93.90296387 -106.52111816 93.30983398 -106.5480957 92.69873047 C-107.29099761 73.26291186 -104.62208262 59.13119767 -91.29296875 44.03125 C-82.10211565 34.99486502 -70.98204277 29.63295856 -58.28125 28.05859375 C-52.89056499 27.46159504 -52.89056499 27.46159504 -48.46484375 24.53515625 C-47.24250152 22.22841636 -46.34381898 19.95220523 -45.46875 17.49609375 C-34.4852751 1.80541533 -17.66425212 -0.12751143 0 0 Z M-32.99609375 25.5546875 C-36.71048261 30.45137521 -37.86783144 34.43795178 -37.78125 40.55859375 C-37.77738281 41.74582031 -37.77351563 42.93304688 -37.76953125 44.15625 C-37.47922595 47.3797699 -36.70773128 49.54661605 -35.46875 52.49609375 C-35.90511364 58.93245739 -35.90511364 58.93245739 -38.46875 61.49609375 C-41.84375 61.99609375 -41.84375 61.99609375 -45.46875 61.49609375 C-50.55214944 56.55389985 -51.15213517 49.21880886 -52.46875 42.49609375 C-63.23972676 42.54375294 -72.81547113 47.02895447 -80.65234375 54.375 C-87.5124563 62.3858411 -91.7932813 71.29593459 -91.59375 81.87109375 C-91.57570312 83.11632812 -91.55765625 84.3615625 -91.5390625 85.64453125 C-91.51585937 86.58554688 -91.49265625 87.5265625 -91.46875 88.49609375 C-89.78072266 88.23892578 -89.78072266 88.23892578 -88.05859375 87.9765625 C-84.14105182 87.48266778 -80.40159736 87.54154234 -76.46508789 87.71337891 C-67.63331165 88.05888926 -62.27375844 87.56245232 -55.46875 81.49609375 C-52.5063796 79.68874858 -50.30186401 79.22296255 -46.84375 79.24609375 C-46.06773437 79.2409375 -45.29171875 79.23578125 -44.4921875 79.23046875 C-42.46875 79.49609375 -42.46875 79.49609375 -40.46875 81.49609375 C-40.203125 83.37109375 -40.203125 83.37109375 -40.21875 85.49609375 C-40.21101563 86.54796875 -40.21101563 86.54796875 -40.203125 87.62109375 C-40.46875 89.49609375 -40.46875 89.49609375 -42.46875 91.49609375 C-43.665 91.84671875 -44.86125 92.19734375 -46.09375 92.55859375 C-51.66705468 94.52504312 -55.06878904 98.81584823 -58.46875 103.49609375 C-59.72809233 107.27412073 -59.78742699 110.84418821 -59.9921875 114.8046875 C-60.53419827 117.86571554 -61.27869014 119.30603389 -63.46875 121.49609375 C-69.46961071 122.24620134 -69.46961071 122.24620134 -72.16918945 120.21948242 C-73.75337766 118.11863993 -73.82046733 117.08889516 -73.76171875 114.484375 C-73.7472168 113.34838867 -73.7472168 113.34838867 -73.73242188 112.18945312 C-73.70728516 111.40376953 -73.68214844 110.61808594 -73.65625 109.80859375 C-73.64271484 109.01130859 -73.62917969 108.21402344 -73.61523438 107.39257812 C-73.57992089 105.42679408 -73.52611447 103.46135793 -73.46875 101.49609375 C-85.52352224 100.4197748 -98.92260202 105.14522718 -108.46875 112.49609375 C-118.64336464 121.29664467 -125.52753341 131.54011382 -126.8203125 145.21484375 C-127.14096537 159.55677216 -123.41799069 172.94674638 -113.48046875 183.6171875 C-101.88342958 194.4485969 -89.09467884 199.01312816 -73.46875 198.49609375 C-73.50355469 197.30371094 -73.53835937 196.11132812 -73.57421875 194.8828125 C-73.60235753 193.31642033 -73.6296576 191.75001294 -73.65625 190.18359375 C-73.68138672 189.39791016 -73.70652344 188.61222656 -73.73242188 187.80273438 C-73.74208984 187.04541016 -73.75175781 186.28808594 -73.76171875 185.5078125 C-73.7774292 184.81131592 -73.79313965 184.11481934 -73.80932617 183.3972168 C-73.36035053 180.89099938 -72.46771774 180.02850869 -70.46875 178.49609375 C-67.03951957 177.9853573 -65.18432543 178.08995635 -62.15625 179.80859375 C-60.28043991 182.795995 -60.18499667 184.28134148 -59.96875 187.74609375 C-59.57346811 194.06219366 -58.33951489 198.75014473 -53.671875 203.21484375 C-50.44667552 205.76500148 -47.40354029 207.61768589 -43.53125 208.99609375 C-40.46875 210.49609375 -40.46875 210.49609375 -39.28125 213.37109375 C-39.46875 216.49609375 -39.46875 216.49609375 -40.84375 219.43359375 C-43.67086191 221.65489597 -44.1838773 221.85287821 -47.59375 221.68359375 C-53.31467555 220.72377069 -59.33968199 217.62516176 -63.46875 213.49609375 C-64.94638285 213.35105921 -66.43031681 213.26899716 -67.9140625 213.21484375 C-69.28304687 213.15876953 -69.28304687 213.15876953 -70.6796875 213.1015625 C-71.64132813 213.06675781 -72.60296875 213.03195313 -73.59375 212.99609375 C-79.62047987 212.77257492 -85.51464086 212.48569638 -91.46875 211.49609375 C-92.20291045 224.32350835 -89.69322578 234.44395668 -81.46875 244.49609375 C-73.93563085 252.54873836 -65.55199651 256.88794954 -54.5234375 257.453125 C-53.84539062 257.46730469 -53.16734375 257.48148438 -52.46875 257.49609375 C-52.28699219 256.61566406 -52.10523438 255.73523438 -51.91796875 254.828125 C-51.66660156 253.66667969 -51.41523438 252.50523437 -51.15625 251.30859375 C-50.91261719 250.16003906 -50.66898437 249.01148438 -50.41796875 247.828125 C-49.48476252 244.55230232 -48.51156703 242.21323873 -46.46875 239.49609375 C-43.03125 238.43359375 -43.03125 238.43359375 -39.46875 238.49609375 C-36.96875 239.93359375 -36.96875 239.93359375 -35.46875 242.49609375 C-35.37847212 246.01693107 -35.87924588 249.31708551 -37.46875 252.49609375 C-38.34816596 261.13949632 -37.83545662 268.43137603 -32.46875 275.49609375 C-25.34652228 282.42513265 -19.1479602 284.96531444 -9.20483398 284.92553711 C-0.65585871 284.66017026 4.11473113 281.22612499 9.90625 275.24609375 C15.91496526 268.66865236 16.98076324 260.60223266 16.91893005 252.01515198 C16.92431559 251.10388564 16.92970113 250.19261929 16.93524987 249.25373882 C16.9494715 246.22313665 16.94244006 243.19297485 16.93530273 240.16235352 C16.94100931 237.98023123 16.94797468 235.79811193 16.95610046 233.61599731 C16.97401466 227.70484713 16.97286677 221.79384553 16.96715808 215.88267636 C16.96406388 210.94232396 16.97016123 206.002 16.97619683 201.06165165 C16.9902346 189.40460234 16.98868681 177.74762633 16.97729492 166.09057617 C16.96581284 154.07593746 16.97989271 142.06155622 17.0066914 130.04694325 C17.02886151 119.71971109 17.03548284 109.39254894 17.02961498 99.06529468 C17.02624757 92.90247465 17.02864645 86.73979771 17.04586601 80.57699776 C17.06135393 74.78123478 17.05735876 68.98580205 17.03856087 63.19005203 C17.03488022 61.06728236 17.03796808 58.94448811 17.04844666 56.8217411 C17.10935765 43.45870195 17.10699857 32.43385242 7.4609375 22.1875 C3.23533518 18.48368258 -1.85058965 16.03115664 -7.46875 15.49609375 C-8.18675781 15.42132813 -8.90476562 15.3465625 -9.64453125 15.26953125 C-19.31906724 14.69778573 -26.34732591 18.77523135 -32.99609375 25.5546875 Z " fill="#040404" transform="translate(263.46875,-0.49609375)"/>
<path d="M0 0 C1.90871396 -0.02146799 3.81733251 -0.05543588 5.72558594 -0.10253906 C20.28915791 -0.45639671 32.71490502 1.54115537 46.44946289 6.4050293 C47.13217255 6.6464566 47.8148822 6.88788391 48.51828003 7.1366272 C52.71238134 8.6504957 56.8340076 10.31561948 60.94946289 12.0300293 C62.20787414 12.54735253 63.46659049 13.06393413 64.72558594 13.57983398 C66.67172734 14.37830753 68.61714136 15.17834651 70.56047058 15.98364258 C74.52327474 17.62469453 78.50029752 19.2221915 82.49502563 20.78390503 C85.12596646 21.81410693 87.75070603 22.85955465 90.37475586 23.90716553 C92.20228867 24.63138155 94.03672815 25.33809304 95.87133789 26.04418945 C105.34688901 29.86887139 113.36995866 34.80758036 117.79321289 44.3503418 C118.63853724 46.99701208 119.01146175 49.66472644 119.44946289 52.4050293 C139.96513068 46.45702174 160.46934803 40.47450668 180.94946289 34.4050293 C184.40079096 33.3825462 187.85212434 32.36008103 191.3034668 31.33764648 C194.09600027 30.50981179 196.88802686 29.68029346 199.67993164 28.8503418 C201.16558246 28.41014896 202.65125729 27.97003717 204.13696289 27.5300293 C205.37833008 27.16135742 206.61969727 26.79268555 207.89868164 26.4128418 C220.02184997 22.97194254 230.73609098 21.35883579 242.44946289 27.4050293 C249.63170379 31.87370258 253.91869121 38.39707657 256.44946289 46.4050293 C257.61030247 55.07560797 257.23167154 62.94706105 252.44946289 70.4050293 C251.73790039 71.54198242 251.73790039 71.54198242 251.01196289 72.7019043 C243.26436292 83.80183118 230.32128407 88.52444396 218.32446289 93.7175293 C216.75174099 94.40653422 215.17940309 95.09641623 213.60742188 95.78710938 C210.28040484 97.24711867 206.95113276 98.70179715 203.61987305 100.15209961 C198.4065056 102.42213223 193.19881017 104.70495753 187.99243164 106.9909668 C187.12695206 107.37097839 186.26147247 107.75098999 185.36976624 108.14251709 C183.6231938 108.90942846 181.87663718 109.67637584 180.13009644 110.44335938 C177.5092233 111.59373178 174.88773768 112.74269826 172.26611328 113.89135742 C162.24257211 118.28513165 152.24091075 122.7234837 142.26196289 127.2175293 C137.65966476 129.28422043 133.0553562 131.34636333 128.44946289 133.4050293 C127.80948364 133.69138245 127.16950439 133.9777356 126.51013184 134.27276611 C122.46162358 136.08282519 118.40811221 137.88095416 114.34823608 139.66537476 C113.06811901 140.22973216 111.78941882 140.7973176 110.51235962 141.36856079 C99.10271544 146.46721982 88.52319742 149.95227224 75.94946289 149.7800293 C75.10254883 149.79163086 74.25563477 149.80323242 73.38305664 149.81518555 C62.32863151 149.76516552 52.22818808 146.18673443 42.09399414 142.0612793 C41.06690842 141.65091431 40.03982269 141.24054932 38.98161316 140.81774902 C35.73876798 139.52075277 32.50020056 138.21348144 29.26196289 136.9050293 C26.01231539 135.59840775 22.76178866 134.29403701 19.51017761 132.99230957 C17.49871236 132.18639043 15.48846741 131.37741618 13.47969055 130.56481934 C2.8440872 125.92145387 2.8440872 125.92145387 -8.45288086 123.97143555 C-9.68723877 123.95439575 -9.68723877 123.95439575 -10.9465332 123.93701172 C-12.20457764 123.95211792 -12.20457764 123.95211792 -13.48803711 123.9675293 C-14.80408936 123.97780151 -14.80408936 123.97780151 -16.14672852 123.98828125 C-25.79132925 124.22764808 -32.53346774 126.75727937 -39.55053711 133.4050293 C-39.05553711 134.3331543 -38.56053711 135.2612793 -38.05053711 136.2175293 C-35.66130183 141.9424602 -35.21325669 148.01290334 -37.51147461 153.8425293 C-41.57525675 160.98351062 -47.06114812 167.36272335 -52.21508789 173.74047852 C-53.43615921 175.26246467 -54.63332397 176.8035516 -55.82788086 178.34643555 C-65.30444572 190.55137801 -65.30444572 190.55137801 -72.55053711 192.4050293 C-81.26080748 193.34305841 -87.40582451 191.28264179 -94.23803711 185.9050293 C-96.01817666 184.41608542 -97.78814783 182.91494146 -99.55053711 181.4050293 C-100.64342698 180.48473606 -101.73721662 179.56551053 -102.83178711 178.6472168 C-105.08095021 176.75855236 -107.31743445 174.85626327 -109.54663086 172.9440918 C-111.29880078 171.46306391 -113.07342048 170.00655911 -114.89819336 168.6159668 C-118.0415037 166.20200772 -119.47254523 164.62730617 -120.80053711 160.8425293 C-120.55053711 157.4050293 -120.55053711 157.4050293 -118.55053711 154.4050293 C-115.55053711 152.4050293 -115.55053711 152.4050293 -112.30834961 152.40893555 C-107.46995557 153.69146203 -105.00350816 155.96534332 -101.42553711 159.3425293 C-100.11253002 160.52325092 -98.79738719 161.70160141 -97.48022461 162.87768555 C-96.49747559 163.76351318 -96.49747559 163.76351318 -95.49487305 164.66723633 C-92.57136394 167.28018683 -89.59829538 169.81346097 -86.55053711 172.2800293 C-85.56053711 173.10245117 -84.57053711 173.92487305 -83.55053711 174.7722168 C-80.59077652 176.68616911 -80.59077652 176.68616911 -76.93725586 176.44799805 C-72.97350562 175.22732756 -71.81985566 174.13299885 -69.36303711 170.8425293 C-68.61666992 169.85897461 -67.87030273 168.87541992 -67.10131836 167.86206055 C-66.69993652 167.31501465 -66.29855469 166.76796875 -65.88500977 166.2043457 C-64.40362449 164.20694184 -62.87669537 162.24963877 -61.34350586 160.29174805 C-60.24470937 158.87205691 -59.14704495 157.45148883 -58.05053711 156.0300293 C-57.25740112 155.01380493 -57.25740112 155.01380493 -56.44824219 153.97705078 C-53.82845325 150.51587604 -51.89597583 147.87846079 -51.55053711 143.4050293 C-52.14044434 143.12973389 -52.73035156 142.85443848 -53.33813477 142.57080078 C-55.45234951 141.45676686 -57.11370053 140.27310746 -58.94897461 138.75268555 C-59.58577148 138.22932617 -60.22256836 137.7059668 -60.87866211 137.16674805 C-61.55413086 136.60600586 -62.22959961 136.04526367 -62.92553711 135.4675293 C-64.37007186 134.28038437 -65.81539804 133.09420188 -67.26147461 131.90893555 C-68.3457373 131.01972412 -68.3457373 131.01972412 -69.4519043 130.11254883 C-72.45388581 127.67003386 -75.49797092 125.28380703 -78.55053711 122.9050293 C-84.29111133 118.42364076 -89.94748431 113.84545169 -95.58959961 109.2409668 C-100.43103491 105.29678591 -105.32258187 101.4232527 -110.24609375 97.58227539 C-115.54735916 93.43516559 -120.76337181 89.18582401 -125.95874023 84.90698242 C-127.81042276 83.39023939 -129.67594714 81.8933371 -131.55053711 80.4050293 C-132.17331543 79.90068359 -132.79609375 79.39633789 -133.43774414 78.87670898 C-136.64060664 76.18809766 -136.64060664 76.18809766 -140.58227539 75.5715332 C-142.96514534 76.58060267 -143.81551781 77.59482373 -145.32006836 79.6862793 C-145.81345703 80.35916992 -146.3068457 81.03206055 -146.81518555 81.7253418 C-147.58137207 82.80428711 -147.58137207 82.80428711 -148.36303711 83.9050293 C-149.42564911 85.37464052 -150.48944484 86.84339661 -151.55444336 88.3112793 C-152.0663623 89.02026367 -152.57828125 89.72924805 -153.10571289 90.4597168 C-154.89629831 92.87056246 -156.84182503 95.12987908 -158.80053711 97.4050293 C-161.26484102 100.63369547 -162.8285478 103.22837131 -162.41772461 107.37768555 C-160.34549972 112.22221129 -155.58525248 115.24181245 -151.55053711 118.4050293 C-149.65350556 119.96607433 -147.75765273 121.52855297 -145.86303711 123.0925293 C-143.38119722 125.12376563 -140.90628284 127.13963169 -138.33569336 129.05737305 C-135.02497758 131.60980628 -133.72313235 132.91313287 -132.30053711 136.9675293 C-132.55053711 140.4050293 -132.55053711 140.4050293 -134.55053711 143.4050293 C-137.55053711 145.4050293 -137.55053711 145.4050293 -140.81616211 145.3737793 C-145.48222616 144.1633359 -147.8412225 142.13677686 -151.30053711 138.9050293 C-152.52214452 137.80880729 -153.7448137 136.71376741 -154.96850586 135.61987305 C-155.56969238 135.07572754 -156.17087891 134.53158203 -156.7902832 133.97094727 C-160.13521614 130.99530235 -163.65239633 128.23574589 -167.14819336 125.44018555 C-174.01940486 119.619208 -177.84938309 114.24797944 -178.92553711 105.2800293 C-177.95912496 95.29377042 -170.95352475 87.6782276 -164.89868164 80.11352539 C-163.5334364 78.38335766 -162.20750528 76.62907697 -160.89038086 74.86206055 C-160.4562085 74.28302979 -160.02203613 73.70399902 -159.57470703 73.10742188 C-158.37163184 71.50001753 -157.17191542 69.89010086 -155.97241211 68.2800293 C-148.96442457 59.9608699 -148.96442457 59.9608699 -143.55053711 59.4050293 C-142.07351325 59.31519243 -140.59278162 59.2749002 -139.11303711 59.2800293 C-138.0012207 59.27616211 -138.0012207 59.27616211 -136.86694336 59.2722168 C-134.55053711 59.4050293 -134.55053711 59.4050293 -132.19897461 60.3347168 C-129.58284059 60.6735407 -129.58284059 60.6735407 -127.97509766 59.25805664 C-126.11170269 57.451598 -124.35934148 55.57491895 -122.61303711 53.6550293 C-115.74561591 46.45327089 -108.58177443 40.2614816 -100.55053711 34.4050293 C-99.50510742 33.63803711 -98.45967773 32.87104492 -97.38256836 32.08081055 C-66.90784042 10.38886135 -37.27775802 0.31278058 0 0 Z M-49.55053711 22.4050293 C-50.34427734 22.74566406 -51.13801758 23.08629883 -51.95581055 23.43725586 C-76.73938775 34.28065562 -101.3855904 50.14284396 -118.55053711 71.4050293 C-112.86606975 76.65338672 -106.94781274 81.51768355 -100.84692383 86.265625 C-97.20770203 89.09878895 -93.60943329 91.97077713 -90.05053711 94.9050293 C-85.46206078 98.68298645 -80.80749183 102.36585767 -76.11547852 106.01367188 C-72.7764276 108.61988274 -69.48935462 111.27504835 -66.24194336 113.99487305 C-65.52288818 114.59332031 -64.80383301 115.19176758 -64.06298828 115.80834961 C-62.66179593 116.97795712 -61.26714252 118.15545314 -59.87988281 119.34155273 C-59.24268311 119.87167969 -58.6054834 120.40180664 -57.94897461 120.94799805 C-57.38871582 121.42261475 -56.82845703 121.89723145 -56.2512207 122.38623047 C-54.30905163 123.74762796 -54.30905163 123.74762796 -50.55053711 123.4050293 C-48.68172821 122.05275561 -48.68172821 122.05275561 -46.92553711 120.2175293 C-37.72036101 111.76519288 -27.01721453 109.04525113 -14.80053711 109.0925293 C-13.98327148 109.07641602 -13.16600586 109.06030273 -12.32397461 109.04370117 C-1.47092688 109.03524864 8.48739311 112.5482338 18.51196289 116.4050293 C19.52057373 116.78731689 20.52918457 117.16960449 21.56835938 117.56347656 C30.92728083 121.14005697 40.20212592 124.92440991 49.45166016 128.77416992 C57.97639542 132.30208799 65.31591626 134.76490095 74.57446289 134.7800293 C75.34016602 134.80452148 76.10586914 134.82901367 76.89477539 134.85424805 C91.04877669 134.92408687 104.31418192 127.6128858 116.94946289 121.9675293 C118.78310299 121.15476146 120.61700933 120.34259402 122.45117188 119.53100586 C127.78867619 117.16625635 133.12020883 114.78830562 138.44946289 112.4050293 C139.1709552 112.08242126 139.89244751 111.75981323 140.63580322 111.4274292 C146.08297813 108.99067746 151.52765379 106.5483888 156.96899414 104.09863281 C165.0954995 100.44388871 173.24841796 96.85384568 181.41595459 93.29211426 C186.75930307 90.96116529 192.09929624 88.6225336 197.43951416 86.28442383 C199.47212528 85.39511403 201.50545398 84.50745899 203.53881836 83.61987305 C206.86346663 82.16739498 210.1838061 80.7054294 213.50146484 79.23706055 C215.32338077 78.43308677 217.14905672 77.63765039 218.97485352 76.8425293 C231.85260953 71.51988281 231.85260953 71.51988281 240.85571289 61.45581055 C242.31376902 56.41976142 242.57443372 51.15274567 240.56665039 46.2487793 C237.73961159 41.83036104 234.54636756 39.82547814 229.44946289 38.4050293 C221.51031725 37.55288161 214.799064 39.47139867 207.32446289 41.9675293 C191.48757373 47.11297772 175.4942827 51.69399581 159.4765625 56.24079895 C155.02321214 57.5075682 150.57334734 58.78630728 146.12402344 60.06713867 C143.85025661 60.71834311 141.57480668 61.36369474 139.29785156 62.00366211 C135.94407116 62.94772081 132.59686485 63.91250307 129.25024414 64.8815918 C128.23577713 65.16193268 127.22131012 65.44227356 126.17610168 65.73110962 C119.04981456 67.82649681 115.64172887 70.50175813 111.13696289 76.4675293 C106.22423193 81.83725849 101.66504396 83.64420331 94.38696289 84.0300293 C84.73737038 83.75167567 75.64335701 80.80855634 66.40551758 78.21313477 C61.80085242 76.95434374 57.16026874 75.86421975 52.51196289 74.7800293 C50.79710536 74.37253521 49.08226131 73.96498436 47.36743164 73.55737305 C44.14579952 72.79647232 40.91955758 72.062748 37.68774414 71.34643555 C36.23326688 71.01201831 34.77883698 70.67739496 33.32446289 70.3425293 C32.06375977 70.06280273 30.80305664 69.78307617 29.50415039 69.49487305 C26.17004901 68.30534071 25.10208234 67.48598412 23.44946289 64.4050293 C23.03787439 61.59250787 23.07346331 60.08652853 24.44946289 57.5925293 C29.97730363 54.31037386 38.03343034 56.98446745 43.88696289 58.4050293 C44.80493652 58.61925537 45.72291016 58.83348145 46.66870117 59.05419922 C52.03484017 60.31612737 57.38660493 61.6342878 62.73530579 62.96780396 C65.69485551 63.70493822 68.65584869 64.43620333 71.61672974 65.16796875 C73.78883222 65.70865992 75.95786573 66.26058919 78.12695312 66.81323242 C79.49215915 67.15286651 80.8574705 67.4920776 82.22290039 67.83081055 C84.02380127 68.28580933 84.02380127 68.28580933 85.86108398 68.75 C89.92738225 69.49226958 93.32295436 69.66526687 97.44946289 69.4050293 C101.13238623 66.60280502 103.30105143 63.89427409 104.44946289 59.4050293 C104.87356924 54.95191264 104.85452405 52.4176822 103.19946289 48.2800293 C94.95086407 39.65649416 80.19958243 35.92070181 69.30688477 31.59155273 C66.34866994 30.4146598 63.39501041 29.22685687 60.44165039 28.0378418 C55.67778283 26.12761646 50.89911738 24.26002608 46.10568237 22.42529297 C44.40306766 21.7713124 42.70346045 21.1094144 41.00784302 20.4375 C29.17255766 15.77793148 18.80683715 14.55697806 6.13696289 14.9050293 C4.41237587 14.93228006 2.68776507 14.95806372 0.96313477 14.98242188 C-24.87529463 15.35661821 -24.87529463 15.35661821 -49.55053711 22.4050293 Z " fill="#040404" transform="translate(216.550537109375,319.594970703125)"/>
<path d="M0 0 C18.48 0 36.96 0 56 0 C53.61383688 1.19308156 51.21514685 2.36231345 48.79296875 3.48046875 C37.63194244 8.66362241 37.63194244 8.66362241 30 18 C29.34 18 28.68 18 28 18 C26.95502642 16.83034207 25.963904 15.61231908 25 14.375 C18.23310088 6.47562397 9.98999744 3.16513252 0 1 C0 0.67 0 0.34 0 0 Z " fill="#F2F2F2" transform="translate(258,0)"/>
<path d="M0 0 C6.6 0 13.2 0 20 0 C19.34 1.98 18.68 3.96 18 6 C17.45472656 5.80664062 16.90945313 5.61328125 16.34765625 5.4140625 C10.9561948 3.55239547 5.59078274 2.12344334 0 1 C0 0.67 0 0.34 0 0 Z " fill="#DFDFDF" transform="translate(326,0)"/>
<path d="M0 0 C4.62 0 9.24 0 14 0 C14 0.99 14 1.98 14 3 C4.58997722 2.03644647 4.58997722 2.03644647 0 1 C0 0.67 0 0.34 0 0 Z " fill="#E1E1E1" transform="translate(258,0)"/>
<path d="M0 0 C0.99 0.99 1.98 1.98 3 3 C2.34 3.66 1.68 4.32 1 5 C0.01 4.34 -0.98 3.68 -2 3 C-1.34 2.01 -0.68 1.02 0 0 Z M-5 5 C-4.34 5.33 -3.68 5.66 -3 6 C-4.32 7.32 -5.64 8.64 -7 10 C-7.66 9.34 -8.32 8.68 -9 8 C-7.68 7.01 -6.36 6.02 -5 5 Z " fill="#DFDFDF" transform="translate(465,394)"/>
</svg>
