<?xml version="1.0" encoding="UTF-8"?>
<svg version="1.1" xmlns="http://www.w3.org/2000/svg" width="512" height="512">
<path d="M0 0 C2.83944996 3.24508567 3.57591395 4.88385018 3.796875 9.07421875 C3.45470561 12.90807126 1.65586823 15.12280673 -1.19287109 17.546875 C-3.52431232 19.09943018 -5.39514538 19.75171105 -8.1015625 20.4375 C-9.03798584 20.68677246 -9.97440918 20.93604492 -10.93920898 21.19287109 C-11.94927002 21.45922363 -12.95933105 21.72557617 -14 22 C-33.73195399 27.49039472 -52.65095592 35.74368649 -70.375 46 C-71.07963379 46.40653809 -71.78426758 46.81307617 -72.51025391 47.23193359 C-99.38055863 62.88587196 -123.44733074 82.10068695 -146.375 103 C-147.28378906 103.81597656 -148.19257813 104.63195312 -149.12890625 105.47265625 C-159.4375503 114.79298822 -169.71638233 124.4010918 -178.69140625 135.03125 C-181.74423177 138.60114341 -184.96063388 142.02786292 -188.140625 145.484375 C-190.01234086 147.59169146 -191.73019662 149.71436413 -193.375 152 C-186.04618854 168.1752051 -168.17831834 182.2737511 -155.875 194.625 C-155.05088623 195.45378662 -154.22677246 196.28257324 -153.37768555 197.13647461 C-148.53791611 201.96349103 -143.57612408 206.56609422 -138.375 211 C-137.36564665 211.87732955 -136.35651438 212.75491354 -135.34765625 213.6328125 C-126.61872026 221.10806238 -117.59812911 228.1453671 -108.375 235 C-107.71048828 235.49612793 -107.04597656 235.99225586 -106.36132812 236.50341797 C-81.06286304 255.2641479 -53.19604972 270.78395179 -23.375 281 C-22.55322266 281.28214355 -21.73144531 281.56428711 -20.88476562 281.85498047 C17.30564344 294.70373625 54.54740807 293.20760752 93.625 285 C93.56699219 283.83082031 93.50898438 282.66164063 93.44921875 281.45703125 C93.40230551 279.9088942 93.35680702 278.36071383 93.3125 276.8125 C93.27060547 276.04357422 93.22871094 275.27464844 93.18554688 274.48242188 C93.16943359 273.73154297 93.15332031 272.98066406 93.13671875 272.20703125 C93.11053467 271.5210083 93.08435059 270.83498535 93.05737305 270.12817383 C94.04776474 266.41495043 95.46421417 265.20400742 98.625 263 C102.80170574 262.3030878 106.92055135 262.41912525 111.14453125 262.51171875 C112.35823898 262.51879349 113.57194672 262.52586823 114.82243347 262.53315735 C118.69475212 262.56112111 122.56561917 262.62386909 126.4375 262.6875 C129.06443223 262.71258004 131.69138714 262.73539371 134.31835938 262.75585938 C140.7544006 262.8109547 147.18959659 262.89460345 153.625 263 C153.61389694 262.32205887 153.60279388 261.64411774 153.59135437 260.94563293 C153.48073213 253.88926366 153.40532012 246.8331407 153.3503418 239.77612305 C153.32519843 237.14255773 153.29107916 234.50906218 153.24780273 231.87573242 C153.1871479 228.09015691 153.1587873 224.30550402 153.13671875 220.51953125 C153.11091232 219.34227982 153.0851059 218.16502838 153.05851746 216.95210266 C153.0581398 215.85133896 153.05776215 214.75057526 153.05737305 213.61645508 C153.04626999 212.65048904 153.03516693 211.68452301 153.02372742 210.68928528 C153.88553238 206.83472836 155.50901655 205.36188337 158.625 203 C161.66218567 202.46842957 161.66218567 202.46842957 165.08911133 202.59448242 C166.37848099 202.62648239 167.66785065 202.65848236 168.99629211 202.69145203 C170.02413032 202.73290627 170.02413032 202.73290627 171.07273293 202.77519798 C173.24136056 202.85675987 175.40712333 202.89689004 177.57707214 202.92463684 C183.74278812 203.00613904 189.90526574 203.1223608 196.06713867 203.35961914 C216.04806435 204.78266827 216.04806435 204.78266827 233.33757019 196.58406067 C235.8118976 193.89597077 238.02451764 191.13051346 240.108078 188.13035583 C244.02672221 182.62703625 248.83592126 177.74332287 253.4375 172.8125 C258.89964861 166.83853716 263.78269664 160.48044428 268.625 154 C261.51325151 138.26029268 244.1539527 124.45043296 232.1875 112.4375 C231.35951904 111.60484619 230.53153809 110.77219238 229.6784668 109.91430664 C224.82128093 105.0698372 219.84121988 100.45373872 214.625 96 C213.49537157 95.01515065 212.36643742 94.02950425 211.23828125 93.04296875 C203.57959888 86.39833992 195.76146369 80.05187887 187.625 74 C186.97080078 73.50918945 186.31660156 73.01837891 185.64257812 72.51269531 C152.99177306 48.09305779 117.94717418 29.88445803 78.71777344 18.71118164 C75.72918008 17.69557589 74.29826669 16.69177685 72.625 14 C71.43228691 10.00189133 71.17467446 7.06656048 72.8125 3.1875 C74.70298243 0.90588328 75.99864184 -0.61386653 78.625 -2 C84.55902296 -2.44181429 89.55796653 -1.21392148 95.1875 0.4375 C96.09935059 0.70264404 97.01120117 0.96778809 97.95068359 1.2409668 C108.48273423 4.41245821 118.57202066 8.56075621 128.625 13 C129.45273926 13.36496582 130.28047852 13.72993164 131.13330078 14.10595703 C163.61463084 28.59642396 193.74217006 49.27413135 220.6328125 72.4453125 C223.50418941 74.89685362 226.42778357 77.26559405 229.375 79.625 C233.7038608 83.14337743 237.63340264 86.90140359 241.5234375 90.89453125 C243.42938122 92.80401762 245.38280854 94.56643503 247.4375 96.3125 C255.14544984 102.94133686 262.34963743 110.28915197 268.93359375 118.03125 C270.86367842 120.27781507 272.86918139 122.44583904 274.875 124.625 C280.4672594 130.81299837 285.54663353 137.3897984 290.625 144 C291.20894531 144.70511719 291.79289062 145.41023437 292.39453125 146.13671875 C294.37656486 149.13808393 294.46579244 151.56043445 294.3515625 155.1015625 C292.92882092 160.77723054 288.83968334 164.99067912 285.07910156 169.32226562 C283.65934053 170.96037809 282.27515618 172.62251432 280.8984375 174.296875 C275.16669179 181.22915413 269.15425912 187.88248913 263.01611328 194.45581055 C262.01832631 195.56339261 261.05110086 196.69880009 260.10498047 197.85083008 C256.89024868 201.72619445 253.67749099 204.81407916 249.6015625 207.78515625 C242.18955787 213.51249047 235.24676947 219.13855684 233.61035156 228.73974609 C232.2752891 240.08764291 232.8387836 251.62879219 233.625 263 C234.30294113 262.98889694 234.98088226 262.97779388 235.67936707 262.96635437 C242.73573634 262.85573213 249.7918593 262.78032012 256.84887695 262.7253418 C259.48244227 262.70019843 262.11593782 262.66607916 264.74926758 262.62280273 C268.53484309 262.5621479 272.31949598 262.5337873 276.10546875 262.51171875 C277.8713459 262.47300911 277.8713459 262.47300911 279.67289734 262.43351746 C280.77366104 262.4331398 281.87442474 262.43276215 283.00854492 262.43237305 C283.97451096 262.42126999 284.94047699 262.41016693 285.93571472 262.39872742 C289.80277985 263.26332897 291.25768866 264.86797542 293.625 268 C294.25991821 271.22509766 294.25991821 271.22509766 294.27197266 274.9140625 C294.28073425 275.58951111 294.28949585 276.26495972 294.29852295 276.96087646 C294.32044369 279.18291382 294.30599347 281.40294416 294.2890625 283.625 C294.29243282 285.17529684 294.29728724 286.72559109 294.30355835 288.27587891 C294.31091963 291.5207644 294.30024926 294.76496045 294.27685547 298.00976562 C294.24836682 302.1630033 294.26477498 306.31462551 294.29471779 310.46780396 C294.31281168 313.66784777 294.30702345 316.86751043 294.29407883 320.06756592 C294.29075053 321.59853305 294.29481169 323.12953512 294.30647659 324.66046143 C294.31922147 326.8032149 294.29976493 328.94337649 294.27197266 331.0859375 C294.26799469 332.3032959 294.26401672 333.5206543 294.25991821 334.77490234 C293.43280425 338.97626757 292.02578049 340.45497659 288.625 343 C285.93571472 343.60127258 285.93571472 343.60127258 283.00854492 343.56762695 C281.90778122 343.5672493 280.80701752 343.56687164 279.67289734 343.56648254 C278.4956459 343.54067612 277.31839447 343.51486969 276.10546875 343.48828125 C274.89176102 343.48120651 273.67805328 343.47413177 272.42756653 343.46684265 C268.55524788 343.43887889 264.68438083 343.37613091 260.8125 343.3125 C258.18556777 343.28741996 255.55861286 343.26460629 252.93164062 343.24414062 C246.4955994 343.1890453 240.06040341 343.10539655 233.625 343 C233.63610306 343.67794113 233.64720612 344.35588226 233.65864563 345.05436707 C233.76926787 352.11073634 233.84467988 359.1668593 233.8996582 366.22387695 C233.92480157 368.85744227 233.95892084 371.49093782 234.00219727 374.12426758 C234.0628521 377.90984309 234.0912127 381.69449598 234.11328125 385.48046875 C234.13908768 386.65772018 234.1648941 387.83497162 234.19148254 389.04789734 C234.1918602 390.14866104 234.19223785 391.24942474 234.19262695 392.38354492 C234.20373001 393.34951096 234.21483307 394.31547699 234.22627258 395.31071472 C233.36167103 399.17777985 231.75702458 400.63268866 228.625 403 C225.39990234 403.63491821 225.39990234 403.63491821 221.7109375 403.64697266 C220.69776459 403.66011505 220.69776459 403.66011505 219.66412354 403.67352295 C217.44208618 403.69544369 215.22205584 403.68099347 213 403.6640625 C211.44970316 403.66743282 209.89940891 403.67228724 208.34912109 403.67855835 C205.1042356 403.68591963 201.86003955 403.67524926 198.61523438 403.65185547 C194.4619967 403.62336682 190.31037449 403.63977498 186.15719604 403.66971779 C182.95715223 403.68781168 179.75748957 403.68202345 176.55743408 403.66907883 C175.02646695 403.66575053 173.49546488 403.66981169 171.96453857 403.68147659 C169.8217851 403.69422147 167.68162351 403.67476493 165.5390625 403.64697266 C164.3217041 403.64299469 163.1043457 403.63901672 161.85009766 403.63491821 C157.64873243 402.80780425 156.17002341 401.40078049 153.625 398 C153.02372742 395.31071472 153.02372742 395.31071472 153.05737305 392.38354492 C153.0577507 391.28278122 153.05812836 390.18201752 153.05851746 389.04789734 C153.08432388 387.8706459 153.11013031 386.69339447 153.13671875 385.48046875 C153.14379349 384.26676102 153.15086823 383.05305328 153.15815735 381.80256653 C153.18612111 377.93024788 153.24886909 374.05938083 153.3125 370.1875 C153.33758004 367.56056777 153.36039371 364.93361286 153.38085938 362.30664062 C153.4359547 355.8705994 153.51960345 349.43540341 153.625 343 C152.94705887 343.01110306 152.26911774 343.02220612 151.57063293 343.03364563 C144.51426366 343.14426787 137.4581407 343.21967988 130.40112305 343.2746582 C127.76755773 343.29980157 125.13406218 343.33392084 122.50073242 343.37719727 C118.71515691 343.4378521 114.93050402 343.4662127 111.14453125 343.48828125 C109.3786541 343.52699089 109.3786541 343.52699089 107.57710266 343.56648254 C99.51662546 343.56924797 99.51662546 343.56924797 95.37304688 340.92382812 C93.18064702 337.25676379 93.04906098 334.99063618 93.13671875 330.73046875 C93.14379349 330.04946609 93.15086823 329.36846344 93.15815735 328.66682434 C93.18599931 326.50590005 93.24870473 324.34763178 93.3125 322.1875 C93.33759668 320.71683448 93.36040747 319.24612807 93.38085938 317.77539062 C93.43578812 314.18274043 93.52198353 310.59162972 93.625 307 C92.79460205 307.19698486 91.9642041 307.39396973 91.10864258 307.59692383 C60.06375336 314.87630753 25.79921664 316.61319842 -5.375 309 C-6.36886719 308.76394043 -7.36273438 308.52788086 -8.38671875 308.28466797 C-29.65425635 303.1112127 -50.15766375 295.27155344 -69.48583984 284.99755859 C-71.4657788 283.95206485 -73.45961058 282.93743739 -75.45703125 281.92578125 C-106.05889935 266.28387931 -133.67071342 245.22548077 -159.015625 222.140625 C-160.51286166 220.78220498 -162.02204408 219.4367458 -163.546875 218.109375 C-169.622055 212.78835528 -175.34420499 207.13774587 -181.0625 201.4375 C-181.87066162 200.63393066 -182.67882324 199.83036133 -183.51147461 199.00244141 C-188.33908723 194.16242357 -192.93489692 189.19606744 -197.375 184 C-198.37150724 182.8585986 -199.36887166 181.71794486 -200.3671875 180.578125 C-202.90066656 177.6652277 -205.40086575 174.72561841 -207.88378906 171.76953125 C-208.84768218 170.62573667 -209.81798235 169.4872974 -210.79589844 168.35546875 C-218.86410151 158.96489594 -218.86410151 158.96489594 -219.625 153.125 C-218.90413938 146.17146756 -213.43991507 140.89381579 -209.00439453 135.85302734 C-207.40364347 134.03257476 -205.8373987 132.18740525 -204.27734375 130.33203125 C-191.993456 115.82098207 -179.04343294 101.32294252 -164.59375 88.9375 C-162.39156128 87.01446197 -160.24284957 85.04012162 -158.1003418 83.05102539 C-152.05229113 77.44272821 -145.83559866 72.13285658 -139.375 67 C-138.78106445 66.51756836 -138.18712891 66.03513672 -137.57519531 65.53808594 C-118.8307097 50.31820446 -98.5575136 36.77721012 -77.40966797 25.12451172 C-75.50321393 24.07086073 -73.61223671 22.99368106 -71.72265625 21.91015625 C-16.0281781 -9.49817961 -16.0281781 -9.49817961 0 0 Z M173.625 223 C173.53412109 228.90326172 173.53412109 228.90326172 173.44140625 234.92578125 C173.37963564 238.72845417 173.31624013 242.53109676 173.25268555 246.33374023 C173.20931696 248.98084832 173.16764332 251.62798472 173.12768555 254.27514648 C173.07002977 258.075445 173.00632156 261.87560068 172.94140625 265.67578125 C172.92469376 266.86335526 172.90798126 268.05092926 172.89076233 269.27449036 C172.87081711 270.37540512 172.85087189 271.47631989 172.83032227 272.6105957 C172.81477798 273.58100296 172.7992337 274.55141022 172.78321838 275.55122375 C172.625 278 172.625 278 171.625 281 C168.57862701 282.01545766 166.42722902 282.1541977 163.2355957 282.20532227 C161.58422356 282.2352401 161.58422356 282.2352401 159.89949036 282.26576233 C158.71191635 282.28247482 157.52434235 282.29918732 156.30078125 282.31640625 C155.08424362 282.33718735 153.86770599 282.35796844 152.61430359 282.37937927 C148.72209404 282.44484717 144.82981615 282.50374715 140.9375 282.5625 C138.30142518 282.60568782 135.66535731 282.6493022 133.02929688 282.69335938 C126.56126699 282.80132964 120.09318642 282.90042425 113.625 283 C113.625 296.2 113.625 309.4 113.625 323 C117.56050781 323.06058594 121.49601562 323.12117188 125.55078125 323.18359375 C129.35345417 323.24536436 133.15609676 323.30875987 136.95874023 323.37231445 C139.60584832 323.41568304 142.25298472 323.45735668 144.90014648 323.49731445 C148.700445 323.55497023 152.50060068 323.61867844 156.30078125 323.68359375 C157.48835526 323.70030624 158.67592926 323.71701874 159.89949036 323.73423767 C161.00040512 323.75418289 162.10131989 323.77412811 163.2355957 323.79467773 C164.69120659 323.81799416 164.69120659 323.81799416 166.17622375 323.84178162 C168.625 324 168.625 324 171.625 325 C172.64045766 328.04637299 172.7791977 330.19777098 172.83032227 333.3894043 C172.8602401 335.04077644 172.8602401 335.04077644 172.89076233 336.72550964 C172.90747482 337.91308365 172.92418732 339.10065765 172.94140625 340.32421875 C172.96218735 341.54075638 172.98296844 342.75729401 173.00437927 344.01069641 C173.06984717 347.90290596 173.12874715 351.79518385 173.1875 355.6875 C173.23068782 358.32357482 173.2743022 360.95964269 173.31835938 363.59570312 C173.42632964 370.06373301 173.52542425 376.53181358 173.625 383 C186.825 383 200.025 383 213.625 383 C213.68558594 379.06449219 213.74617188 375.12898437 213.80859375 371.07421875 C213.87036436 367.27154583 213.93375987 363.46890324 213.99731445 359.66625977 C214.04068304 357.01915168 214.08235668 354.37201528 214.12231445 351.72485352 C214.17997023 347.924555 214.24367844 344.12439932 214.30859375 340.32421875 C214.32530624 339.13664474 214.34201874 337.94907074 214.35923767 336.72550964 C214.37918289 335.62459488 214.39912811 334.52368011 214.41967773 333.3894043 C214.43522202 332.41899704 214.4507663 331.44858978 214.46678162 330.44877625 C214.625 328 214.625 328 215.625 325 C218.67137299 323.98454234 220.82277098 323.8458023 224.0144043 323.79467773 C225.66577644 323.7647599 225.66577644 323.7647599 227.35050964 323.73423767 C228.53808365 323.71752518 229.72565765 323.70081268 230.94921875 323.68359375 C232.16575638 323.66281265 233.38229401 323.64203156 234.63569641 323.62062073 C238.52790596 323.55515283 242.42018385 323.49625285 246.3125 323.4375 C248.94857482 323.39431218 251.58464269 323.3506978 254.22070312 323.30664062 C260.68873301 323.19867036 267.15681358 323.09957575 273.625 323 C273.625 309.8 273.625 296.6 273.625 283 C269.68949219 282.93941406 265.75398437 282.87882812 261.69921875 282.81640625 C257.89654583 282.75463564 254.09390324 282.69124013 250.29125977 282.62768555 C247.64415168 282.58431696 244.99701528 282.54264332 242.34985352 282.50268555 C238.549555 282.44502977 234.74939932 282.38132156 230.94921875 282.31640625 C229.16785774 282.29133751 229.16785774 282.29133751 227.35050964 282.26576233 C226.24959488 282.24581711 225.14868011 282.22587189 224.0144043 282.20532227 C223.04399704 282.18977798 222.07358978 282.1742337 221.07377625 282.15821838 C218.625 282 218.625 282 215.625 281 C214.60954234 277.95362701 214.4708023 275.80222902 214.41967773 272.6105957 C214.3897599 270.95922356 214.3897599 270.95922356 214.35923767 269.27449036 C214.34252518 268.08691635 214.32581268 266.89934235 214.30859375 265.67578125 C214.28781265 264.45924362 214.26703156 263.24270599 214.24562073 261.98930359 C214.18015283 258.09709404 214.12125285 254.20481615 214.0625 250.3125 C214.01931218 247.67642518 213.9756978 245.04035731 213.93164062 242.40429688 C213.82367036 235.93626699 213.72457575 229.46818642 213.625 223 C200.425 223 187.225 223 173.625 223 Z " fill="#000000" transform="translate(218.375,58)"/>
<path d="M0 0 C20.50344719 16.35858624 34.49253702 39.32825632 37.82421875 65.5703125 C39.94648777 96.61587404 33.74342914 122.80227612 13.28295898 146.72631836 C0.41631746 161.23826629 -15.573261 171.07998534 -34.17578125 176.5703125 C-35.16578125 176.88871094 -36.15578125 177.20710937 -37.17578125 177.53515625 C-62.80324031 184.48660452 -90.24835262 179.39476653 -113.16015625 166.94921875 C-135.71858343 153.35548445 -151.72645892 132.81036932 -159.17578125 107.5703125 C-159.49417969 106.5803125 -159.81257812 105.5903125 -160.140625 104.5703125 C-167.09207327 78.94285344 -162.00023528 51.49774113 -149.5546875 28.5859375 C-135.46229388 5.19999892 -113.57689128 -11.42705272 -87.17578125 -18.4296875 C-56.42385449 -25.72665231 -24.92368657 -19.06830633 0 0 Z M-120.17578125 24.5703125 C-136.356934 41.40968163 -141.74529448 62.72466133 -141.4453125 85.46875 C-140.93782065 101.78348785 -133.80895102 118.18845168 -123.17578125 130.5703125 C-122.67949219 131.20839844 -122.18320313 131.84648437 -121.671875 132.50390625 C-108.49283899 148.79510016 -88.22973096 157.1337567 -67.86328125 159.3828125 C-46.18606648 160.63794677 -25.06700259 153.19157535 -8.74926758 138.97680664 C6.21459982 125.26670005 16.18728281 106.34480482 17.1328125 85.95703125 C17.75101284 64.71143419 12.94512558 45.01349048 -1.17578125 28.5703125 C-1.67207031 27.93222656 -2.16835938 27.29414063 -2.6796875 26.63671875 C-15.85872351 10.34552484 -36.12183154 2.0068683 -56.48828125 -0.2421875 C-80.8552464 -1.65306124 -102.88705571 7.84688589 -120.17578125 24.5703125 Z " fill="#000000" transform="translate(318.17578125,131.4296875)"/>
<path d="M0 0 C8.80288754 6.34043826 15.4186507 14.72648904 17.58203125 25.4921875 C18.92007691 37.90936834 17.85729499 48.88109459 10.39453125 59.2421875 C3.58210875 67.3274193 -4.72289951 73.55522767 -15.48876953 74.71533203 C-28.40007937 75.61089799 -39.16843729 74.04490094 -49.3515625 65.46484375 C-57.86959925 57.33325857 -62.42046403 48.68416257 -62.88867188 36.85693359 C-63.04371176 24.34263074 -60.22647828 14.71931927 -51.41796875 5.4921875 C-37.63784493 -7.66275112 -16.31305228 -10.17259803 0 0 Z M-39.41796875 24.0546875 C-42.33185757 29.29770513 -42.37407157 34.66936456 -41.41796875 40.4921875 C-39.46232201 45.93749746 -35.82498142 49.84183452 -30.7890625 52.640625 C-25.31544692 54.60643752 -19.52049058 54.60643752 -14.046875 52.640625 C-9.01095608 49.84183452 -5.37361549 45.93749746 -3.41796875 40.4921875 C-2.46186593 34.66936456 -2.50407993 29.29770513 -5.41796875 24.0546875 C-9.12325879 19.1108604 -13.15064246 16.02867984 -19.3203125 15.015625 C-28.16776592 14.59166128 -34.07633052 16.92754345 -39.41796875 24.0546875 Z " fill="#000000" transform="translate(278.41796875,176.5078125)"/>
<path d="M0 0 C3.125 1.875 3.125 1.875 5 5 C5.98876625 10.02622846 5.7769173 13.70513784 3.125 18.125 C-1.29486216 20.7769173 -4.97377154 20.98876625 -10 20 C-13.125 18.125 -13.125 18.125 -15 15 C-15.98876625 9.97377154 -15.7769173 6.29486216 -13.125 1.875 C-8.70513784 -0.7769173 -5.02622846 -0.98876625 0 0 Z " fill="#000000" transform="translate(261,51)"/>
</svg>
